<svg width="20" height="20" viewBox="0 0 20 20" fill="none" xmlns="http://www.w3.org/2000/svg">
<path d="M16.6673 10.8333C16.6673 15 13.7507 17.0833 10.284 18.2917C10.1025 18.3532 9.90527 18.3502 9.72565 18.2833C6.25065 17.0833 3.33398 15 3.33398 10.8333V5C3.33398 4.77898 3.42178 4.56702 3.57806 4.41074C3.73434 4.25446 3.9463 4.16667 4.16732 4.16667C5.83398 4.16667 7.91732 3.16666 9.36732 1.9C9.54386 1.74916 9.76845 1.66629 10.0007 1.66629C10.2329 1.66629 10.4574 1.74916 10.634 1.9C12.0923 3.175 14.1673 4.16667 15.834 4.16667C16.055 4.16667 16.267 4.25446 16.4232 4.41074C16.5795 4.56702 16.6673 4.77898 16.6673 5V10.8333Z" stroke="#FFFCE5" stroke-linecap="round" stroke-linejoin="round"/>
<path d="M3.53516 4.34167L15.5268 14.735" stroke="#FFFCE5" stroke-linecap="round" stroke-linejoin="round"/>
</svg>
