<svg width="15" height="16" viewBox="0 0 15 16" fill="none" xmlns="http://www.w3.org/2000/svg">
<path d="M5.625 2H3.125C2.43464 2 1.875 2.59695 1.875 3.33333V6C1.875 6.73638 2.43464 7.33333 3.125 7.33333H5.625C6.31536 7.33333 6.875 6.73638 6.875 6V3.33333C6.875 2.59695 6.31536 2 5.625 2Z" stroke="#4C4C4C" stroke-linecap="round" stroke-linejoin="round"/>
<path d="M4.375 7.33334V10C4.375 10.3536 4.5067 10.6928 4.74112 10.9428C4.97554 11.1929 5.29348 11.3333 5.625 11.3333H8.125" stroke="#4C4C4C" stroke-linecap="round" stroke-linejoin="round"/>
<path d="M11.875 8.66666H9.375C8.68464 8.66666 8.125 9.26361 8.125 9.99999V12.6667C8.125 13.403 8.68464 14 9.375 14H11.875C12.5654 14 13.125 13.403 13.125 12.6667V9.99999C13.125 9.26361 12.5654 8.66666 11.875 8.66666Z" stroke="#4C4C4C" stroke-linecap="round" stroke-linejoin="round"/>
</svg>
