<svg width="56" height="57" viewBox="0 0 56 57" fill="none" xmlns="http://www.w3.org/2000/svg">
<rect x="0.5" y="0.5" width="54.424" height="56" rx="9.5" stroke="black"/>
<path d="M13.3965 9.19354H22.216V35.2837H41.7651V43.341H13.3965V9.19354Z" fill="#1E1E1E"/>
<path d="M13.6582 47.8065V45.7051H14.0687V47.4874H15.0666V47.8065H13.6582Z" fill="#1E1E1E"/>
<path d="M16.1082 47.8065V45.7051H17.5819V46.0242H16.5187V46.5947H17.5056V46.9138H16.5187V47.4874H17.5908V47.8065H16.1082Z" fill="#1E1E1E"/>
<path d="M18.9771 47.8065H18.5389L19.3366 45.7051H19.8433L20.6421 47.8065H20.204L19.5988 46.1361H19.5811L18.9771 47.8065ZM18.9914 46.9826H20.1863V47.2883H18.9914V46.9826Z" fill="#1E1E1E"/>
<path d="M21.626 47.8065V45.7051H22.4756C22.6497 45.7051 22.7958 45.7332 22.9138 45.7892C23.0325 45.8453 23.1221 45.924 23.1826 46.0252C23.2438 46.1258 23.2744 46.2431 23.2744 46.3772C23.2744 46.5119 23.2435 46.6289 23.1815 46.7281C23.1203 46.8266 23.0299 46.9029 22.9104 46.9569C22.791 47.0103 22.6442 47.0369 22.4701 47.0369H21.8649V46.7209H22.4148C22.5166 46.7209 22.5999 46.7079 22.6648 46.6819C22.7297 46.6552 22.7777 46.6166 22.8087 46.566C22.8404 46.5147 22.8562 46.4517 22.8562 46.3772C22.8562 46.3026 22.8404 46.239 22.8087 46.1863C22.7769 46.133 22.7286 46.0926 22.6637 46.0653C22.5988 46.0372 22.5151 46.0232 22.4126 46.0232H22.0364V47.8065H21.626ZM22.7965 46.8543L23.3574 47.8065H22.8994L22.3484 46.8543H22.7965Z" fill="#1E1E1E"/>
<path d="M26.1997 45.7051V47.8065H25.8346L24.7669 46.3751H24.7481V47.8065H24.3377V45.7051H24.705L25.7715 47.1375H25.7914V45.7051H26.1997Z" fill="#1E1E1E"/>
<path d="M27.3323 47.8065V45.7051H28.806V46.0242H27.7428V46.5947H28.7296V46.9138H27.7428V47.4874H28.8148V47.8065H27.3323Z" fill="#1E1E1E"/>
<path d="M29.9101 47.8065V45.7051H30.7598C30.9339 45.7051 31.0799 45.7332 31.1979 45.7892C31.3167 45.8453 31.4063 45.924 31.4668 46.0252C31.528 46.1258 31.5586 46.2431 31.5586 46.3772C31.5586 46.5119 31.5276 46.6289 31.4657 46.7281C31.4045 46.8266 31.3141 46.9029 31.1946 46.9569C31.0751 47.0103 30.9284 47.0369 30.7543 47.0369H30.1491V46.7209H30.699C30.8008 46.7209 30.8841 46.7079 30.949 46.6819C31.0139 46.6552 31.0619 46.6166 31.0928 46.566C31.1246 46.5147 31.1404 46.4517 31.1404 46.3772C31.1404 46.3026 31.1246 46.239 31.0928 46.1863C31.0611 46.133 31.0128 46.0926 30.9479 46.0653C30.883 46.0372 30.7993 46.0232 30.6968 46.0232H30.3206V47.8065H29.9101ZM31.0807 46.8543L31.6416 47.8065H31.1836L30.6326 46.8543H31.0807Z" fill="#1E1E1E"/>
<path d="M34.08 47.8065V45.7051H34.4905V47.4874H35.4884V47.8065H34.08Z" fill="#1E1E1E"/>
<path d="M36.9405 45.7051V47.8065H36.5301V45.7051H36.9405Z" fill="#1E1E1E"/>
<path d="M38.0704 47.8065V45.7051H39.522V46.0242H38.4809V46.5947H39.4224V46.9138H38.4809V47.8065H38.0704Z" fill="#1E1E1E"/>
<path d="M40.4818 46.0242V45.7051H42.2895V46.0242H41.5892V47.8065H41.1821V46.0242H40.4818Z" fill="#1E1E1E"/>
</svg>
