<svg width="279" height="356" viewBox="0 0 279 356" fill="none" xmlns="http://www.w3.org/2000/svg">
<path d="M261.448 4.80168L135.968 63.7923L146.483 84.0661L269.473 20.2738L261.448 4.80168Z" fill="#EB4C37"/>
<path d="M257.197 11.1011L250.642 14.5012L251.068 15.3235L253.786 13.9137L257.188 20.471L258.307 19.8905L254.906 13.3332L257.624 11.9234L257.197 11.1011Z" fill="#FFFCE5"/>
<path d="M250.168 17.4763L247.77 18.7203L248.13 19.4161L247.971 19.499C247.652 19.2984 247.303 19.2119 246.923 19.2397C246.539 19.2603 246.147 19.3744 245.748 19.5817C245.081 19.9272 244.633 20.3781 244.403 20.9345C244.173 21.4908 244.216 22.1062 244.533 22.7807L245.691 22.3405C245.439 21.8555 245.405 21.4316 245.589 21.0687C245.769 20.6988 246.072 20.4033 246.499 20.1821C246.774 20.0393 247.036 19.9571 247.284 19.9355C247.523 19.9184 247.747 19.9492 247.957 20.0276C248.167 20.1061 248.354 20.2276 248.518 20.3922C248.683 20.5567 248.823 20.7514 248.94 20.9764L250.088 23.1902L248.409 24.061L248.803 24.8201L253.04 22.6224L252.646 21.8634L251.127 22.6512L249.202 18.9403L250.562 18.2354L250.168 17.4763Z" fill="#FFFCE5"/>
<path d="M239.093 28.7327L239.253 28.6498C239.648 28.8906 240.081 28.9963 240.55 28.9669C241.011 28.9421 241.45 28.8214 241.867 28.6049C242.302 28.3791 242.677 28.1133 242.992 27.8073C243.303 27.4943 243.542 27.1517 243.71 26.7793C243.865 26.4046 243.937 26.0106 243.925 25.5973C243.914 25.184 243.795 24.7595 243.569 24.3238L243.482 24.1551C243.259 23.7264 242.983 23.3883 242.651 23.1409C242.32 22.8935 241.959 22.7288 241.567 22.6467C241.162 22.5622 240.742 22.557 240.307 22.631C239.872 22.705 239.446 22.8503 239.028 23.0668C238.575 23.3018 238.209 23.5946 237.928 23.9451C237.636 24.2932 237.468 24.6878 237.426 25.1287L237.266 25.2116L236.84 24.3893L235.801 24.9283L237.955 29.082C238.064 29.2929 237.999 29.4605 237.759 29.5849L237.426 29.7576L237.82 30.5167L238.526 30.1504C238.828 29.9938 239.037 29.7875 239.152 29.5315C239.258 29.2801 239.25 29.0349 239.126 28.796L239.093 28.7327ZM241.356 27.88C241.045 28.0413 240.737 28.143 240.432 28.1853C240.118 28.2321 239.824 28.2196 239.55 28.1476C239.276 28.0757 239.026 27.9514 238.799 27.7748C238.568 27.5911 238.378 27.3552 238.229 27.067L238.163 26.9405C238.017 26.6594 237.938 26.3752 237.924 26.088C237.907 25.7938 237.952 25.5116 238.06 25.2416C238.159 24.9762 238.318 24.7286 238.537 24.4991C238.744 24.2671 238.998 24.0727 239.3 23.9161C239.611 23.7548 239.919 23.6531 240.224 23.6108C240.529 23.5686 240.823 23.5811 241.105 23.6485C241.376 23.7134 241.626 23.8376 241.857 24.0213C242.084 24.198 242.27 24.4268 242.416 24.708L242.503 24.8767C242.813 25.4741 242.86 26.0428 242.644 26.5829C242.416 27.1205 241.986 27.5529 241.356 27.88Z" fill="#FFFCE5"/>
<path d="M233.545 26.0984L231.506 27.1557L230.817 25.8274C230.693 25.5884 230.498 25.44 230.231 25.3821C229.956 25.3289 229.667 25.3806 229.365 25.5372L226.753 26.8917L227.147 27.6508L229.386 26.4898C229.625 26.3654 229.8 26.4086 229.909 26.6194L230.467 27.6948L227.709 29.1253L228.103 29.8844L230.861 28.4538L233.179 32.9238L234.219 32.3847L231.9 27.9148L233.939 26.8574L233.545 26.0984Z" fill="#FFFCE5"/>
<path d="M220.554 30.8567C220.448 30.6529 220.27 30.5268 220.019 30.4783C219.756 30.4275 219.496 30.4689 219.238 30.6025C218.98 30.7361 218.801 30.9228 218.7 31.1625C218.586 31.3998 218.582 31.6204 218.688 31.8242C218.794 32.028 218.978 32.1554 219.241 32.2062C219.492 32.2546 219.746 32.212 220.004 32.0784C220.261 31.9448 220.447 31.7593 220.56 31.522C220.662 31.2823 220.659 31.0605 220.554 30.8567ZM223.649 37.8671L221.33 33.3972L223.635 32.2016L225.954 36.6715L226.993 36.1325L224.674 31.6625L226.233 30.854L225.84 30.0949L224.281 30.9035L223.701 29.786C223.577 29.547 223.382 29.3986 223.115 29.3408C222.839 29.2875 222.551 29.3392 222.249 29.4958L220.836 30.2284L221.23 30.9874L222.269 30.4484C222.509 30.324 222.684 30.3672 222.793 30.5781L223.241 31.4425L219.897 33.1772L222.609 38.4062L223.649 37.8671Z" fill="#FFFCE5"/>
<path d="M212.729 41.1762C212.95 41.4275 213.213 41.63 213.518 41.7839C213.814 41.9423 214.143 42.0438 214.504 42.0883C214.862 42.1258 215.244 42.1016 215.65 42.0157C216.057 41.9298 216.477 41.774 216.913 41.5483C217.375 41.3087 217.783 41.0209 218.139 40.6849C218.485 40.3535 218.756 39.9947 218.95 39.6085C219.141 39.2153 219.244 38.8052 219.259 38.3781C219.265 37.9556 219.157 37.53 218.935 37.1013L218.869 36.9748C218.65 36.5531 218.365 36.2197 218.012 35.9745C217.65 35.7339 217.254 35.5782 216.823 35.5075C216.392 35.4369 215.939 35.4442 215.465 35.5297C214.982 35.6197 214.509 35.7845 214.047 36.0241C213.63 36.2406 213.269 36.4902 212.965 36.7729C212.66 37.0556 212.422 37.3574 212.251 37.6784C212.067 37.9969 211.954 38.3229 211.913 38.6564C211.863 38.9946 211.881 39.3238 211.969 39.6442L213.106 39.295C213.038 39.0984 213.014 38.8881 213.033 38.6642C213.039 38.4378 213.099 38.2153 213.211 37.9966C213.31 37.7756 213.464 37.5619 213.673 37.3555C213.881 37.1492 214.15 36.9608 214.479 36.7904C214.798 36.6245 215.126 36.5171 215.461 36.468C215.784 36.4166 216.097 36.4234 216.402 36.4885C216.702 36.5467 216.977 36.6629 217.225 36.8374C217.465 37.0165 217.657 37.2466 217.803 37.5277L217.869 37.6542C218.022 37.9494 218.103 38.2464 218.111 38.5453C218.107 38.8417 218.04 39.126 217.911 39.3982C217.782 39.6705 217.599 39.926 217.362 40.1648C217.121 40.3965 216.837 40.5977 216.508 40.7681C216.179 40.9386 215.875 41.0474 215.595 41.0945C215.303 41.1391 215.039 41.142 214.805 41.103C214.558 41.0616 214.342 40.9819 214.157 40.8639C213.963 40.7505 213.8 40.6117 213.67 40.4474L212.729 41.1762Z" fill="#FFFCE5"/>
<path d="M201.218 42.8656L198.82 44.1095L199.181 44.8053L199.021 44.8882C198.703 44.6876 198.354 44.6012 197.973 44.6289C197.59 44.6496 197.198 44.7636 196.798 44.9709C196.132 45.3164 195.684 45.7674 195.454 46.3237C195.224 46.88 195.267 47.4954 195.583 48.1699L196.741 47.7297C196.49 47.2447 196.456 46.8208 196.64 46.4579C196.82 46.088 197.123 45.7925 197.549 45.5713C197.825 45.4285 198.086 45.3463 198.334 45.3247C198.574 45.3076 198.798 45.3384 199.008 45.4169C199.218 45.4954 199.405 45.6169 199.569 45.7814C199.733 45.9459 199.874 46.1407 199.99 46.3656L201.138 48.5795L199.46 49.4502L199.853 50.2093L204.09 48.0116L203.697 47.2526L202.178 48.0404L200.253 44.3295L201.612 43.6246L201.218 42.8656Z" fill="#FFFCE5"/>
<path d="M187.97 49.737L186.931 50.2761L189.643 55.5051L190.683 54.966L190.19 54.0172L190.35 53.9343C190.738 54.1611 191.157 54.283 191.605 54.3001C192.054 54.3172 192.544 54.1876 193.077 53.9111C193.442 53.7222 193.754 53.498 194.013 53.2383C194.268 52.9903 194.457 52.7138 194.581 52.4089C194.696 52.1086 194.742 51.7856 194.721 51.4399C194.69 51.0989 194.579 50.7422 194.385 50.3697L192.767 47.2491L191.728 47.7882L193.292 50.8033C193.576 51.3515 193.642 51.8258 193.489 52.2263C193.336 52.6267 192.966 52.979 192.38 53.2831C191.749 53.6102 191.169 53.6972 190.638 53.5441C190.095 53.3886 189.676 53.0262 189.381 52.457L187.97 49.737Z" fill="#FFFCE5"/>
<path d="M186.847 55.9921L184.449 57.236L181.409 51.3745L183.727 50.172L183.333 49.413L179.976 51.1545L183.41 57.7751L181.011 59.019L181.405 59.7781L187.241 56.7511L186.847 55.9921Z" fill="#FFFCE5"/>
<path d="M177.098 59.0151C177.341 59.549 177.354 60.0732 177.136 60.5875C176.918 61.1019 176.467 61.5365 175.783 61.8912C175.472 62.0525 175.187 62.1649 174.927 62.2285C174.667 62.292 174.431 62.3161 174.22 62.3006C174.001 62.2898 173.809 62.2464 173.646 62.1706C173.47 62.0923 173.312 61.9955 173.174 61.8802L172.297 62.6025C172.735 62.9906 173.288 63.2081 173.954 63.2547C174.608 63.2989 175.362 63.0999 176.215 62.6576C176.685 62.4134 177.088 62.1244 177.422 61.7905C177.744 61.4543 177.984 61.093 178.145 60.7066C178.305 60.3202 178.379 59.9204 178.368 59.5071C178.357 59.0938 178.247 58.6869 178.039 58.2863L177.908 58.0333C177.718 57.6678 177.462 57.3684 177.138 57.1351C176.805 56.9063 176.434 56.7555 176.024 56.6827C175.61 56.6028 175.175 56.6009 174.719 56.6771C174.25 56.7509 173.785 56.9076 173.323 57.1472C172.781 57.4282 172.356 57.7509 172.049 58.1153C171.73 58.4772 171.506 58.8387 171.378 59.1996C171.24 59.5652 171.185 59.9149 171.212 60.2489C171.23 60.5875 171.299 60.8728 171.419 61.1047L171.769 61.7794L177.098 59.0151ZM173.727 57.9273C174.02 57.7753 174.316 57.6711 174.614 57.6148C174.899 57.5561 175.174 57.5428 175.438 57.575C175.694 57.6118 175.932 57.6893 176.151 57.8075C176.357 57.9233 176.533 58.0775 176.678 58.2699L172.414 60.4813C172.315 60.2472 172.281 60.0065 172.31 59.7593C172.331 59.5167 172.406 59.2814 172.536 59.0536C172.657 58.8303 172.824 58.619 173.036 58.4198C173.239 58.2251 173.47 58.0609 173.727 57.9273Z" fill="#FFFCE5"/>
<path d="M167.54 62.0464C167.671 62.2995 167.638 62.5618 167.441 62.8336C167.235 63.11 166.783 63.4558 166.085 63.8712C165.338 64.3212 164.828 64.7729 164.556 65.2262C164.272 65.6771 164.249 66.1344 164.49 66.5983L164.523 66.6616C164.654 66.9146 164.839 67.1084 165.078 67.2432C165.305 67.3754 165.57 67.452 165.874 67.4728C166.169 67.4981 166.499 67.4607 166.864 67.3606C167.224 67.272 167.595 67.1287 167.976 66.9306C168.492 66.6633 168.908 66.3803 169.227 66.0813C169.533 65.78 169.764 65.477 169.922 65.1723C170.067 64.8651 170.143 64.5669 170.151 64.2775C170.155 63.981 170.106 63.7122 170.003 63.4711L168.919 63.7927C169.082 64.2164 169.055 64.641 168.836 65.0667C168.613 65.4853 168.213 65.8444 167.636 66.1439C167.148 66.3973 166.718 66.5262 166.349 66.5306C165.967 66.5327 165.704 66.3966 165.562 66.1225C165.409 65.8273 165.446 65.5405 165.674 65.2619C165.901 64.9834 166.335 64.6561 166.974 64.28C167.716 63.8416 168.229 63.397 168.514 62.9461C168.798 62.4952 168.822 62.0413 168.585 61.5845L168.552 61.5212C168.425 61.2752 168.247 61.0954 168.019 60.9818C167.787 60.8611 167.528 60.7952 167.24 60.7838C166.943 60.7771 166.637 60.8158 166.32 60.9C166.003 60.9842 165.689 61.1069 165.378 61.2682C164.942 61.4939 164.586 61.7412 164.308 62.0101C164.027 62.2719 163.816 62.5377 163.674 62.8075C163.528 63.0703 163.449 63.33 163.435 63.5867C163.413 63.848 163.435 64.0863 163.502 64.3015L164.586 63.9798C164.455 63.6195 164.492 63.2661 164.696 62.9196C164.89 62.5778 165.227 62.2826 165.707 62.0338C165.894 61.937 166.085 61.8601 166.281 61.8031C166.464 61.7437 166.639 61.7111 166.805 61.7052C166.971 61.6994 167.119 61.7249 167.25 61.7818C167.378 61.8317 167.474 61.9199 167.54 62.0464Z" fill="#FFFCE5"/>
<path d="M277.509 266.559L145.808 223.202L139.518 245.158L272.709 283.315L277.509 266.559Z" fill="#EB4C37"/>
<path d="M270.093 268.216L262.994 266.182L262.739 267.073L265.682 267.916L263.648 275.017L264.86 275.364L266.894 268.263L269.838 269.106L270.093 268.216Z" fill="#FFFCE5"/>
<path d="M260.605 268.018L258.008 267.274L257.792 268.027L257.619 267.978C257.525 267.613 257.331 267.311 257.036 267.07C256.743 266.821 256.38 266.634 255.947 266.51C255.226 266.304 254.59 266.324 254.041 266.57C253.491 266.816 253.1 267.293 252.866 268L254.01 268.476C254.16 267.951 254.427 267.619 254.81 267.482C255.195 267.337 255.618 267.331 256.08 267.463C256.378 267.548 256.625 267.668 256.82 267.823C257.006 267.975 257.147 268.152 257.246 268.353C257.344 268.554 257.397 268.771 257.403 269.003C257.409 269.235 257.378 269.473 257.308 269.717L256.621 272.115L254.803 271.594L254.568 272.416L259.156 273.73L259.391 272.908L257.747 272.437L258.898 268.418L260.37 268.84L260.605 268.018Z" fill="#FFFCE5"/>
<path d="M244.824 268.587L244.997 268.636C245.119 269.083 245.361 269.457 245.722 269.758C246.074 270.056 246.476 270.27 246.928 270.4C247.399 270.535 247.854 270.6 248.293 270.593C248.734 270.58 249.143 270.495 249.521 270.34C249.891 270.174 250.214 269.937 250.49 269.629C250.765 269.321 250.971 268.931 251.106 268.459L251.158 268.276C251.291 267.812 251.322 267.376 251.252 266.969C251.181 266.562 251.032 266.194 250.803 265.865C250.567 265.525 250.266 265.233 249.899 264.988C249.532 264.743 249.122 264.555 248.67 264.426C248.18 264.285 247.712 264.246 247.268 264.308C246.816 264.36 246.423 264.531 246.09 264.823L245.917 264.773L246.172 263.883L245.046 263.561L243.758 268.059C243.692 268.287 243.53 268.364 243.27 268.29L242.909 268.186L242.674 269.008L243.438 269.227C243.765 269.321 244.059 269.315 244.318 269.208C244.568 269.098 244.73 268.914 244.804 268.655L244.824 268.587ZM247.054 269.522C246.718 269.426 246.424 269.288 246.173 269.109C245.913 268.927 245.708 268.716 245.558 268.476C245.409 268.235 245.312 267.973 245.269 267.689C245.227 267.397 245.251 267.095 245.341 266.783L245.38 266.646C245.467 266.341 245.605 266.08 245.792 265.862C245.982 265.636 246.208 265.462 246.472 265.34C246.727 265.216 247.012 265.145 247.329 265.129C247.639 265.102 247.957 265.136 248.284 265.229C248.621 265.326 248.914 265.463 249.165 265.642C249.416 265.821 249.621 266.032 249.78 266.276C249.932 266.508 250.028 266.771 250.07 267.063C250.113 267.347 250.091 267.641 250.004 267.946L249.952 268.128C249.766 268.775 249.41 269.221 248.882 269.465C248.346 269.699 247.737 269.718 247.054 269.522Z" fill="#FFFCE5"/>
<path d="M242.603 262.861L240.396 262.228L240.808 260.79C240.882 260.531 240.842 260.289 240.688 260.064C240.524 259.835 240.279 259.675 239.952 259.581L237.124 258.771L236.888 259.593L239.312 260.287C239.572 260.362 239.669 260.513 239.604 260.741L239.27 261.906L236.283 261.05L236.048 261.872L239.035 262.728L237.648 267.569L238.773 267.891L240.16 263.05L242.368 263.683L242.603 262.861Z" fill="#FFFCE5"/>
<path d="M229.895 257.391C229.958 257.171 229.915 256.957 229.767 256.749C229.61 256.532 229.393 256.383 229.114 256.303C228.835 256.223 228.576 256.235 228.338 256.34C228.092 256.435 227.938 256.592 227.875 256.813C227.812 257.033 227.858 257.253 228.014 257.47C228.163 257.678 228.377 257.821 228.656 257.901C228.935 257.981 229.197 257.974 229.443 257.88C229.681 257.775 229.832 257.612 229.895 257.391ZM227.327 264.612L228.714 259.771L231.21 260.486L229.823 265.327L230.948 265.649L232.335 260.808L234.023 261.292L234.259 260.47L232.571 259.986L232.917 258.776C232.992 258.517 232.952 258.275 232.798 258.05C232.634 257.822 232.389 257.661 232.062 257.567L230.532 257.129L230.297 257.951L231.422 258.274C231.682 258.348 231.779 258.5 231.713 258.728L231.445 259.664L227.824 258.626L226.201 264.289L227.327 264.612Z" fill="#FFFCE5"/>
<path d="M217.12 259.513C217.107 259.847 217.159 260.175 217.275 260.497C217.381 260.815 217.551 261.115 217.782 261.396C218.017 261.669 218.311 261.913 218.665 262.13C219.019 262.347 219.432 262.523 219.903 262.658C220.404 262.801 220.898 262.873 221.387 262.873C221.867 262.87 222.31 262.796 222.716 262.648C223.125 262.494 223.482 262.266 223.786 261.967C224.081 261.664 224.295 261.281 224.428 260.816L224.467 260.679C224.598 260.223 224.62 259.784 224.532 259.364C224.434 258.94 224.253 258.555 223.989 258.207C223.724 257.86 223.39 257.554 222.987 257.29C222.574 257.024 222.117 256.819 221.617 256.675C221.165 256.546 220.731 256.479 220.316 256.476C219.901 256.472 219.52 256.528 219.175 256.643C218.823 256.748 218.517 256.907 218.258 257.121C217.989 257.333 217.776 257.585 217.619 257.877L218.686 258.405C218.771 258.216 218.898 258.046 219.066 257.896C219.226 257.737 219.422 257.616 219.654 257.534C219.878 257.441 220.137 257.392 220.43 257.385C220.723 257.379 221.048 257.427 221.404 257.529C221.75 257.628 222.062 257.775 222.339 257.97C222.609 258.154 222.832 258.374 223.009 258.631C223.187 258.88 223.307 259.153 223.367 259.45C223.418 259.745 223.4 260.044 223.313 260.349L223.274 260.486C223.182 260.805 223.037 261.077 222.837 261.299C222.631 261.512 222.387 261.673 222.106 261.782C221.825 261.891 221.516 261.951 221.18 261.961C220.846 261.964 220.501 261.915 220.145 261.813C219.789 261.711 219.494 261.581 219.258 261.423C219.015 261.254 218.821 261.075 218.678 260.886C218.527 260.686 218.425 260.48 218.371 260.267C218.308 260.051 218.286 259.839 218.304 259.63L217.12 259.513Z" fill="#FFFCE5"/>
<path d="M207.595 252.831L204.998 252.087L204.782 252.841L204.609 252.791C204.516 252.427 204.321 252.124 204.026 251.883C203.733 251.634 203.37 251.448 202.937 251.324C202.216 251.117 201.58 251.137 201.031 251.383C200.482 251.629 200.09 252.106 199.856 252.813L201 253.289C201.151 252.764 201.417 252.433 201.8 252.295C202.185 252.15 202.609 252.144 203.07 252.276C203.369 252.362 203.615 252.482 203.81 252.636C203.996 252.788 204.138 252.965 204.236 253.166C204.335 253.367 204.387 253.584 204.393 253.817C204.4 254.049 204.368 254.287 204.298 254.531L203.611 256.928L201.793 256.407L201.558 257.229L206.146 258.544L206.382 257.722L204.737 257.25L205.888 253.232L207.36 253.653L207.595 252.831Z" fill="#FFFCE5"/>
<path d="M193.248 248.721L192.123 248.399L190.501 254.062L191.626 254.384L191.921 253.356L192.094 253.406C192.22 253.838 192.44 254.214 192.754 254.534C193.068 254.855 193.514 255.098 194.091 255.263C194.485 255.376 194.866 255.427 195.233 255.417C195.589 255.412 195.916 255.341 196.216 255.205C196.505 255.065 196.761 254.863 196.983 254.597C197.195 254.328 197.359 253.992 197.475 253.589L198.443 250.209L197.317 249.887L196.382 253.152C196.212 253.746 195.934 254.136 195.547 254.321C195.161 254.507 194.651 254.509 194.016 254.327C193.333 254.132 192.851 253.796 192.571 253.32C192.283 252.834 192.228 252.283 192.405 251.667L193.248 248.721Z" fill="#FFFCE5"/>
<path d="M188.135 252.494L185.537 251.75L187.356 245.402L189.867 246.122L190.102 245.3L186.466 244.258L184.412 251.428L181.815 250.684L181.579 251.506L187.899 253.316L188.135 252.494Z" fill="#FFFCE5"/>
<path d="M178.974 247.992C178.784 248.547 178.433 248.937 177.921 249.161C177.41 249.385 176.783 249.39 176.043 249.178C175.706 249.082 175.421 248.967 175.189 248.835C174.956 248.702 174.768 248.558 174.626 248.402C174.474 248.243 174.364 248.08 174.298 247.912C174.224 247.735 174.176 247.556 174.154 247.377L173.021 247.3C173.073 247.883 173.325 248.42 173.777 248.912C174.222 249.394 174.906 249.767 175.83 250.031C176.339 250.177 176.83 250.244 177.302 250.231C177.767 250.208 178.19 250.111 178.572 249.94C178.954 249.769 179.283 249.53 179.559 249.222C179.834 248.914 180.034 248.543 180.159 248.109L180.237 247.835C180.351 247.439 180.37 247.045 180.295 246.653C180.21 246.258 180.044 245.894 179.796 245.559C179.551 245.217 179.236 244.917 178.852 244.659C178.461 244.39 178.015 244.184 177.515 244.041C176.928 243.873 176.398 243.815 175.924 243.869C175.443 243.913 175.032 244.021 174.691 244.195C174.34 244.367 174.06 244.583 173.85 244.844C173.63 245.102 173.484 245.357 173.412 245.608L173.203 246.339L178.974 247.992ZM177.273 244.886C177.59 244.976 177.876 245.104 178.131 245.267C178.379 245.421 178.588 245.6 178.758 245.805C178.918 246.008 179.038 246.227 179.116 246.464C179.186 246.69 179.208 246.922 179.181 247.162L174.564 245.839C174.653 245.601 174.793 245.402 174.984 245.243C175.166 245.081 175.382 244.962 175.633 244.885C175.874 244.806 176.141 244.767 176.432 244.768C176.713 244.767 176.994 244.806 177.273 244.886Z" fill="#FFFCE5"/>
<path d="M169.947 243.627C169.868 243.901 169.664 244.069 169.334 244.131C168.994 244.19 168.428 244.131 167.636 243.953C166.784 243.767 166.103 243.745 165.594 243.887C165.077 244.019 164.747 244.336 164.603 244.839L164.584 244.907C164.505 245.181 164.506 245.449 164.587 245.711C164.661 245.963 164.801 246.201 165.008 246.425C165.204 246.646 165.47 246.845 165.804 247.023C166.126 247.206 166.494 247.357 166.908 247.476C167.466 247.635 167.963 247.716 168.4 247.718C168.829 247.709 169.206 247.648 169.53 247.535C169.846 247.411 170.106 247.247 170.311 247.042C170.518 246.829 170.666 246.6 170.758 246.355L169.749 245.843C169.576 246.263 169.264 246.553 168.813 246.712C168.364 246.863 167.826 246.849 167.201 246.67C166.672 246.518 166.272 246.317 166 246.067C165.721 245.805 165.624 245.526 165.709 245.23C165.801 244.91 166.025 244.727 166.381 244.681C166.738 244.635 167.278 244.695 168.001 244.861C168.841 245.052 169.519 245.082 170.036 244.95C170.553 244.818 170.882 244.504 171.024 244.01L171.043 243.941C171.12 243.675 171.114 243.422 171.026 243.183C170.941 242.936 170.798 242.709 170.596 242.503C170.385 242.295 170.136 242.112 169.848 241.955C169.56 241.799 169.247 241.672 168.91 241.576C168.439 241.441 168.01 241.376 167.624 241.38C167.239 241.377 166.903 241.425 166.615 241.523C166.328 241.614 166.092 241.748 165.906 241.926C165.71 242.1 165.563 242.289 165.463 242.491L166.472 243.002C166.625 242.651 166.894 242.419 167.28 242.307C167.656 242.192 168.104 242.21 168.624 242.358C168.826 242.416 169.018 242.492 169.199 242.585C169.373 242.668 169.522 242.764 169.647 242.874C169.772 242.984 169.862 243.104 169.918 243.236C169.976 243.359 169.986 243.49 169.947 243.627Z" fill="#FFFCE5"/>
<path d="M73.9102 34.2973L8.7722 66.8022L-6.04396 77.1847L1.67129 83.574L78.8625 44.6401L73.9102 34.2973Z" fill="#FFCC3E"/>
<path d="M68.8807 41.7501C68.792 41.5648 68.7518 41.3831 68.7603 41.2048C68.7633 41.0292 68.8053 40.8651 68.8863 40.7124C68.9672 40.5597 69.0777 40.4197 69.2178 40.2924C69.3578 40.1651 69.5177 40.0583 69.6975 39.9722C69.8556 39.8966 70.0159 39.8466 70.1785 39.8223C70.3384 39.7926 70.4939 39.7885 70.6449 39.81C70.7904 39.8342 70.9233 39.8878 71.0435 39.9709C71.161 40.0486 71.2551 40.161 71.3255 40.3081L71.349 40.3572C71.4247 40.5152 71.4572 40.6671 71.4466 40.8129C71.4334 40.9532 71.3837 41.0942 71.2975 41.236C71.2032 41.3749 71.0738 41.5173 70.9091 41.6631C70.7419 41.8035 70.5393 41.9541 70.3014 42.1149C69.7463 42.4946 69.3897 42.8831 69.2316 43.2804C69.0708 43.6722 69.0948 44.0861 69.3036 44.5221L69.3506 44.6202C69.468 44.8655 69.6199 45.0707 69.8062 45.2361C69.9845 45.3986 70.1934 45.513 70.4328 45.5792C70.6667 45.6481 70.9259 45.6647 71.2103 45.629C71.4947 45.5933 71.7976 45.4985 72.1192 45.3445C72.4843 45.1697 72.7838 44.9626 73.0176 44.7234C73.2433 44.4813 73.4072 44.222 73.5093 43.9453C73.6032 43.6659 73.6392 43.3773 73.6173 43.0796C73.5927 42.7765 73.5087 42.4751 73.3652 42.1754L73.2477 41.9301L72.5611 42.2589L72.655 42.4551C72.8951 42.9565 72.9389 43.3978 72.7864 43.7789C72.6285 44.1627 72.3043 44.472 71.8139 44.7069C71.3888 44.9104 71.0256 44.9704 70.7243 44.8869C70.415 44.8006 70.186 44.6021 70.0372 44.2914L70.0138 44.2424C69.8702 43.9426 69.8724 43.6602 70.0201 43.3952C70.1624 43.1328 70.4646 42.8474 70.9266 42.5391C71.1972 42.3626 71.4314 42.1802 71.6292 41.9917C71.8189 41.8003 71.9655 41.6028 72.069 41.3992C72.1699 41.1901 72.2209 40.9748 72.2219 40.7532C72.223 40.5316 72.1649 40.2982 72.0474 40.0529L72.0005 39.9548C71.8935 39.7314 71.7493 39.5492 71.5679 39.4083C71.3865 39.2673 71.1815 39.1679 70.9528 39.1099C70.7186 39.0546 70.4701 39.0463 70.2073 39.085C69.9364 39.1209 69.662 39.2054 69.384 39.3385C69.0625 39.4925 68.7986 39.6758 68.5922 39.8885C68.3805 40.1038 68.2252 40.3322 68.1265 40.5737C68.0252 40.8098 67.9818 41.055 67.9964 41.3093C68.0029 41.5608 68.0609 41.801 68.1705 42.0299L68.3349 42.3732L69.0216 42.0444L68.8807 41.7501Z" fill="black"/>
<path d="M65.692 47.4372L65.7901 47.3903C66.0513 47.6001 66.3305 47.7143 66.6274 47.7329C66.9189 47.7541 67.1928 47.7034 67.4489 47.5808C67.716 47.4529 67.9431 47.2906 68.1302 47.0938C68.3147 46.8915 68.4524 46.6614 68.5433 46.4035C68.6262 46.1428 68.6553 45.8609 68.6307 45.5578C68.6062 45.2547 68.513 44.9342 68.3512 44.5963L68.2886 44.4655C68.1294 44.133 67.9395 43.8622 67.7187 43.6531C67.498 43.4439 67.2614 43.2925 67.0089 43.199C66.7484 43.1027 66.4815 43.063 66.2083 43.08C65.935 43.0969 65.6703 43.1667 65.4142 43.2894C65.1363 43.4225 64.9156 43.6052 64.7522 43.8375C64.5807 44.067 64.4909 44.3411 64.4827 44.6599L64.3846 44.7069L64.0793 44.0692L63.4417 44.3745L64.9839 47.5954C65.0622 47.7589 65.0277 47.8759 64.8806 47.9463L64.6762 48.0442L64.9581 48.6328L65.3913 48.4253C65.5766 48.3366 65.7005 48.2036 65.763 48.0263C65.82 47.8516 65.8042 47.6716 65.7155 47.4863L65.692 47.4372ZM67.0939 47.0071C66.9031 47.0985 66.7118 47.1465 66.5198 47.1514C66.3224 47.1588 66.1351 47.1245 65.9581 47.0485C65.781 46.9725 65.6167 46.8603 65.4652 46.7117C65.3111 46.5578 65.1805 46.3691 65.0735 46.1456L65.0265 46.0475C64.9222 45.8295 64.8596 45.615 64.8389 45.4038C64.8156 45.1872 64.8325 44.9848 64.8898 44.7966C64.9416 44.611 65.0323 44.4436 65.1619 44.2945C65.2834 44.1425 65.4368 44.0222 65.6221 43.9334C65.8129 43.8421 66.0042 43.794 66.1962 43.7892C66.3881 43.7844 66.5754 43.8186 66.7579 43.892C66.9324 43.9626 67.0967 44.0748 67.2508 44.2288C67.4023 44.3774 67.5302 44.5606 67.6346 44.7786L67.6973 44.9094C67.9191 45.3726 67.9727 45.7925 67.8582 46.1689C67.7356 46.5424 67.4808 46.8219 67.0939 47.0071Z" fill="black"/>
<path d="M62.0576 45.0373L60.8069 45.6361L60.3137 44.6061C60.225 44.4208 60.0947 44.2956 59.9229 44.2305C59.7455 44.168 59.5642 44.1812 59.379 44.2699L57.7767 45.0371L58.0585 45.6257L59.4319 44.9681C59.579 44.8976 59.6917 44.9441 59.77 45.1076L60.1693 45.9414L58.4771 46.7517L58.7589 47.3403L60.4511 46.53L62.1108 49.9961L62.7484 49.6908L61.0887 46.2247L62.3395 45.6258L62.0576 45.0373Z" fill="black"/>
<path d="M57.6101 49.9002C57.7868 50.3113 57.8167 50.6956 57.6998 51.053C57.5829 51.4105 57.3146 51.6897 56.895 51.8906C56.7043 51.9819 56.5276 52.0397 56.365 52.064C56.2025 52.0882 56.0539 52.0857 55.9192 52.0564C55.7792 52.0296 55.6557 51.9816 55.5487 51.9122C55.4338 51.84 55.3298 51.7558 55.2368 51.6596L54.7102 52.1127C55.0047 52.434 55.3647 52.6401 55.7901 52.7312C56.2075 52.8194 56.6778 52.7382 57.201 52.4877C57.4899 52.3494 57.7334 52.1725 57.9317 51.957C58.1219 51.7386 58.2598 51.495 58.3455 51.2262C58.4312 50.9574 58.4617 50.6715 58.4372 50.3683C58.4126 50.0652 58.326 49.7584 58.1772 49.4477L58.0833 49.2515C57.9476 48.9681 57.772 48.7273 57.5565 48.529C57.3355 48.3334 57.0933 48.1914 56.83 48.1031C56.564 48.0094 56.2877 47.9709 56.0009 47.9876C55.7061 48.0015 55.417 48.0763 55.1336 48.212C54.8012 48.3712 54.545 48.5708 54.3653 48.811C54.1774 49.0483 54.0503 49.2934 53.9838 49.5463C53.9119 49.8019 53.8914 50.0529 53.9223 50.2993C53.9478 50.5484 54.0036 50.7629 54.0897 50.9427L54.3402 51.4659L57.6101 49.9002ZM55.4232 48.8169C55.6031 48.7308 55.7864 48.6799 55.9731 48.6641C56.1518 48.6456 56.3259 48.6594 56.4954 48.7055C56.6594 48.7542 56.8135 48.8312 56.9576 48.9364C57.0937 49.0387 57.2118 49.1664 57.3119 49.3194L54.696 50.572C54.6234 50.3924 54.5913 50.2135 54.5998 50.0352C54.6028 49.8596 54.6407 49.694 54.7136 49.5385C54.7811 49.3856 54.8781 49.2454 55.0046 49.1178C55.1257 48.9929 55.2652 48.8926 55.4232 48.8169Z" fill="black"/>
<path d="M45.5054 57.1834L45.6035 57.1365C45.7289 57.2305 45.8656 57.299 46.0135 57.3421C46.156 57.3878 46.3015 57.4119 46.4501 57.4144C46.5932 57.4196 46.7367 57.4045 46.8806 57.3691C47.027 57.3392 47.1602 57.2955 47.2801 57.2381C47.5526 57.1076 47.7838 56.9399 47.9738 56.7351C48.1638 56.5302 48.3069 56.2975 48.4033 56.037C48.4942 55.7791 48.5301 55.4973 48.511 55.1916C48.4838 54.883 48.3906 54.5625 48.2315 54.2301L48.1688 54.0993C48.0123 53.7723 47.8209 53.5055 47.5947 53.299C47.3659 53.087 47.1225 52.9355 46.8646 52.8446C46.6041 52.7483 46.3345 52.7099 46.0558 52.7295C45.7771 52.749 45.507 52.8214 45.2454 52.9467C44.9674 53.0798 44.7386 53.2664 44.5588 53.5066C44.371 53.7439 44.273 54.0219 44.2648 54.3407L44.1667 54.3877L43.0629 52.0824L42.4253 52.3877L45.1653 58.11L45.8029 57.8047L45.5054 57.1834ZM46.925 56.6645C46.7343 56.7558 46.5402 56.8052 46.3428 56.8126C46.1454 56.8201 45.9554 56.7871 45.7729 56.7137C45.5849 56.6429 45.4124 56.5346 45.2555 56.3886C45.0959 56.2373 44.9626 56.0499 44.8556 55.8264L44.8087 55.7283C44.7043 55.5103 44.6445 55.2945 44.6292 55.0807C44.6113 54.8615 44.6337 54.6565 44.6965 54.4656C44.7537 54.2774 44.8499 54.1075 44.9849 53.9557C45.1119 53.8011 45.268 53.6795 45.4533 53.5908C45.644 53.4994 45.8408 53.4487 46.0437 53.4387C46.2411 53.4313 46.4338 53.4629 46.6218 53.5337C46.8043 53.6071 46.974 53.7167 47.131 53.8627C47.2825 54.0112 47.4105 54.1945 47.5149 54.4125L47.5775 54.5432C47.6871 54.7721 47.7522 54.9922 47.773 55.2033C47.7882 55.4171 47.7672 55.6181 47.7099 55.8063C47.6446 55.9916 47.5472 56.1589 47.4176 56.308C47.2854 56.4517 47.1212 56.5705 46.925 56.6645Z" fill="black"/>
<path d="M42.224 54.5341L40.7525 55.2387L41.0109 55.7782L40.9128 55.8252C40.7022 55.6513 40.4768 55.5583 40.2365 55.5461C39.9936 55.5284 39.7495 55.5783 39.5042 55.6957C39.0955 55.8914 38.8297 56.1828 38.7069 56.5699C38.5841 56.957 38.6371 57.4106 38.8661 57.9307L39.5834 57.7078C39.4033 57.3318 39.3641 57.0189 39.4656 56.7693C39.5646 56.5143 39.7448 56.3241 40.0064 56.1989C40.1754 56.118 40.3382 56.0802 40.4948 56.0856C40.646 56.0936 40.7899 56.1352 40.9265 56.2105C41.063 56.2858 41.1869 56.3906 41.2981 56.525C41.4093 56.6593 41.5067 56.8137 41.5902 56.9881L42.4122 58.7047L41.3822 59.1979L41.664 59.7865L44.2636 58.5418L43.9817 57.9532L43.0498 58.3994L41.672 55.5219L42.5058 55.1227L42.224 54.5341Z" fill="black"/>
<path d="M35.1515 56.4333C35.0758 56.2753 34.9573 56.1679 34.7962 56.1111C34.6269 56.0514 34.4633 56.0594 34.3052 56.1351C34.1472 56.2108 34.0411 56.3319 33.9869 56.4986C33.9246 56.6624 33.9313 56.8233 34.007 56.9813C34.0827 57.1394 34.2051 57.2482 34.3744 57.3079C34.5356 57.3647 34.6952 57.3553 34.8532 57.2796C35.0113 57.2039 35.1214 57.0842 35.1837 56.9204C35.2379 56.7537 35.2271 56.5914 35.1515 56.4333ZM38.5512 60.5535L37.1288 61.2345L35.751 58.357L37.0263 57.7464L36.7444 57.1578L34.8315 58.0738L36.4912 61.5399L35.1669 62.174L35.4487 62.7625L38.833 61.142L38.5512 60.5535Z" fill="black"/>
<path d="M31.5142 64.6465L32.7731 64.0437L32.2458 59.3119L31.4938 59.672L32.0518 64.0273L31.9537 64.0743L28.9106 60.9089L28.1585 61.269L31.5142 64.6465Z" fill="black"/>
<path d="M25.1406 61.2268C25.0649 61.0687 24.9465 60.9613 24.7853 60.9045C24.6161 60.8449 24.4524 60.8529 24.2944 60.9286C24.1363 61.0042 24.0302 61.1254 23.976 61.292C23.9138 61.4558 23.9205 61.6167 23.9962 61.7748C24.0718 61.9328 24.1943 62.0417 24.3635 62.1013C24.5247 62.1581 24.6843 62.1487 24.8424 62.073C25.0004 61.9973 25.1106 61.8776 25.1728 61.7138C25.227 61.5472 25.2163 61.3848 25.1406 61.2268ZM28.5404 65.3469L27.118 66.028L25.7402 63.1505L27.0154 62.5399L26.7336 61.9513L24.8207 62.8672L26.4803 66.3333L25.156 66.9674L25.4379 67.556L28.8222 65.9355L28.5404 65.3469Z" fill="black"/>
<path d="M23.2773 68.5905L23.9149 68.2852L21.9734 64.2306L21.3358 64.5359L21.6646 65.2226L21.5665 65.2695C21.0601 64.8555 20.4962 64.7972 19.8749 65.0947C19.4062 65.3191 19.1034 65.645 18.9664 66.0724C18.8267 66.4943 18.8965 66.9968 19.1757 67.58L20.3344 69.9997L20.972 69.6944L19.876 67.4054C19.6725 66.9804 19.6152 66.6159 19.7041 66.312C19.7931 66.0081 20.0011 65.7779 20.3281 65.6213C20.715 65.4361 21.0841 65.4234 21.4354 65.5835C21.7787 65.7407 22.056 66.04 22.2674 66.4815L23.2773 68.5905Z" fill="black"/>
<path d="M15.5301 71.5363L15.6282 71.4894C15.8764 71.672 16.145 71.7712 16.4339 71.7869C16.7148 71.7998 16.9887 71.7423 17.2557 71.6145C17.5282 71.484 17.7622 71.315 17.9576 71.1076C18.1531 70.9001 18.3017 70.6648 18.4035 70.4017C18.4998 70.1412 18.5411 69.8568 18.5275 69.5484C18.5058 69.2373 18.4153 68.9155 18.2562 68.583L18.1935 68.4522C18.037 68.1252 17.8429 67.8598 17.6112 67.6558C17.377 67.4464 17.1282 67.2976 16.8648 67.2093C16.5988 67.1156 16.3238 67.0798 16.0396 67.1019C15.7555 67.1241 15.4826 67.1978 15.221 67.3231C14.9267 67.464 14.7019 67.652 14.5465 67.8872C14.3831 68.1196 14.2974 68.3884 14.2895 68.6936L14.1914 68.7406L13.8861 68.103L13.2485 68.4083L15.6675 73.4603C15.7562 73.6455 15.8892 73.7694 16.0665 73.8319C16.2384 73.897 16.417 73.8852 16.6023 73.7965L19.2427 72.5322L18.9609 71.9436L16.5493 73.0983C16.4022 73.1688 16.2895 73.1222 16.2112 72.9587L15.5301 71.5363ZM16.9497 71.0174C16.759 71.1087 16.5649 71.1581 16.3675 71.1655C16.1701 71.173 15.9801 71.14 15.7976 71.0666C15.6096 70.9958 15.4371 70.8875 15.2802 70.7416C15.1206 70.5902 14.9873 70.4028 14.8803 70.1793L14.8334 70.0812C14.729 69.8633 14.6692 69.6474 14.6539 69.4336C14.636 69.2144 14.6585 69.0094 14.7212 68.8186C14.7784 68.6304 14.8746 68.4604 15.0096 68.3086C15.1366 68.1541 15.2927 68.0324 15.478 67.9437C15.6687 67.8523 15.8655 67.8017 16.0684 67.7916C16.2658 67.7842 16.4585 67.8158 16.6465 67.8866C16.829 67.96 16.9987 68.0697 17.1557 68.2156C17.3072 68.3641 17.4352 68.5474 17.5395 68.7654L17.6022 68.8962C17.7118 69.1251 17.7769 69.3451 17.7976 69.5562C17.8129 69.77 17.7919 69.971 17.7346 70.1592C17.6693 70.3446 17.5719 70.5118 17.4423 70.6609C17.3101 70.8046 17.1459 70.9234 16.9497 71.0174Z" fill="black"/>
<path d="M138.818 335.647L-6.18343 243.617L-6.50907 265.878L126.002 355.841L138.818 335.647Z" fill="#5D50A2"/>
<path d="M128.267 336.668L127.319 336.066L123.745 341.697L119.614 339.075L119.166 339.781L124.245 343.004L128.267 336.668Z" fill="#FFFCE5"/>
<path d="M119.295 331.685C119.407 331.51 119.425 331.314 119.351 331.098C119.274 330.871 119.126 330.688 118.908 330.55C118.689 330.411 118.465 330.357 118.234 330.389C117.999 330.409 117.826 330.507 117.715 330.682C117.604 330.857 117.587 331.058 117.665 331.285C117.739 331.501 117.885 331.678 118.103 331.817C118.321 331.955 118.548 332.015 118.782 331.994C119.013 331.963 119.184 331.86 119.295 331.685ZM117.612 337.88L115.648 336.634L117.67 333.447L119.431 334.565L119.845 333.913L117.204 332.237L114.767 336.075L112.939 334.914L112.525 335.566L117.198 338.532L117.612 337.88Z" fill="#FFFCE5"/>
<path d="M106.196 329.314C106.099 329.6 106.059 329.896 106.075 330.203C106.084 330.504 106.152 330.806 106.278 331.106C106.408 331.4 106.597 331.685 106.844 331.96C107.091 332.236 107.4 332.491 107.768 332.725C108.16 332.973 108.565 333.158 108.983 333.28C109.395 333.397 109.793 333.443 110.179 333.417C110.569 333.385 110.933 333.277 111.271 333.094C111.601 332.906 111.884 332.627 112.117 332.259L112.186 332.151C112.416 331.789 112.548 331.415 112.581 331.03C112.607 330.64 112.551 330.262 112.414 329.895C112.277 329.529 112.07 329.182 111.793 328.853C111.508 328.52 111.17 328.229 110.779 327.981C110.425 327.757 110.071 327.591 109.716 327.485C109.362 327.378 109.022 327.332 108.696 327.345C108.367 327.348 108.064 327.41 107.787 327.53C107.503 327.646 107.256 327.811 107.046 328.025L107.823 328.746C107.945 328.604 108.097 328.489 108.28 328.401C108.458 328.303 108.657 328.247 108.877 328.234C109.092 328.21 109.327 328.232 109.579 328.299C109.832 328.367 110.098 328.489 110.376 328.665C110.647 328.837 110.876 329.042 111.063 329.279C111.247 329.506 111.381 329.752 111.466 330.017C111.555 330.277 111.586 330.542 111.562 330.815C111.529 331.082 111.436 331.336 111.283 331.578L111.214 331.686C111.053 331.94 110.859 332.138 110.631 332.281C110.399 332.413 110.149 332.492 109.88 332.516C109.611 332.54 109.332 332.515 109.041 332.44C108.754 332.36 108.472 332.231 108.193 332.055C107.915 331.878 107.695 331.692 107.534 331.497C107.369 331.291 107.25 331.088 107.176 330.888C107.098 330.678 107.064 330.474 107.073 330.277C107.075 330.075 107.11 329.886 107.18 329.71L106.196 329.314Z" fill="#FFFCE5"/>
<path d="M104.154 327.409C103.848 327.841 103.447 328.09 102.951 328.156C102.456 328.223 101.918 328.072 101.338 327.704C101.075 327.537 100.861 327.367 100.696 327.195C100.531 327.022 100.407 326.851 100.326 326.68C100.236 326.505 100.185 326.337 100.171 326.176C100.153 326.004 100.158 325.838 100.186 325.677L99.236 325.328C99.1297 325.845 99.2068 326.372 99.4672 326.91C99.7239 327.437 100.213 327.93 100.936 328.388C101.335 328.641 101.738 328.821 102.145 328.927C102.549 329.023 102.937 329.044 103.308 328.992C103.679 328.94 104.022 328.815 104.338 328.617C104.653 328.419 104.92 328.148 105.138 327.804L105.276 327.587C105.475 327.273 105.593 326.938 105.63 326.58C105.66 326.218 105.612 325.861 105.486 325.511C105.364 325.154 105.172 324.816 104.91 324.497C104.644 324.168 104.315 323.879 103.924 323.63C103.465 323.339 103.026 323.158 102.607 323.086C102.184 323.004 101.804 322.996 101.467 323.061C101.122 323.122 100.826 323.239 100.579 323.412C100.324 323.581 100.134 323.764 100.007 323.964L99.6394 324.543L104.154 327.409ZM103.499 324.3C103.747 324.458 103.959 324.639 104.135 324.844C104.308 325.038 104.44 325.245 104.533 325.465C104.618 325.68 104.664 325.899 104.67 326.123C104.672 326.336 104.63 326.542 104.546 326.743L100.934 324.45C101.071 324.266 101.242 324.13 101.447 324.04C101.645 323.945 101.861 323.896 102.095 323.892C102.322 323.884 102.56 323.916 102.809 323.99C103.051 324.058 103.281 324.162 103.499 324.3Z" fill="#FFFCE5"/>
<path d="M95.719 324.899L96.5994 325.458L99.4492 320.968L98.5687 320.409L98.0861 321.17L97.9507 321.084C97.9799 320.273 97.5656 319.595 96.7077 319.05C96.0606 318.64 95.4417 318.475 94.8511 318.558C94.2643 318.634 93.766 318.995 93.3561 319.641L91.6555 322.32L92.5359 322.879L94.1446 320.344C94.4434 319.874 94.7991 319.604 95.2119 319.536C95.6247 319.468 96.0568 319.577 96.5083 319.864C97.0426 320.203 97.3701 320.618 97.491 321.109C97.6081 321.59 97.5116 322.075 97.2013 322.564L95.719 324.899Z" fill="#FFFCE5"/>
<path d="M85.4618 316.154C85.3649 316.44 85.3247 316.736 85.3412 317.043C85.3501 317.345 85.4176 317.646 85.5438 317.946C85.6738 318.24 85.8625 318.525 86.1098 318.801C86.3572 319.076 86.6653 319.331 87.034 319.565C87.4253 319.813 87.8303 319.998 88.2491 320.12C88.6604 320.237 89.059 320.283 89.4449 320.257C89.8347 320.225 90.1986 320.117 90.5367 319.934C90.8672 319.746 91.1493 319.468 91.383 319.1L91.4519 318.991C91.6817 318.629 91.8133 318.255 91.8467 317.87C91.8725 317.48 91.8169 317.102 91.6799 316.736C91.543 316.369 91.3359 316.022 91.0587 315.694C90.7739 315.36 90.4359 315.07 90.0446 314.821C89.6909 314.597 89.3368 314.431 88.9821 314.325C88.6275 314.218 88.2875 314.172 87.9622 314.185C87.6332 314.188 87.3301 314.25 87.0531 314.37C86.7685 314.486 86.5214 314.651 86.3117 314.865L87.0887 315.587C87.2109 315.444 87.363 315.329 87.5453 315.242C87.7238 315.143 87.9228 315.088 88.1422 315.074C88.358 315.05 88.5923 315.072 88.8451 315.14C89.098 315.207 89.3636 315.329 89.642 315.506C89.9129 315.678 90.142 315.882 90.3291 316.12C90.5126 316.346 90.6468 316.592 90.7316 316.858C90.8203 317.117 90.8522 317.383 90.8273 317.655C90.7949 317.922 90.7021 318.176 90.5489 318.418L90.4799 318.526C90.3191 318.78 90.1246 318.978 89.8965 319.121C89.6648 319.254 89.4146 319.332 89.1459 319.356C88.8772 319.38 88.5975 319.355 88.3069 319.281C88.0202 319.2 87.7376 319.072 87.4591 318.895C87.1807 318.718 86.961 318.532 86.7999 318.337C86.6352 318.131 86.5158 317.928 86.4418 317.729C86.3641 317.518 86.3298 317.315 86.3389 317.117C86.3406 316.915 86.3761 316.726 86.4456 316.55L85.4618 316.154Z" fill="#FFFCE5"/>
<path d="M83.4201 314.249C83.1141 314.681 82.7132 314.93 82.2172 314.997C81.7213 315.063 81.1836 314.912 80.6042 314.544C80.3408 314.377 80.1266 314.207 79.9616 314.035C79.7966 313.862 79.6732 313.691 79.5913 313.52C79.502 313.345 79.4504 313.177 79.4366 313.016C79.419 312.844 79.4241 312.678 79.4519 312.518L78.5017 312.169C78.3955 312.685 78.4725 313.213 78.7329 313.75C78.9896 314.277 79.4792 314.77 80.2016 315.228C80.6004 315.482 81.0036 315.661 81.4112 315.768C81.815 315.863 82.2025 315.885 82.5735 315.832C82.9446 315.78 83.2878 315.655 83.6033 315.457C83.9188 315.26 84.1857 314.989 84.404 314.645L84.5419 314.427C84.7411 314.114 84.8591 313.778 84.896 313.42C84.9254 313.058 84.8772 312.702 84.7515 312.351C84.6295 311.994 84.4375 311.656 84.1753 311.338C83.9095 311.008 83.5809 310.719 83.1896 310.471C82.7306 310.179 82.2915 309.998 81.8723 309.927C81.4494 309.844 81.0694 309.836 80.7323 309.902C80.3877 309.962 80.0917 310.079 79.8445 310.252C79.5898 310.421 79.3992 310.605 79.2728 310.804L78.9051 311.383L83.4201 314.249ZM82.7645 311.141C83.0128 311.298 83.225 311.479 83.4011 311.684C83.5735 311.878 83.7061 312.085 83.7988 312.305C83.8841 312.52 83.9296 312.739 83.9354 312.963C83.9374 313.176 83.8961 313.383 83.8112 313.583L80.1992 311.29C80.3368 311.107 80.5081 310.97 80.7131 310.88C80.9105 310.785 81.1264 310.736 81.3609 310.732C81.5879 310.724 81.8259 310.757 82.0749 310.83C82.3164 310.898 82.5462 311.002 82.7645 311.141Z" fill="#FFFCE5"/>
<path d="M65.3728 304.572L65.5082 304.658C65.4973 305.075 65.6077 305.458 65.8394 305.808C66.0635 306.154 66.3524 306.439 66.7061 306.663C67.0748 306.897 67.4478 307.066 67.8251 307.17C68.2063 307.268 68.5786 307.297 68.942 307.257C69.3016 307.206 69.6392 307.081 69.9547 306.884C70.2702 306.686 70.5466 306.4 70.7841 306.026L70.876 305.881C71.1097 305.513 71.2488 305.144 71.2934 304.774C71.3379 304.405 71.3049 304.049 71.1942 303.708C71.0798 303.356 70.8971 303.029 70.6462 302.725C70.3952 302.422 70.0929 302.158 69.7393 301.934C69.3555 301.69 68.9653 301.54 68.5686 301.483C68.1683 301.415 67.7879 301.466 67.4272 301.635L67.2918 301.549L67.7399 300.843L66.8595 300.284L64.5958 303.851C64.4809 304.032 64.3218 304.058 64.1187 303.929L63.8365 303.75L63.4228 304.401L64.021 304.781C64.2769 304.944 64.5297 305.011 64.7795 304.983C65.0218 304.951 65.2081 304.832 65.3383 304.627L65.3728 304.572ZM67.0409 305.936C66.7775 305.769 66.5616 305.577 66.3932 305.36C66.2172 305.138 66.0962 304.905 66.0301 304.659C65.964 304.414 65.949 304.163 65.9851 303.907C66.025 303.645 66.1235 303.39 66.2806 303.142L66.3495 303.033C66.5027 302.792 66.6877 302.6 66.9044 302.459C67.1249 302.311 67.3639 302.217 67.6214 302.177C67.8714 302.133 68.1341 302.143 68.4097 302.208C68.6815 302.262 68.9454 302.37 69.2012 302.532C69.4646 302.699 69.6805 302.891 69.8489 303.108C70.0174 303.325 70.1384 303.559 70.212 303.809C70.2819 304.048 70.2969 304.299 70.257 304.561C70.2209 304.818 70.1262 305.066 69.973 305.308L69.8811 305.453C69.5555 305.966 69.1353 306.262 68.6203 306.341C68.1017 306.41 67.5752 306.275 67.0409 305.936Z" fill="#FFFCE5"/>
<path d="M60.2159 304.906L61.0964 305.465L65.0952 299.164L64.2148 298.605L63.7666 299.312L63.6312 299.226C63.6079 298.83 63.4672 298.453 63.2092 298.094C62.9549 297.73 62.6246 297.418 62.2183 297.161C61.8721 296.941 61.5122 296.784 61.1386 296.691C60.765 296.598 60.4002 296.574 60.0444 296.619C59.681 296.659 59.3416 296.778 59.0261 296.976C58.7031 297.169 58.4267 297.446 58.1969 297.808L58.082 297.989C57.8483 298.358 57.7092 298.726 57.6646 299.096C57.6201 299.466 57.6569 299.823 57.7751 300.169C57.8858 300.511 58.0666 300.833 58.3176 301.136C58.5723 301.433 58.8766 301.694 59.2302 301.918C59.4108 302.033 59.6067 302.132 59.8178 302.215C60.0251 302.304 60.2363 302.371 60.4515 302.414C60.6631 302.447 60.8709 302.46 61.0752 302.454C61.2833 302.442 61.4803 302.398 61.6662 302.321L61.8017 302.407L60.2159 304.906ZM59.836 301.363C59.5651 301.191 59.3398 300.997 59.16 300.782C58.984 300.56 58.8573 300.327 58.7799 300.083C58.6949 299.835 58.6704 299.582 58.7065 299.326C58.7351 299.064 58.8279 298.81 58.985 298.563L59.0999 298.381C59.2531 298.14 59.4399 297.954 59.6603 297.823C59.877 297.681 60.1159 297.596 60.3771 297.567C60.6346 297.527 60.9049 297.542 61.1879 297.611C61.4635 297.676 61.7329 297.792 61.9963 297.959C62.2597 298.127 62.4774 298.324 62.6496 298.552C62.8255 298.773 62.9541 299.012 63.0352 299.266C63.1088 299.516 63.1295 299.775 63.097 300.042C63.0685 300.303 62.9776 300.555 62.8244 300.796L62.7554 300.905C62.5984 301.152 62.4058 301.347 62.1778 301.491C61.9535 301.628 61.7127 301.716 61.4552 301.756C61.1902 301.791 60.9199 301.776 60.6444 301.711C60.3688 301.646 60.0994 301.53 59.836 301.363Z" fill="#FFFCE5"/>
<path d="M53.3045 300.519L54.1849 301.078L58.1838 294.778L57.3033 294.219L56.8552 294.925L56.7197 294.839C56.6965 294.443 56.5558 294.066 56.2977 293.708C56.0435 293.343 55.7132 293.032 55.3069 292.774C54.9607 292.554 54.6008 292.398 54.2272 292.305C53.8535 292.211 53.4888 292.187 53.1329 292.232C52.7696 292.273 52.4301 292.392 52.1147 292.589C51.7917 292.782 51.5153 293.06 51.2854 293.422L51.1705 293.603C50.9369 293.971 50.7978 294.34 50.7532 294.709C50.7086 295.079 50.7454 295.437 50.8637 295.783C50.9744 296.124 51.1552 296.446 51.4062 296.749C51.6609 297.046 51.9651 297.307 52.3188 297.532C52.4994 297.646 52.6953 297.745 52.9064 297.828C53.1137 297.918 53.3249 297.984 53.5401 298.028C53.7516 298.06 53.9595 298.074 54.1638 298.068C54.3719 298.056 54.5689 298.012 54.7548 297.935L54.8902 298.021L53.3045 300.519ZM52.9246 296.976C52.6537 296.805 52.4283 296.611 52.2485 296.395C52.0726 296.173 51.9459 295.941 51.8684 295.697C51.7835 295.448 51.759 295.195 51.7951 294.939C51.8237 294.678 51.9165 294.423 52.0735 294.176L52.1885 293.995C52.3417 293.753 52.5285 293.567 52.7489 293.436C52.9656 293.294 53.2045 293.209 53.4657 293.18C53.7231 293.14 53.9934 293.155 54.2765 293.225C54.552 293.29 54.8215 293.406 55.0849 293.573C55.3482 293.74 55.566 293.937 55.7381 294.165C55.9141 294.387 56.0426 294.625 56.1238 294.88C56.1974 295.13 56.218 295.388 56.1856 295.656C56.157 295.917 56.0661 296.168 55.9129 296.41L55.844 296.518C55.6869 296.766 55.4944 296.961 55.2663 297.104C55.0421 297.241 54.8013 297.329 54.5438 297.369C54.2788 297.404 54.0085 297.389 53.733 297.324C53.4574 297.26 53.188 297.144 52.9246 296.976Z" fill="#FFFCE5"/>
<path d="M48.6331 294.1L46.6013 292.811L49.7958 287.778L51.7598 289.024L52.1735 288.372L49.329 286.567L45.7209 292.252L43.6891 290.963L43.2755 291.614L48.2194 294.752L48.6331 294.1Z" fill="#FFFCE5"/>
<path d="M43.2698 283.433C43.3809 283.258 43.3994 283.062 43.3256 282.846C43.248 282.619 43.1001 282.436 42.8818 282.297C42.6636 282.159 42.439 282.105 42.2081 282.136C41.9734 282.157 41.8006 282.255 41.6895 282.43C41.5784 282.605 41.5617 282.806 41.6393 283.033C41.7132 283.249 41.8592 283.426 42.0775 283.565C42.2957 283.703 42.5221 283.762 42.7568 283.742C42.9877 283.711 43.1587 283.608 43.2698 283.433ZM41.5862 289.628L39.6222 288.381L41.6446 285.195L43.4054 286.312L43.8191 285.661L41.1778 283.984L38.7417 287.822L36.9132 286.662L36.4995 287.314L41.1725 290.28L41.5862 289.628Z" fill="#FFFCE5"/>
<path d="M30.1703 281.062C30.0735 281.347 30.0333 281.643 30.0497 281.95C30.0586 282.252 30.1262 282.553 30.2523 282.853C30.3823 283.148 30.571 283.432 30.8184 283.708C31.0658 283.984 31.3738 284.238 31.7426 284.472C32.1339 284.721 32.5389 284.906 32.9577 285.028C33.369 285.145 33.7676 285.19 34.1535 285.164C34.5433 285.132 34.9072 285.025 35.2453 284.841C35.5758 284.653 35.8579 284.375 36.0915 284.007L36.1605 283.898C36.3903 283.536 36.5219 283.163 36.5552 282.777C36.5811 282.387 36.5255 282.009 36.3885 281.643C36.2515 281.277 36.0444 280.929 35.7672 280.601C35.4825 280.268 35.1445 279.977 34.7532 279.729C34.3995 279.504 34.0454 279.339 33.6907 279.232C33.3361 279.126 32.9961 279.079 32.6708 279.093C32.3417 279.096 32.0387 279.157 31.7617 279.278C31.4771 279.394 31.23 279.558 31.0202 279.772L31.7973 280.494C31.9194 280.352 32.0716 280.237 32.2538 280.149C32.4324 280.051 32.6314 279.995 32.8508 279.982C33.0666 279.958 33.3009 279.98 33.5537 280.047C33.8065 280.114 34.0722 280.236 34.3506 280.413C34.6215 280.585 34.8505 280.79 35.0377 281.027C35.2212 281.253 35.3553 281.499 35.4402 281.765C35.5289 282.024 35.5608 282.29 35.5359 282.562C35.5035 282.83 35.4107 283.084 35.2575 283.325L35.1885 283.434C35.0276 283.687 34.8332 283.886 34.6051 284.029C34.3734 284.161 34.1231 284.239 33.8544 284.263C33.5857 284.288 33.3061 284.263 33.0155 284.188C32.7287 284.108 32.4461 283.979 32.1677 283.802C31.8893 283.626 31.6696 283.44 31.5085 283.244C31.3438 283.038 31.2244 282.835 31.1504 282.636C31.0726 282.426 31.0384 282.222 31.0475 282.025C31.0491 281.823 31.0847 281.634 31.1542 281.458L30.1703 281.062Z" fill="#FFFCE5"/>
<path d="M23.9042 278.253L24.0397 278.339C24.0288 278.755 24.1391 279.139 24.3708 279.489C24.5949 279.834 24.8838 280.119 25.2375 280.344C25.6062 280.578 25.9792 280.747 26.3566 280.851C26.7377 280.949 27.11 280.978 27.4734 280.937C27.8331 280.886 28.1706 280.762 28.4861 280.564C28.8016 280.366 29.0781 280.081 29.3155 279.706L29.4075 279.562C29.6411 279.193 29.7802 278.825 29.8248 278.455C29.8694 278.085 29.8363 277.73 29.7256 277.389C29.6112 277.037 29.4285 276.709 29.1776 276.406C28.9267 276.103 28.6244 275.839 28.2707 275.615C27.8869 275.371 27.4967 275.221 27.1001 275.164C26.6998 275.096 26.3193 275.146 25.9587 275.315L25.8232 275.229L26.2714 274.523L25.3909 273.965L23.1272 277.531C23.0123 277.712 22.8533 277.738 22.6501 277.609L22.3679 277.43L21.9542 278.082L22.5525 278.462C22.8083 278.624 23.0611 278.691 23.311 278.664C23.5533 278.631 23.7395 278.512 23.8698 278.307L23.9042 278.253ZM25.5723 279.616C25.309 279.449 25.0931 279.257 24.9246 279.04C24.7487 278.819 24.6276 278.585 24.5615 278.34C24.4955 278.095 24.4804 277.844 24.5166 277.588C24.5565 277.325 24.655 277.07 24.812 276.823L24.881 276.714C25.0342 276.473 25.2191 276.281 25.4358 276.139C25.6564 275.991 25.8954 275.897 26.1528 275.858C26.4028 275.813 26.6655 275.823 26.9411 275.888C27.2129 275.942 27.4768 276.05 27.7326 276.213C27.996 276.38 28.2119 276.572 28.3804 276.789C28.5488 277.006 28.6698 277.239 28.7434 277.489C28.8134 277.728 28.8284 277.979 28.7884 278.242C28.7523 278.498 28.6577 278.747 28.5045 278.988L28.4125 279.133C28.087 279.646 27.6667 279.943 27.1517 280.022C26.6331 280.091 26.1066 279.956 25.5723 279.616Z" fill="#FFFCE5"/>
<path d="M23.6153 272.838L21.8545 271.72L23.0266 269.873L22.1461 269.315L20.9741 271.161L18.8068 269.786L18.3932 270.438L20.5604 271.813L18.7103 274.728C18.5954 274.909 18.4364 274.935 18.2332 274.806L16.6417 273.796L16.228 274.448L18.1356 275.658C18.3914 275.821 18.6443 275.888 18.8941 275.86C19.1364 275.828 19.3226 275.709 19.4529 275.504L21.4408 272.372L23.2017 273.489L23.6153 272.838Z" fill="#FFFCE5"/>
<path d="M15.6241 265.886C15.7351 265.711 15.7537 265.516 15.6798 265.299C15.6022 265.072 15.4543 264.89 15.2361 264.751C15.0179 264.613 14.7933 264.559 14.5624 264.59C14.3277 264.611 14.1549 264.708 14.0438 264.883C13.9327 265.058 13.916 265.259 13.9936 265.486C14.0675 265.703 14.2135 265.88 14.4318 266.018C14.65 266.157 14.8764 266.216 15.111 266.196C15.342 266.164 15.513 266.061 15.6241 265.886ZM13.9405 272.082L11.9765 270.835L13.9989 267.649L15.7597 268.766L16.1734 268.114L13.5321 266.438L11.096 270.276L9.26744 269.116L8.85377 269.767L13.5268 272.733L13.9405 272.082Z" fill="#FFFCE5"/>
<path d="M2.85866 262.889C2.62119 263.263 2.48953 263.645 2.4637 264.035C2.43417 264.415 2.48414 264.785 2.61359 265.147C2.74687 265.502 2.95404 265.841 3.23507 266.163C3.50858 266.481 3.82971 266.757 4.19843 266.991C4.57468 267.229 4.96468 267.405 5.36842 267.517C5.77217 267.63 6.16324 267.67 6.54167 267.64C6.92391 267.603 7.28406 267.493 7.62211 267.309C7.95646 267.115 8.24239 266.831 8.47987 266.457L8.54882 266.348C8.78247 265.98 8.91404 265.607 8.94357 265.227C8.9694 264.837 8.91758 264.462 8.78814 264.1C8.65116 263.734 8.44593 263.392 8.17241 263.074C7.8989 262.757 7.57778 262.481 7.20905 262.247C6.84033 262.013 6.45409 261.84 6.05034 261.728C5.64661 261.615 5.2536 261.577 4.87135 261.614C4.48158 261.646 4.11951 261.759 3.78515 261.953C3.44711 262.137 3.16126 262.412 2.92761 262.781L2.85866 262.889ZM4.6236 266.321C4.35269 266.149 4.12735 265.955 3.94757 265.739C3.76407 265.513 3.63177 265.272 3.55061 265.017C3.46947 264.763 3.44318 264.505 3.47176 264.244C3.50416 263.976 3.60079 263.716 3.76166 263.462L3.83061 263.354C3.98382 263.112 4.17254 262.923 4.39678 262.786C4.62483 262.643 4.87136 262.554 5.13636 262.519C5.40137 262.484 5.6754 262.501 5.95848 262.571C6.24537 262.634 6.52051 262.75 6.78389 262.917C7.04727 263.084 7.26878 263.284 7.44844 263.516C7.63192 263.743 7.76422 263.984 7.84538 264.238C7.92652 264.493 7.9509 264.754 7.91849 265.021C7.88992 265.282 7.79902 265.534 7.64581 265.775L7.57686 265.884C7.41599 266.137 7.22153 266.336 6.99347 266.479C6.76925 266.616 6.52463 266.702 6.25963 266.737C5.99462 266.772 5.72436 266.757 5.44881 266.692C5.16956 266.616 4.8945 266.493 4.6236 266.321Z" fill="#FFFCE5"/>
<path d="M-1.04102 263.487L-0.160579 264.046L2.68917 259.556L1.80873 258.997L1.32611 259.758L1.19067 259.672C1.21989 258.861 0.805559 258.183 -0.0522843 257.638C-0.699438 257.228 -1.31833 257.063 -1.90894 257.146C-2.49574 257.222 -2.99404 257.583 -3.40388 258.229L-5.10454 260.908L-4.22411 261.467L-2.61538 258.932C-2.31662 258.462 -1.96086 258.192 -1.5481 258.124C-1.13534 258.056 -0.703211 258.165 -0.251712 258.452C0.282574 258.791 0.610136 259.206 0.730974 259.697C0.848132 260.178 0.751564 260.663 0.441309 261.152L-1.04102 263.487Z" fill="#FFFCE5"/>
<path d="M161.199 150.727L5.38809 162.556L14.4293 198.994L41.6504 181.4L163.888 175.383L161.199 150.727Z" fill="#467966"/>
<path d="M154.276 157.713L151.665 157.919L150.706 166.946L150.511 166.961L148.401 158.178L145.79 158.384L146.397 167.772L147.67 167.671L147.094 158.766L147.29 158.751L149.4 167.534L151.88 167.338L152.839 158.312L153.034 158.296L153.61 167.201L154.883 167.1L154.276 157.713Z" fill="#FFFCE5"/>
<path d="M136.375 165.302C136.41 165.856 136.556 166.339 136.813 166.75C137.057 167.153 137.374 167.488 137.763 167.753C138.152 168.01 138.601 168.195 139.111 168.307C139.611 168.421 140.127 168.456 140.66 168.414C141.204 168.371 141.716 168.254 142.195 168.063C142.675 167.873 143.091 167.62 143.442 167.304C143.793 166.98 144.069 166.599 144.27 166.16C144.46 165.714 144.537 165.214 144.501 164.659L144.491 164.499C144.456 163.953 144.316 163.479 144.071 163.076C143.815 162.665 143.492 162.326 143.103 162.061C142.703 161.796 142.254 161.607 141.754 161.493C141.255 161.38 140.739 161.345 140.206 161.387C139.673 161.429 139.166 161.545 138.687 161.736C138.207 161.927 137.792 162.184 137.441 162.509C137.079 162.834 136.803 163.219 136.613 163.666C136.412 164.104 136.329 164.596 136.364 165.141L136.375 165.302ZM140.596 167.422C140.204 167.453 139.842 167.427 139.508 167.346C139.164 167.256 138.859 167.114 138.595 166.919C138.331 166.725 138.119 166.485 137.958 166.201C137.797 165.909 137.704 165.574 137.68 165.199L137.67 165.038C137.647 164.68 137.696 164.348 137.819 164.042C137.94 163.727 138.12 163.452 138.356 163.218C138.592 162.984 138.875 162.795 139.205 162.652C139.534 162.5 139.889 162.409 140.27 162.379C140.651 162.349 141.014 162.383 141.359 162.482C141.704 162.571 142.008 162.713 142.272 162.908C142.536 163.103 142.749 163.347 142.91 163.64C143.071 163.923 143.162 164.244 143.185 164.602L143.196 164.763C143.22 165.138 143.171 165.484 143.05 165.799C142.927 166.105 142.748 166.375 142.512 166.61C142.275 166.844 141.998 167.032 141.679 167.174C141.348 167.308 140.987 167.391 140.596 167.422Z" fill="#FFFCE5"/>
<path d="M134.077 162.06L131.531 162.261L131.355 159.526L130.082 159.626L130.259 162.362L127.125 162.61L127.188 163.575L130.321 163.328L130.6 167.646C130.617 167.914 130.479 168.06 130.185 168.083L127.884 168.265L127.947 169.231L130.705 169.013C131.075 168.983 131.373 168.861 131.599 168.645C131.815 168.431 131.913 168.171 131.894 167.867L131.594 163.227L134.14 163.026L134.077 162.06Z" fill="#FFFCE5"/>
<path d="M116.391 166.883C116.426 167.437 116.572 167.92 116.829 168.331C117.073 168.734 117.39 169.068 117.779 169.334C118.168 169.591 118.617 169.775 119.127 169.888C119.626 170.001 120.143 170.037 120.676 169.994C121.22 169.951 121.732 169.835 122.211 169.644C122.691 169.453 123.107 169.2 123.458 168.885C123.809 168.56 124.085 168.179 124.286 167.741C124.476 167.295 124.553 166.794 124.517 166.24L124.507 166.079C124.472 165.534 124.332 165.059 124.087 164.656C123.831 164.245 123.508 163.907 123.119 163.641C122.719 163.376 122.27 163.187 121.77 163.074C121.271 162.961 120.755 162.925 120.222 162.967C119.689 163.009 119.182 163.126 118.703 163.316C118.223 163.507 117.807 163.765 117.457 164.089C117.095 164.414 116.819 164.8 116.629 165.246C116.428 165.684 116.345 166.176 116.38 166.722L116.391 166.883ZM120.612 169.002C120.22 169.033 119.858 169.008 119.524 168.926C119.179 168.837 118.875 168.695 118.611 168.5C118.347 168.305 118.135 168.066 117.974 167.782C117.813 167.489 117.72 167.155 117.696 166.779L117.686 166.618C117.663 166.261 117.712 165.929 117.835 165.623C117.956 165.307 118.135 165.033 118.372 164.798C118.608 164.564 118.891 164.375 119.221 164.232C119.55 164.081 119.905 163.99 120.286 163.96C120.667 163.929 121.03 163.964 121.375 164.062C121.72 164.152 122.024 164.294 122.288 164.489C122.552 164.683 122.765 164.927 122.926 165.22C123.087 165.504 123.178 165.825 123.201 166.182L123.212 166.343C123.236 166.719 123.187 167.064 123.066 167.379C122.943 167.685 122.764 167.956 122.527 168.19C122.291 168.424 122.013 168.613 121.695 168.755C121.364 168.889 121.003 168.971 120.612 169.002Z" fill="#FFFCE5"/>
<path d="M114.273 163.626L111.335 163.859L111.392 164.744L111.197 164.759C110.966 164.409 110.655 164.164 110.263 164.024C109.871 163.876 109.43 163.821 108.941 163.859C108.125 163.924 107.481 164.195 107.008 164.673C106.536 165.15 106.311 165.811 106.333 166.654L107.681 166.709C107.641 166.092 107.792 165.635 108.134 165.338C108.475 165.033 108.907 164.859 109.429 164.818C109.766 164.791 110.063 164.822 110.321 164.909C110.567 164.998 110.778 165.129 110.953 165.304C111.128 165.479 111.262 165.689 111.354 165.933C111.447 166.177 111.502 166.442 111.521 166.729L111.703 169.545L109.646 169.707L109.709 170.673L114.898 170.263L114.836 169.297L112.975 169.444L112.67 164.724L114.335 164.592L114.273 163.626Z" fill="#FFFCE5"/>
<path d="M89.4473 172.275L91.9604 172.077L94.3538 165.202L92.8525 165.32L90.7706 171.685L90.5748 171.701L87.6958 165.728L86.1944 165.847L89.4473 172.275Z" fill="#FFFCE5"/>
<path d="M83.1451 169.754C83.1552 170.419 82.9393 170.97 82.4975 171.41C82.0557 171.849 81.416 172.102 80.5783 172.168C80.1975 172.198 79.8634 172.189 79.5759 172.139C79.2884 172.09 79.0427 172.011 78.8388 171.901C78.624 171.792 78.4516 171.662 78.3215 171.511C78.18 171.351 78.0651 171.181 77.9768 170.999L76.7866 171.363C77.0549 171.961 77.5118 172.433 78.1573 172.777C78.7914 173.114 79.6306 173.24 80.675 173.158C81.2516 173.112 81.7795 172.99 82.2587 172.79C82.7264 172.582 83.1245 172.313 83.453 171.981C83.7815 171.65 84.0301 171.266 84.1987 170.83C84.3674 170.395 84.4353 169.922 84.4023 169.412L84.3816 169.09C84.3515 168.626 84.2256 168.2 84.0038 167.813C83.7711 167.427 83.466 167.105 83.0885 166.847C82.7104 166.581 82.2768 166.386 81.7877 166.263C81.2872 166.132 80.7541 166.088 80.1884 166.133C79.5247 166.186 78.9602 166.334 78.4948 166.577C78.018 166.813 77.6368 167.09 77.3512 167.409C77.0548 167.729 76.8471 168.069 76.7282 168.429C76.5984 168.789 76.5431 169.117 76.5621 169.412L76.6176 170.271L83.1451 169.754ZM80.2525 167.126C80.6115 167.097 80.9519 167.12 81.2738 167.193C81.5842 167.258 81.8645 167.366 82.1148 167.517C82.3543 167.669 82.5577 167.855 82.725 168.076C82.8809 168.288 82.9892 168.527 83.0501 168.791L77.8281 169.204C77.8313 168.917 77.9016 168.65 78.0389 168.406C78.1653 168.162 78.343 167.951 78.5719 167.771C78.79 167.592 79.0485 167.445 79.3473 167.332C79.6353 167.219 79.937 167.15 80.2525 167.126Z" fill="#FFFCE5"/>
<path d="M73.0045 173.576L74.2773 173.475L73.6708 164.088L72.3979 164.188L72.6527 168.131L72.4568 168.146C72.1789 167.737 71.8088 167.425 71.3466 167.21C70.8735 166.996 70.3106 166.914 69.6578 166.966C68.7766 167.036 68.0796 167.333 67.5669 167.859C67.0426 168.377 66.8114 169.114 66.8732 170.071L67.1297 174.04L68.4026 173.94L68.16 170.185C68.1149 169.487 68.2715 168.949 68.6297 168.57C68.988 168.192 69.4935 167.976 70.1462 167.925C70.9186 167.864 71.542 168.035 72.0164 168.437C72.4793 168.832 72.7341 169.392 72.7809 170.116L73.0045 173.576Z" fill="#FFFCE5"/>
<path d="M61.2142 165.827C61.1974 165.568 61.0745 165.358 60.8454 165.196C60.6048 165.026 60.3267 164.954 60.0112 164.979C59.6957 165.004 59.4353 165.119 59.2298 165.324C59.0129 165.521 58.9128 165.749 58.9296 166.008C58.9463 166.267 59.075 166.482 59.3156 166.652C59.5447 166.813 59.817 166.882 60.1325 166.857C60.448 166.832 60.7142 166.721 60.9311 166.524C61.1366 166.319 61.2309 166.087 61.2142 165.827ZM64.0271 173.315L61.1876 173.54L60.8826 168.819L63.4283 168.618L63.366 167.652L59.5474 167.954L59.9148 173.64L57.2711 173.849L57.3335 174.815L64.0895 174.281L64.0271 173.315Z" fill="#FFFCE5"/>
<path d="M46.5689 173.294C46.6796 173.654 46.8539 173.981 47.0916 174.277C47.3186 174.574 47.6027 174.825 47.9441 175.032C48.2849 175.23 48.677 175.374 49.1202 175.465C49.5635 175.555 50.0516 175.58 50.5847 175.537C51.1504 175.493 51.6841 175.374 52.1855 175.182C52.6762 174.99 53.1026 174.736 53.4649 174.42C53.8266 174.095 54.1081 173.713 54.3094 173.275C54.4999 172.838 54.5775 172.346 54.5422 171.801L54.5318 171.64C54.4972 171.103 54.3572 170.629 54.1119 170.217C53.8557 169.806 53.5277 169.468 53.1278 169.203C52.728 168.938 52.2727 168.745 51.7618 168.624C51.2401 168.503 50.6964 168.465 50.1307 168.51C49.6194 168.551 49.1502 168.651 48.7231 168.81C48.296 168.97 47.9268 169.179 47.6154 169.437C47.2926 169.687 47.038 169.977 46.8515 170.306C46.6541 170.636 46.5292 170.988 46.4767 171.36L47.7652 171.501C47.7828 171.266 47.85 171.036 47.9667 170.811C48.0719 170.578 48.2281 170.373 48.4353 170.194C48.631 170.008 48.878 169.854 49.1763 169.731C49.4745 169.609 49.8249 169.532 50.2275 169.5C50.6191 169.469 50.993 169.502 51.3493 169.6C51.694 169.69 52.0042 169.836 52.2797 170.039C52.5547 170.233 52.7781 170.476 52.9501 170.767C53.1111 171.06 53.2032 171.385 53.2263 171.743L53.2367 171.904C53.261 172.279 53.2122 172.625 53.0904 172.94C52.9572 173.247 52.7667 173.514 52.5189 173.74C52.271 173.966 51.9768 174.151 51.6362 174.295C51.295 174.43 50.9231 174.513 50.5206 174.545C50.1181 174.577 49.7668 174.555 49.4667 174.48C49.1551 174.397 48.8908 174.283 48.6737 174.138C48.4451 173.986 48.2641 173.807 48.1306 173.602C47.9862 173.398 47.8847 173.181 47.8261 172.952L46.5689 173.294Z" fill="#FFFCE5"/>
<path d="M44.2388 174.88L41.3015 175.112L40.8197 167.656L43.6592 167.431L43.5968 166.466L39.4845 166.791L40.0286 175.213L37.0912 175.445L37.1536 176.411L44.3012 175.846L44.2388 174.88Z" fill="#FFFCE5"/>
<path d="M33.1849 173.705C33.1951 174.37 32.9792 174.921 32.5374 175.361C32.0956 175.8 31.4558 176.053 30.6181 176.119C30.2374 176.149 29.9033 176.14 29.6158 176.09C29.3283 176.041 29.0826 175.962 28.8787 175.852C28.6639 175.743 28.4915 175.613 28.3614 175.462C28.2199 175.302 28.105 175.132 28.0167 174.95L26.8264 175.314C27.0948 175.912 27.5517 176.384 28.1972 176.728C28.8313 177.065 29.6705 177.191 30.7149 177.109C31.2915 177.063 31.8194 176.941 32.2985 176.741C32.7662 176.533 33.1644 176.264 33.4928 175.932C33.8213 175.601 34.0699 175.217 34.2386 174.781C34.4073 174.346 34.4751 173.873 34.4422 173.363L34.4214 173.042C34.3914 172.577 34.2655 172.151 34.0436 171.764C33.8109 171.378 33.5058 171.056 33.1283 170.798C32.7503 170.532 32.3167 170.337 31.8276 170.214C31.3271 170.083 30.794 170.039 30.2282 170.084C29.5646 170.137 29.0001 170.285 28.5347 170.528C28.0578 170.764 27.6766 171.041 27.3911 171.36C27.0947 171.68 26.887 172.02 26.7681 172.38C26.6383 172.74 26.5829 173.068 26.602 173.363L26.6575 174.222L33.1849 173.705ZM30.2924 171.077C30.6514 171.048 30.9918 171.071 31.3136 171.144C31.624 171.209 31.9044 171.318 32.1547 171.468C32.3941 171.62 32.5975 171.806 32.7649 172.027C32.9207 172.239 33.0291 172.478 33.0899 172.742L27.8679 173.155C27.8712 172.868 27.9415 172.601 28.0788 172.357C28.2052 172.113 28.3829 171.902 28.6118 171.722C28.8299 171.543 29.0883 171.396 29.3872 171.283C29.6751 171.17 29.9769 171.102 30.2924 171.077Z" fill="#FFFCE5"/>
</svg>
