<svg width="16" height="16" viewBox="0 0 16 16" fill="none" xmlns="http://www.w3.org/2000/svg">
<path d="M12.0007 14C12.0007 12.5855 11.4387 11.2289 10.4386 10.2288C9.43836 9.22856 8.08181 8.66666 6.66732 8.66666C5.25283 8.66666 3.89628 9.22856 2.89608 10.2288C1.89589 11.2289 1.33398 12.5855 1.33398 14" stroke="#4C4C4C" stroke-linecap="round" stroke-linejoin="round"/>
<path d="M6.66732 8.66667C8.50827 8.66667 10.0007 7.17428 10.0007 5.33333C10.0007 3.49238 8.50827 2 6.66732 2C4.82637 2 3.33398 3.49238 3.33398 5.33333C3.33398 7.17428 4.82637 8.66667 6.66732 8.66667Z" stroke="#4C4C4C" stroke-linecap="round" stroke-linejoin="round"/>
<path d="M14.6659 13.3333C14.6659 11.0867 13.3326 9.00001 11.9992 8.00001C12.4375 7.67119 12.788 7.2394 13.0196 6.74285C13.2512 6.24631 13.3569 5.70032 13.3272 5.15321C13.2976 4.6061 13.1335 4.07473 12.8495 3.60614C12.5656 3.13755 12.1705 2.74618 11.6992 2.46667" stroke="#4C4C4C" stroke-linecap="round" stroke-linejoin="round"/>
</svg>
