<svg width="27" height="27" viewBox="0 0 27 27" fill="none" xmlns="http://www.w3.org/2000/svg">
<path d="M20.25 22.5C20.25 20.7098 19.5388 18.9929 18.273 17.727C17.0071 16.4612 15.2902 15.75 13.5 15.75C11.7098 15.75 9.9929 16.4612 8.72703 17.727C7.46116 18.9929 6.75 20.7098 6.75 22.5" stroke="#FFFCE5" stroke-linecap="round" stroke-linejoin="round"/>
<path d="M13.5 15.75C15.9853 15.75 18 13.7353 18 11.25C18 8.76472 15.9853 6.75 13.5 6.75C11.0147 6.75 9 8.76472 9 11.25C9 13.7353 11.0147 15.75 13.5 15.75Z" stroke="#FFFCE5" stroke-linecap="round" stroke-linejoin="round"/>
<path d="M13.5 24.75C19.7132 24.75 24.75 19.7132 24.75 13.5C24.75 7.2868 19.7132 2.25 13.5 2.25C7.2868 2.25 2.25 7.2868 2.25 13.5C2.25 19.7132 7.2868 24.75 13.5 24.75Z" stroke="#FFFCE5" stroke-linecap="round" stroke-linejoin="round"/>
</svg>
