<svg width="230" height="274" viewBox="0 0 230 274" fill="none" xmlns="http://www.w3.org/2000/svg">
<path d="M215.551 3.69054L119.108 49.0304L127.19 64.6127L221.719 15.5823L215.551 3.69054Z" fill="#EB4C37"/>
<path d="M212.284 8.53221L207.246 11.1455L207.574 11.7776L209.663 10.694L212.277 15.7339L213.137 15.2877L210.523 10.2478L212.612 9.16423L212.284 8.53221Z" fill="#FFFCE5"/>
<path d="M206.881 13.4322L205.038 14.3883L205.315 14.9231L205.193 14.9868C204.948 14.8326 204.68 14.7662 204.387 14.7875C204.092 14.8034 203.791 14.891 203.484 15.0504C202.972 15.3159 202.628 15.6625 202.451 16.0901C202.274 16.5177 202.307 16.9907 202.55 17.5091L203.44 17.1707C203.247 16.798 203.221 16.4722 203.362 16.1933C203.501 15.909 203.734 15.6818 204.061 15.5119C204.273 15.4021 204.474 15.3389 204.665 15.3223C204.849 15.3092 205.021 15.3328 205.182 15.3931C205.344 15.4534 205.487 15.5468 205.614 15.6733C205.74 15.7998 205.848 15.9494 205.937 16.1223L206.82 17.8239L205.53 18.4931L205.832 19.0765L209.089 17.3874L208.786 16.804L207.619 17.4096L206.139 14.5574L207.184 14.0156L206.881 13.4322Z" fill="#FFFCE5"/>
<path d="M198.369 22.0838L198.492 22.0201C198.796 22.2052 199.128 22.2864 199.489 22.2638C199.843 22.2447 200.181 22.1519 200.501 21.9855C200.836 21.812 201.124 21.6077 201.366 21.3725C201.605 21.132 201.789 20.8686 201.918 20.5824C202.037 20.2944 202.092 19.9915 202.084 19.6739C202.075 19.3563 201.984 19.03 201.81 18.6951L201.743 18.5655C201.572 18.236 201.359 17.9761 201.104 17.786C200.85 17.5958 200.572 17.4692 200.271 17.4061C199.96 17.3412 199.637 17.3371 199.303 17.394C198.968 17.4509 198.641 17.5626 198.32 17.729C197.972 17.9096 197.69 18.1346 197.474 18.4041C197.249 18.6716 197.121 18.9748 197.088 19.3137L196.965 19.3775L196.638 18.7454L195.839 19.1598L197.495 22.3522C197.579 22.5143 197.529 22.6431 197.344 22.7387L197.088 22.8715L197.391 23.4549L197.934 23.1734C198.166 23.053 198.326 22.8945 198.415 22.6977C198.496 22.5045 198.49 22.3161 198.394 22.1324L198.369 22.0838ZM200.109 21.4284C199.87 21.5523 199.633 21.6305 199.399 21.663C199.157 21.699 198.931 21.6894 198.721 21.6341C198.51 21.5788 198.318 21.4833 198.143 21.3475C197.966 21.2064 197.82 21.025 197.705 20.8036L197.655 20.7063C197.543 20.4902 197.481 20.2718 197.471 20.0511C197.457 19.8249 197.492 19.6081 197.575 19.4005C197.651 19.1965 197.774 19.0063 197.942 18.8298C198.101 18.6515 198.296 18.5021 198.528 18.3818C198.767 18.2578 199.004 18.1796 199.238 18.1471C199.473 18.1147 199.699 18.1243 199.916 18.1761C200.124 18.2259 200.316 18.3215 200.494 18.4626C200.668 18.5984 200.811 18.7743 200.923 18.9904L200.991 19.12C201.229 19.5792 201.265 20.0163 201.099 20.4314C200.923 20.8447 200.593 21.177 200.109 21.4284Z" fill="#FFFCE5"/>
<path d="M194.105 20.059L192.538 20.8717L192.009 19.8508C191.913 19.6671 191.763 19.553 191.558 19.5085C191.346 19.4676 191.124 19.5073 190.892 19.6277L188.885 20.6688L189.188 21.2522L190.908 20.3599C191.093 20.2643 191.227 20.2975 191.311 20.4595L191.74 21.286L189.62 22.3855L189.922 22.9689L192.042 21.8694L193.824 25.305L194.623 24.8907L192.841 21.4551L194.408 20.6424L194.105 20.059Z" fill="#FFFCE5"/>
<path d="M184.12 23.7163C184.039 23.5596 183.902 23.4627 183.709 23.4255C183.507 23.3864 183.307 23.4182 183.109 23.5209C182.911 23.6236 182.773 23.767 182.695 23.9513C182.608 24.1337 182.605 24.3032 182.686 24.4599C182.768 24.6165 182.909 24.7144 183.112 24.7535C183.304 24.7907 183.499 24.758 183.697 24.6553C183.895 24.5526 184.038 24.41 184.125 24.2276C184.203 24.0434 184.201 23.8729 184.12 23.7163ZM186.499 29.1044L184.717 25.6688L186.489 24.7499L188.271 28.1855L189.069 27.7712L187.287 24.3356L188.485 23.7142L188.183 23.1308L186.985 23.7522L186.539 22.8933C186.444 22.7097 186.294 22.5956 186.089 22.5511C185.877 22.5102 185.655 22.5499 185.423 22.6703L184.337 23.2333L184.64 23.8167L185.439 23.4024C185.623 23.3068 185.757 23.3401 185.841 23.5021L186.186 24.1665L183.616 25.4998L185.7 29.5187L186.499 29.1044Z" fill="#FFFCE5"/>
<path d="M178.106 31.6477C178.276 31.8409 178.478 31.9966 178.713 32.1148C178.94 32.2366 179.193 32.3146 179.471 32.3488C179.746 32.3776 180.039 32.359 180.351 32.293C180.664 32.227 180.987 32.1072 181.322 31.9337C181.677 31.7496 181.991 31.5284 182.264 31.2701C182.53 31.0154 182.738 30.7396 182.888 30.4429C183.034 30.1407 183.113 29.8254 183.125 29.4972C183.13 29.1725 183.047 28.8454 182.876 28.5158L182.825 28.4186C182.657 28.0945 182.438 27.8382 182.167 27.6497C181.889 27.4648 181.584 27.3452 181.253 27.2909C180.921 27.2365 180.573 27.2422 180.209 27.3079C179.838 27.3771 179.474 27.5037 179.119 27.6879C178.799 27.8543 178.521 28.0461 178.287 28.2634C178.053 28.4807 177.871 28.7127 177.739 28.9593C177.597 29.2042 177.51 29.4547 177.479 29.7111C177.44 29.971 177.455 30.2241 177.522 30.4703L178.396 30.2019C178.344 30.0508 178.325 29.8892 178.34 29.717C178.345 29.543 178.39 29.372 178.476 29.204C178.553 29.0341 178.671 28.8698 178.831 28.7112C178.992 28.5527 179.198 28.4079 179.451 28.2768C179.697 28.1494 179.948 28.0668 180.206 28.0291C180.454 27.9895 180.695 27.9948 180.929 28.0449C181.16 28.0895 181.371 28.1789 181.562 28.313C181.746 28.4506 181.894 28.6275 182.006 28.8435L182.057 28.9408C182.174 29.1677 182.236 29.3959 182.243 29.6256C182.24 29.8535 182.188 30.072 182.089 30.2812C181.99 30.4905 181.849 30.6868 181.667 30.8704C181.482 31.0485 181.263 31.2031 181.011 31.3341C180.758 31.4651 180.524 31.5487 180.309 31.5849C180.084 31.6193 179.882 31.6215 179.702 31.5915C179.512 31.5597 179.346 31.4984 179.203 31.4077C179.054 31.3206 178.93 31.2139 178.829 31.0876L178.106 31.6477Z" fill="#FFFCE5"/>
<path d="M169.259 32.9462L167.416 33.9023L167.693 34.4371L167.57 34.5008C167.326 34.3466 167.057 34.2802 166.765 34.3015C166.47 34.3174 166.169 34.405 165.862 34.5643C165.35 34.8299 165.005 35.1765 164.829 35.6041C164.652 36.0317 164.685 36.5047 164.928 37.0231L165.818 36.6847C165.625 36.312 165.599 35.9862 165.74 35.7073C165.878 35.423 166.111 35.1958 166.439 35.0258C166.651 34.9161 166.852 34.8529 167.043 34.8363C167.226 34.8232 167.399 34.8468 167.56 34.9071C167.721 34.9674 167.865 35.0608 167.991 35.1873C168.118 35.3138 168.226 35.4634 168.315 35.6363L169.198 37.3379L167.907 38.0071L168.21 38.5905L171.467 36.9014L171.164 36.318L169.997 36.9236L168.517 34.0714L169.562 33.5296L169.259 32.9462Z" fill="#FFFCE5"/>
<path d="M159.077 38.2276L158.278 38.6419L160.363 42.6609L161.161 42.2465L160.783 41.5173L160.906 41.4536C161.204 41.6279 161.526 41.7216 161.871 41.7347C162.215 41.7479 162.592 41.6482 163.002 41.4358C163.282 41.2906 163.522 41.1182 163.722 40.9186C163.917 40.728 164.063 40.5155 164.158 40.2811C164.246 40.0503 164.282 39.8021 164.265 39.5364C164.242 39.2743 164.156 39.0001 164.007 38.7138L162.763 36.3154L161.965 36.7297L163.167 39.0471C163.385 39.4684 163.436 39.833 163.318 40.1408C163.2 40.4486 162.916 40.7193 162.466 40.953C161.981 41.2044 161.535 41.2713 161.127 41.1537C160.71 41.0342 160.388 40.7556 160.161 40.3181L159.077 38.2276Z" fill="#FFFCE5"/>
<path d="M158.214 43.0352L156.37 43.9913L154.034 39.4861L155.815 38.5619L155.513 37.9785L152.932 39.317L155.571 44.4056L153.728 45.3617L154.031 45.9451L158.516 43.6186L158.214 43.0352Z" fill="#FFFCE5"/>
<path d="M150.721 45.3586C150.908 45.769 150.917 46.1719 150.75 46.5672C150.582 46.9626 150.236 47.2966 149.71 47.5692C149.471 47.6932 149.252 47.7796 149.052 47.8284C148.852 47.8773 148.671 47.8957 148.509 47.8839C148.34 47.8755 148.192 47.8422 148.067 47.7839C147.932 47.7238 147.811 47.6494 147.704 47.5607L147.03 48.1158C147.367 48.4142 147.792 48.5813 148.304 48.6172C148.807 48.6511 149.386 48.4981 150.041 48.1582C150.403 47.9705 150.713 47.7484 150.969 47.4918C151.217 47.2334 151.402 46.9557 151.525 46.6587C151.648 46.3617 151.705 46.0544 151.697 45.7368C151.688 45.4191 151.603 45.1064 151.444 44.7985L151.343 44.604C151.197 44.3231 151 44.093 150.751 43.9137C150.495 43.7378 150.21 43.6219 149.895 43.5659C149.577 43.5045 149.243 43.5031 148.892 43.5617C148.531 43.6184 148.174 43.7388 147.819 43.923C147.402 44.139 147.076 44.387 146.84 44.6671C146.595 44.9452 146.422 45.223 146.324 45.5005C146.218 45.7814 146.176 46.0502 146.196 46.3069C146.21 46.5672 146.263 46.7864 146.355 46.9647L146.624 47.4833L150.721 45.3586ZM148.13 44.5226C148.355 44.4057 148.582 44.3257 148.811 44.2824C149.03 44.2373 149.241 44.2271 149.445 44.2518C149.641 44.2801 149.824 44.3396 149.992 44.4305C150.151 44.5195 150.286 44.638 150.398 44.7859L147.121 46.4856C147.045 46.3056 147.018 46.1207 147.041 45.9306C147.057 45.7441 147.114 45.5633 147.214 45.3882C147.307 45.2166 147.435 45.0542 147.598 44.9011C147.755 44.7514 147.932 44.6253 148.13 44.5226Z" fill="#FFFCE5"/>
<path d="M143.374 47.6885C143.475 47.883 143.45 48.0846 143.298 48.2935C143.14 48.5059 142.792 48.7717 142.256 49.091C141.682 49.4369 141.29 49.784 141.081 50.1324C140.862 50.479 140.845 50.8305 141.03 51.187L141.055 51.2357C141.156 51.4301 141.298 51.5791 141.482 51.6827C141.656 51.7843 141.86 51.8432 142.093 51.8591C142.32 51.8786 142.574 51.8499 142.854 51.7729C143.131 51.7048 143.416 51.5947 143.71 51.4424C144.106 51.237 144.426 51.0195 144.671 50.7897C144.906 50.5581 145.084 50.3252 145.205 50.091C145.316 49.8549 145.375 49.6257 145.381 49.4032C145.384 49.1754 145.346 48.9688 145.268 48.7835L144.434 49.0307C144.56 49.3563 144.538 49.6827 144.37 50.0099C144.199 50.3316 143.892 50.6076 143.448 50.8378C143.073 51.0325 142.743 51.1316 142.459 51.135C142.165 51.1366 141.963 51.032 141.854 50.8213C141.736 50.5945 141.765 50.374 141.94 50.1599C142.115 49.9458 142.448 49.6942 142.939 49.4052C143.509 49.0682 143.904 48.7265 144.123 48.3799C144.341 48.0334 144.36 47.6846 144.178 47.3334L144.152 47.2848C144.054 47.0958 143.918 46.9576 143.742 46.8702C143.564 46.7775 143.365 46.7268 143.144 46.7181C142.916 46.7129 142.68 46.7427 142.436 46.8074C142.192 46.8721 141.951 46.9664 141.712 47.0903C141.378 47.2638 141.104 47.4539 140.89 47.6606C140.674 47.8618 140.512 48.0661 140.403 48.2735C140.291 48.4754 140.23 48.6751 140.219 48.8723C140.202 49.0732 140.219 49.2563 140.27 49.4217L141.104 49.1745C141.003 48.8975 141.031 48.6259 141.188 48.3596C141.338 48.0969 141.597 47.87 141.965 47.6788C142.109 47.6044 142.256 47.5453 142.406 47.5015C142.547 47.4558 142.681 47.4307 142.809 47.4262C142.937 47.4217 143.051 47.4414 143.152 47.4851C143.249 47.5235 143.324 47.5913 143.374 47.6885Z" fill="#FFFCE5"/>
<path d="M227.896 204.876L126.671 171.552L121.837 188.427L224.207 217.754L227.896 204.876Z" fill="#EB4C37"/>
<path d="M222.196 206.149L216.739 204.586L216.543 205.27L218.806 205.918L217.242 211.376L218.174 211.643L219.737 206.185L222 206.833L222.196 206.149Z" fill="#FFFCE5"/>
<path d="M214.904 205.997L212.907 205.425L212.741 206.004L212.608 205.966C212.537 205.686 212.387 205.453 212.16 205.268C211.935 205.077 211.656 204.934 211.323 204.838C210.769 204.679 210.281 204.695 209.858 204.884C209.436 205.073 209.135 205.439 208.955 205.983L209.835 206.349C209.95 205.945 210.155 205.69 210.449 205.585C210.745 205.473 211.071 205.469 211.426 205.57C211.655 205.636 211.844 205.728 211.994 205.847C212.137 205.964 212.246 206.1 212.322 206.254C212.397 206.409 212.438 206.575 212.443 206.754C212.447 206.933 212.423 207.116 212.369 207.303L211.841 209.146L210.444 208.745L210.263 209.377L213.79 210.387L213.971 209.756L212.706 209.393L213.591 206.305L214.723 206.629L214.904 205.997Z" fill="#FFFCE5"/>
<path d="M202.774 206.434L202.907 206.472C203.001 206.815 203.187 207.103 203.464 207.334C203.735 207.564 204.044 207.728 204.391 207.828C204.753 207.931 205.103 207.981 205.441 207.976C205.78 207.966 206.094 207.901 206.384 207.782C206.669 207.654 206.917 207.472 207.129 207.235C207.341 206.998 207.499 206.699 207.603 206.336L207.643 206.196C207.745 205.839 207.769 205.504 207.715 205.191C207.66 204.878 207.545 204.595 207.37 204.342C207.189 204.081 206.957 203.856 206.675 203.668C206.393 203.48 206.078 203.336 205.731 203.236C205.354 203.128 204.994 203.098 204.653 203.146C204.305 203.185 204.003 203.317 203.747 203.541L203.614 203.503L203.81 202.819L202.945 202.571L201.955 206.028C201.904 206.204 201.779 206.263 201.58 206.206L201.303 206.126L201.122 206.758L201.709 206.926C201.961 206.998 202.186 206.993 202.386 206.911C202.578 206.827 202.702 206.686 202.759 206.487L202.774 206.434ZM204.488 207.153C204.23 207.079 204.004 206.973 203.811 206.836C203.611 206.696 203.454 206.534 203.339 206.349C203.224 206.164 203.15 205.962 203.116 205.744C203.084 205.519 203.103 205.287 203.172 205.048L203.202 204.942C203.269 204.708 203.374 204.507 203.518 204.34C203.664 204.166 203.838 204.033 204.041 203.939C204.237 203.843 204.456 203.789 204.7 203.776C204.938 203.756 205.182 203.782 205.434 203.854C205.692 203.928 205.918 204.034 206.111 204.171C206.303 204.308 206.461 204.471 206.583 204.658C206.7 204.837 206.774 205.038 206.806 205.263C206.839 205.481 206.823 205.707 206.756 205.941L206.715 206.082C206.573 206.579 206.299 206.921 205.893 207.109C205.482 207.289 205.013 207.303 204.488 207.153Z" fill="#FFFCE5"/>
<path d="M201.067 202.033L199.371 201.547L199.687 200.441C199.744 200.242 199.714 200.056 199.595 199.883C199.47 199.708 199.281 199.584 199.03 199.512L196.856 198.889L196.675 199.521L198.538 200.055C198.738 200.112 198.812 200.229 198.762 200.404L198.506 201.299L196.21 200.641L196.029 201.273L198.325 201.931L197.259 205.651L198.124 205.899L199.19 202.179L200.886 202.665L201.067 202.033Z" fill="#FFFCE5"/>
<path d="M191.3 197.829C191.348 197.66 191.316 197.495 191.201 197.336C191.081 197.169 190.914 197.054 190.7 196.993C190.485 196.931 190.286 196.941 190.103 197.021C189.915 197.094 189.796 197.215 189.747 197.385C189.699 197.554 189.734 197.723 189.854 197.89C189.969 198.049 190.133 198.16 190.348 198.221C190.562 198.283 190.764 198.277 190.952 198.205C191.135 198.124 191.251 197.999 191.3 197.829ZM189.326 203.379L190.392 199.658L192.31 200.208L191.245 203.928L192.11 204.176L193.176 200.456L194.473 200.827L194.654 200.196L193.357 199.824L193.623 198.894C193.68 198.695 193.649 198.509 193.531 198.336C193.405 198.16 193.217 198.037 192.965 197.965L191.79 197.628L191.609 198.26L192.474 198.508C192.673 198.565 192.748 198.681 192.698 198.857L192.491 199.576L189.708 198.779L188.461 203.131L189.326 203.379Z" fill="#FFFCE5"/>
<path d="M181.481 199.46C181.471 199.717 181.511 199.969 181.6 200.216C181.682 200.461 181.812 200.691 181.99 200.907C182.17 201.117 182.396 201.305 182.669 201.472C182.941 201.638 183.258 201.773 183.62 201.877C184.005 201.987 184.385 202.042 184.761 202.043C185.13 202.041 185.47 201.983 185.783 201.87C186.097 201.751 186.371 201.576 186.605 201.346C186.831 201.113 186.996 200.819 187.098 200.462L187.128 200.356C187.229 200.005 187.245 199.668 187.178 199.345C187.103 199.02 186.964 198.724 186.76 198.456C186.557 198.189 186.3 197.954 185.99 197.752C185.673 197.547 185.322 197.389 184.938 197.279C184.59 197.18 184.257 197.128 183.938 197.126C183.618 197.123 183.326 197.166 183.061 197.254C182.79 197.335 182.555 197.457 182.355 197.622C182.149 197.784 181.985 197.978 181.865 198.203L182.685 198.609C182.751 198.463 182.848 198.333 182.977 198.218C183.1 198.095 183.251 198.002 183.429 197.939C183.601 197.868 183.8 197.83 184.025 197.825C184.251 197.82 184.5 197.856 184.774 197.935C185.04 198.011 185.28 198.124 185.493 198.274C185.7 198.415 185.872 198.585 186.007 198.782C186.144 198.973 186.236 199.183 186.283 199.412C186.322 199.638 186.308 199.868 186.241 200.102L186.211 200.208C186.14 200.453 186.029 200.662 185.876 200.833C185.717 200.997 185.529 201.12 185.313 201.204C185.097 201.288 184.86 201.333 184.602 201.342C184.345 201.344 184.08 201.306 183.806 201.228C183.533 201.149 183.306 201.05 183.124 200.928C182.937 200.798 182.789 200.661 182.679 200.515C182.563 200.362 182.484 200.203 182.443 200.04C182.394 199.874 182.377 199.711 182.391 199.55L181.481 199.46Z" fill="#FFFCE5"/>
<path d="M174.161 194.325L172.164 193.753L171.998 194.332L171.865 194.294C171.794 194.014 171.644 193.781 171.417 193.596C171.192 193.405 170.913 193.261 170.58 193.166C170.026 193.007 169.538 193.022 169.115 193.212C168.693 193.401 168.392 193.767 168.212 194.311L169.092 194.676C169.207 194.273 169.412 194.018 169.707 193.913C170.002 193.801 170.328 193.796 170.683 193.898C170.912 193.964 171.101 194.056 171.251 194.175C171.394 194.292 171.503 194.427 171.579 194.582C171.655 194.737 171.695 194.903 171.7 195.082C171.704 195.26 171.68 195.443 171.626 195.631L171.098 197.473L169.701 197.073L169.52 197.705L173.047 198.715L173.228 198.083L171.964 197.721L172.848 194.632L173.98 194.956L174.161 194.325Z" fill="#FFFCE5"/>
<path d="M163.134 191.166L162.269 190.918L161.022 195.27L161.887 195.518L162.113 194.728L162.246 194.766C162.343 195.098 162.512 195.387 162.754 195.633C162.995 195.88 163.338 196.066 163.781 196.194C164.084 196.28 164.377 196.32 164.659 196.312C164.932 196.308 165.184 196.254 165.414 196.149C165.637 196.042 165.833 195.886 166.004 195.681C166.167 195.475 166.293 195.217 166.382 194.907L167.126 192.309L166.261 192.061L165.542 194.571C165.411 195.027 165.198 195.327 164.901 195.47C164.604 195.613 164.211 195.614 163.723 195.474C163.198 195.324 162.828 195.066 162.613 194.7C162.392 194.327 162.349 193.903 162.485 193.429L163.134 191.166Z" fill="#FFFCE5"/>
<path d="M159.203 194.065L157.207 193.494L158.605 188.615L160.534 189.168L160.715 188.536L157.921 187.735L156.342 193.246L154.346 192.674L154.165 193.306L159.022 194.697L159.203 194.065Z" fill="#FFFCE5"/>
<path d="M152.163 190.605C152.016 191.032 151.747 191.331 151.353 191.503C150.96 191.675 150.479 191.68 149.909 191.517C149.651 191.443 149.432 191.355 149.253 191.253C149.074 191.151 148.93 191.04 148.82 190.92C148.703 190.798 148.619 190.672 148.568 190.544C148.511 190.407 148.475 190.27 148.458 190.133L147.587 190.073C147.627 190.521 147.82 190.934 148.168 191.312C148.51 191.682 149.036 191.969 149.746 192.173C150.137 192.285 150.515 192.336 150.878 192.326C151.235 192.308 151.56 192.233 151.854 192.102C152.147 191.971 152.4 191.787 152.612 191.55C152.824 191.314 152.977 191.028 153.073 190.695L153.133 190.484C153.22 190.18 153.235 189.877 153.177 189.576C153.112 189.273 152.985 188.992 152.794 188.735C152.606 188.472 152.364 188.242 152.069 188.043C151.768 187.837 151.425 187.678 151.041 187.568C150.59 187.439 150.182 187.395 149.818 187.436C149.449 187.47 149.133 187.553 148.871 187.687C148.601 187.819 148.385 187.985 148.224 188.185C148.055 188.384 147.943 188.58 147.888 188.773L147.727 189.334L152.163 190.605ZM150.855 188.217C151.099 188.287 151.319 188.385 151.515 188.511C151.705 188.629 151.865 188.767 151.996 188.924C152.12 189.08 152.211 189.249 152.271 189.43C152.325 189.604 152.342 189.783 152.321 189.967L148.773 188.95C148.841 188.767 148.949 188.615 149.096 188.492C149.236 188.368 149.402 188.276 149.595 188.217C149.78 188.157 149.985 188.126 150.208 188.127C150.425 188.126 150.64 188.156 150.855 188.217Z" fill="#FFFCE5"/>
<path d="M145.224 187.25C145.164 187.461 145.007 187.59 144.753 187.637C144.492 187.683 144.057 187.637 143.448 187.501C142.793 187.358 142.27 187.341 141.879 187.45C141.482 187.552 141.228 187.795 141.117 188.181L141.102 188.234C141.042 188.445 141.043 188.651 141.105 188.852C141.162 189.046 141.269 189.228 141.428 189.4C141.579 189.57 141.783 189.724 142.04 189.861C142.288 190.001 142.571 190.117 142.889 190.208C143.317 190.331 143.7 190.393 144.035 190.394C144.365 190.387 144.655 190.341 144.904 190.254C145.147 190.159 145.347 190.033 145.504 189.875C145.663 189.712 145.777 189.535 145.847 189.347L145.072 188.954C144.939 189.276 144.7 189.499 144.353 189.621C144.007 189.737 143.594 189.727 143.114 189.589C142.707 189.473 142.4 189.318 142.191 189.125C141.976 188.924 141.902 188.71 141.967 188.482C142.037 188.236 142.21 188.096 142.484 188.06C142.758 188.025 143.173 188.071 143.728 188.198C144.374 188.345 144.896 188.368 145.293 188.267C145.69 188.165 145.943 187.924 146.052 187.544L146.067 187.492C146.126 187.287 146.121 187.092 146.054 186.909C145.988 186.719 145.878 186.545 145.723 186.387C145.561 186.226 145.37 186.086 145.148 185.965C144.927 185.845 144.686 185.748 144.428 185.674C144.065 185.57 143.736 185.52 143.439 185.523C143.143 185.521 142.885 185.558 142.663 185.633C142.443 185.703 142.262 185.806 142.119 185.943C141.968 186.077 141.855 186.221 141.778 186.377L142.554 186.77C142.671 186.5 142.878 186.322 143.175 186.236C143.464 186.148 143.808 186.161 144.207 186.275C144.363 186.32 144.51 186.378 144.649 186.449C144.783 186.513 144.898 186.587 144.994 186.671C145.09 186.756 145.159 186.848 145.202 186.949C145.247 187.045 145.254 187.145 145.224 187.25Z" fill="#FFFCE5"/>
<path d="M71.4111 26.3607L21.3465 51.3437L9.9589 59.3236L15.8888 64.2344L75.2175 34.31L71.4111 26.3607Z" fill="#FFCC3E"/>
<path d="M67.5455 32.0888C67.4773 31.9464 67.4465 31.8067 67.453 31.6697C67.4553 31.5348 67.4876 31.4086 67.5498 31.2913C67.612 31.1739 67.697 31.0663 67.8046 30.9685C67.9122 30.8706 68.0351 30.7886 68.1733 30.7224C68.2948 30.6642 68.418 30.6258 68.543 30.6072C68.6659 30.5843 68.7854 30.5812 68.9015 30.5977C69.0133 30.6162 69.1154 30.6575 69.2078 30.7214C69.2982 30.7811 69.3704 30.8675 69.4246 30.9806L69.4427 31.0183C69.5008 31.1397 69.5258 31.2565 69.5177 31.3685C69.5075 31.4763 69.4693 31.5847 69.4031 31.6937C69.3306 31.8005 69.2311 31.9099 69.1046 32.022C68.976 32.1299 68.8203 32.2456 68.6375 32.3692C68.2108 32.6611 67.9367 32.9596 67.8152 33.265C67.6917 33.5662 67.7101 33.8843 67.8706 34.2194L67.9067 34.2948C67.9969 34.4833 68.1137 34.6411 68.2569 34.7681C68.3939 34.893 68.5544 34.9809 68.7385 35.0319C68.9183 35.0848 69.1175 35.0975 69.336 35.0701C69.5546 35.0427 69.7875 34.9698 70.0346 34.8515C70.3152 34.7171 70.5454 34.558 70.7251 34.3741C70.8986 34.188 71.0246 33.9887 71.103 33.7761C71.1752 33.5613 71.2029 33.3395 71.186 33.1107C71.1672 32.8777 71.1026 32.6461 70.9923 32.4157L70.902 32.2272L70.3742 32.4799L70.4464 32.6307C70.631 33.0161 70.6646 33.3552 70.5475 33.6482C70.4261 33.9432 70.1769 34.1809 69.7999 34.3614C69.4732 34.5178 69.1941 34.564 68.9625 34.4998C68.7248 34.4334 68.5488 34.2808 68.4344 34.0421L68.4164 34.0044C68.3061 33.774 68.3077 33.5569 68.4213 33.3532C68.5307 33.1515 68.7629 32.9322 69.118 32.6952C69.326 32.5596 69.506 32.4194 69.658 32.2745C69.8038 32.1274 69.9165 31.9756 69.996 31.8191C70.0736 31.6584 70.1128 31.4929 70.1136 31.3226C70.1144 31.1523 70.0697 30.9729 69.9795 30.7844L69.9434 30.709C69.8611 30.5373 69.7503 30.3972 69.6109 30.2889C69.4715 30.1806 69.3139 30.1042 69.1381 30.0596C68.9581 30.0171 68.7671 30.0107 68.5651 30.0405C68.3569 30.0681 68.146 30.133 67.9324 30.2353C67.6853 30.3536 67.4824 30.4945 67.3238 30.658C67.161 30.8235 67.0417 30.999 66.9658 31.1847C66.888 31.3662 66.8546 31.5546 66.8658 31.7501C66.8708 31.9433 66.9155 32.1279 66.9997 32.3039L67.1261 32.5677L67.6538 32.315L67.5455 32.0888Z" fill="black"/>
<path d="M65.0947 36.4599L65.1701 36.4238C65.3709 36.5851 65.5854 36.6729 65.8137 36.6872C66.0377 36.7035 66.2482 36.6645 66.4451 36.5702C66.6503 36.472 66.8249 36.3472 66.9687 36.1959C67.1105 36.0405 67.2164 35.8637 67.2862 35.6654C67.3499 35.465 67.3723 35.2483 67.3534 35.0154C67.3345 34.7824 67.2629 34.5361 67.1386 34.2764L67.0904 34.1758C66.9681 33.9203 66.8221 33.7122 66.6524 33.5514C66.4828 33.3907 66.3009 33.2743 66.1069 33.2025C65.9067 33.1284 65.7015 33.0979 65.4915 33.111C65.2815 33.124 65.0781 33.1776 64.8812 33.2719C64.6676 33.3742 64.498 33.5146 64.3723 33.6932C64.2405 33.8696 64.1715 34.0803 64.1653 34.3253L64.0899 34.3614L63.8552 33.8713L63.3651 34.106L64.5505 36.5815C64.6106 36.7071 64.5842 36.7971 64.4711 36.8512L64.314 36.9264L64.5306 37.3788L64.8636 37.2193C65.006 37.1512 65.1012 37.0489 65.1493 36.9126C65.1931 36.7784 65.1809 36.64 65.1127 36.4976L65.0947 36.4599ZM66.1722 36.1294C66.0256 36.1996 65.8785 36.2365 65.731 36.2402C65.5792 36.2459 65.4353 36.2196 65.2992 36.1612C65.1631 36.1028 65.0368 36.0165 64.9204 35.9023C64.8019 35.784 64.7016 35.6389 64.6193 35.4672L64.5832 35.3918C64.503 35.2243 64.4549 35.0593 64.439 34.897C64.4211 34.7306 64.4341 34.575 64.4782 34.4303C64.518 34.2877 64.5877 34.159 64.6873 34.0444C64.7807 33.9276 64.8986 33.8351 65.041 33.7669C65.1876 33.6967 65.3347 33.6598 65.4822 33.6561C65.6298 33.6524 65.7737 33.6787 65.914 33.7351C66.0481 33.7893 66.1743 33.8756 66.2928 33.994C66.4092 34.1081 66.5076 34.249 66.5878 34.4165L66.6359 34.5171C66.8064 34.8731 66.8476 35.1958 66.7596 35.4851C66.6654 35.7722 66.4696 35.987 66.1722 36.1294Z" fill="black"/>
<path d="M62.3014 34.6153L61.3401 35.0756L60.961 34.2839C60.8928 34.1415 60.7927 34.0453 60.6606 33.9953C60.5243 33.9472 60.385 33.9573 60.2425 34.0255L59.0111 34.6152L59.2277 35.0676L60.2832 34.5621C60.3963 34.508 60.483 34.5437 60.5431 34.6694L60.85 35.3103L59.5494 35.933L59.766 36.3854L61.0666 35.7626L62.3422 38.4267L62.8323 38.192L61.5567 35.528L62.518 35.0677L62.3014 34.6153Z" fill="black"/>
<path d="M58.883 38.3529C59.0188 38.6689 59.0418 38.9643 58.952 39.239C58.8621 39.5137 58.6559 39.7283 58.3334 39.8828C58.1868 39.953 58.051 39.9974 57.9261 40.016C57.8011 40.0346 57.6869 40.0327 57.5834 40.0102C57.4758 39.9896 57.3808 39.9527 57.2987 39.8993C57.2103 39.8438 57.1304 39.7791 57.0589 39.7052L56.6542 40.0535C56.8805 40.3004 57.1572 40.4588 57.4842 40.5288C57.805 40.5966 58.1665 40.5342 58.5686 40.3417C58.7906 40.2354 58.9778 40.0994 59.1302 39.9338C59.2764 39.7659 59.3824 39.5787 59.4482 39.3721C59.5141 39.1655 59.5376 38.9457 59.5187 38.7128C59.4998 38.4798 59.4332 38.2439 59.3189 38.0052L59.2467 37.8544C59.1424 37.6366 59.0074 37.4515 58.8418 37.2991C58.672 37.1487 58.4858 37.0396 58.2834 36.9717C58.079 36.8997 57.8666 36.8701 57.6462 36.8829C57.4196 36.8936 57.1974 36.9511 56.9796 37.0554C56.7241 37.1777 56.5272 37.3312 56.3891 37.5158C56.2447 37.6982 56.147 37.8866 56.0959 38.081C56.0406 38.2774 56.0248 38.4703 56.0486 38.6597C56.0682 38.8511 56.111 39.016 56.1772 39.1542L56.3698 39.5563L58.883 38.3529ZM57.2022 37.5203C57.3404 37.4541 57.4813 37.415 57.6249 37.4029C57.7622 37.3886 57.896 37.3992 58.0263 37.4347C58.1523 37.4722 58.2708 37.5313 58.3815 37.6121C58.4861 37.6908 58.5769 37.7889 58.6538 37.9066L56.6432 38.8693C56.5874 38.7312 56.5628 38.5937 56.5693 38.4567C56.5716 38.3217 56.6008 38.1945 56.6568 38.075C56.7087 37.9575 56.7832 37.8497 56.8804 37.7516C56.9735 37.6556 57.0807 37.5785 57.2022 37.5203Z" fill="black"/>
<path d="M49.5794 43.9508L49.6548 43.9147C49.7512 43.987 49.8563 44.0396 49.9699 44.0728C50.0794 44.1079 50.1913 44.1264 50.3055 44.1283C50.4155 44.1323 50.5258 44.1207 50.6364 44.0935C50.7489 44.0705 50.8513 44.0369 50.9434 43.9928C51.1529 43.8925 51.3306 43.7636 51.4766 43.6062C51.6226 43.4487 51.7327 43.2699 51.8067 43.0697C51.8766 42.8715 51.9042 42.6549 51.8895 42.4199C51.8686 42.1827 51.797 41.9364 51.6746 41.6809L51.6265 41.5804C51.5062 41.329 51.3591 41.124 51.1852 40.9652C51.0094 40.8023 50.8223 40.6859 50.6241 40.616C50.4239 40.542 50.2167 40.5125 50.0025 40.5275C49.7883 40.5425 49.5806 40.5982 49.3796 40.6945C49.1659 40.7968 48.99 40.9402 48.8519 41.1248C48.7075 41.3072 48.6322 41.5209 48.6259 41.7659L48.5505 41.802L47.7021 40.0302L47.2121 40.2648L49.318 44.663L49.8081 44.4283L49.5794 43.9508ZM50.6705 43.5519C50.5239 43.6221 50.3748 43.6601 50.223 43.6658C50.0713 43.6715 49.9253 43.6462 49.785 43.5898C49.6405 43.5354 49.508 43.4521 49.3873 43.3399C49.2647 43.2236 49.1622 43.0795 49.08 42.9078L49.0439 42.8324C48.9637 42.6649 48.9177 42.4989 48.906 42.3346C48.8922 42.1662 48.9095 42.0086 48.9577 41.8619C49.0017 41.7173 49.0756 41.5866 49.1794 41.47C49.2769 41.3512 49.3969 41.2577 49.5394 41.1895C49.686 41.1193 49.8372 41.0803 49.9931 41.0726C50.1449 41.0669 50.293 41.0912 50.4375 41.1456C50.5777 41.202 50.7082 41.2863 50.8289 41.3985C50.9453 41.5126 51.0436 41.6535 51.1239 41.821L51.172 41.9216C51.2562 42.0975 51.3063 42.2666 51.3222 42.4289C51.334 42.5932 51.3178 42.7477 51.2738 42.8923C51.2236 43.0348 51.1487 43.1633 51.0491 43.278C50.9475 43.3884 50.8213 43.4797 50.6705 43.5519Z" fill="black"/>
<path d="M47.0573 41.9145L45.9264 42.4561L46.125 42.8707L46.0496 42.9068C45.8877 42.7732 45.7145 42.7017 45.5298 42.6923C45.343 42.6787 45.1554 42.7171 44.967 42.8073C44.6528 42.9578 44.4485 43.1817 44.3541 43.4792C44.2597 43.7767 44.3005 44.1254 44.4765 44.5251L45.0278 44.3538C44.8894 44.0648 44.8592 43.8244 44.9373 43.6325C45.0133 43.4365 45.1519 43.2903 45.3529 43.1941C45.4828 43.1319 45.6079 43.1029 45.7283 43.107C45.8445 43.1131 45.9551 43.1451 46.0601 43.203C46.165 43.2609 46.2602 43.3415 46.3457 43.4447C46.4312 43.5479 46.506 43.6666 46.5702 43.8006L47.202 45.1201L46.4103 45.4991L46.6269 45.9515L48.6249 44.9948L48.4083 44.5424L47.6921 44.8854L46.6331 42.6738L47.274 42.3669L47.0573 41.9145Z" fill="black"/>
<path d="M41.6214 43.3743C41.5633 43.2528 41.4723 43.1702 41.3484 43.1266C41.2183 43.0807 41.0925 43.0869 40.971 43.1451C40.8496 43.2032 40.768 43.2963 40.7263 43.4244C40.6785 43.5503 40.6836 43.674 40.7418 43.7955C40.8 43.9169 40.8941 44.0006 41.0242 44.0464C41.1481 44.0901 41.2707 44.0829 41.3922 44.0247C41.5137 43.9665 41.5984 43.8745 41.6462 43.7486C41.6879 43.6205 41.6796 43.4958 41.6214 43.3743ZM44.2345 46.541L43.1412 47.0645L42.0822 44.8528L43.0624 44.3835L42.8458 43.9311L41.3756 44.6351L42.6512 47.2991L41.6333 47.7865L41.8499 48.2389L44.4511 46.9934L44.2345 46.541Z" fill="black"/>
<path d="M38.8259 49.6869L39.7934 49.2236L39.3882 45.5867L38.8102 45.8635L39.239 49.211L39.1636 49.2471L36.8247 46.8142L36.2467 47.0909L38.8259 49.6869Z" fill="black"/>
<path d="M33.9272 47.0585C33.869 46.937 33.778 46.8544 33.6541 46.8108C33.524 46.7649 33.3982 46.7711 33.2768 46.8293C33.1553 46.8874 33.0737 46.9806 33.0321 47.1086C32.9842 47.2345 32.9894 47.3582 33.0475 47.4797C33.1057 47.6011 33.1998 47.6848 33.3299 47.7306C33.4538 47.7743 33.5765 47.7671 33.698 47.7089C33.8194 47.6507 33.9041 47.5587 33.9519 47.4328C33.9936 47.3047 33.9853 47.18 33.9272 47.0585ZM36.5402 50.2252L35.447 50.7487L34.388 48.537L35.3681 48.0677L35.1515 47.6153L33.6813 48.3193L34.9569 50.9833L33.939 51.4707L34.1556 51.9231L36.7568 50.6776L36.5402 50.2252Z" fill="black"/>
<path d="M32.495 52.7182L32.9851 52.4836L31.4929 49.3672L31.0028 49.6018L31.2555 50.1296L31.1801 50.1657C30.7909 49.8475 30.3575 49.8027 29.88 50.0313C29.5198 50.2038 29.287 50.4543 29.1817 50.7828C29.0744 51.1071 29.128 51.4933 29.3426 51.9415L30.2331 53.8013L30.7232 53.5666L29.8808 51.8074C29.7244 51.4806 29.6803 51.2005 29.7487 50.9669C29.8171 50.7334 29.977 50.5564 30.2283 50.4361C30.5257 50.2937 30.8094 50.284 31.0794 50.407C31.3432 50.5279 31.5564 50.7579 31.7188 51.0972L32.495 52.7182Z" fill="black"/>
<path d="M26.5406 54.9823L26.616 54.9462C26.8068 55.0866 27.0132 55.1628 27.2352 55.1749C27.4511 55.1849 27.6617 55.1407 27.8669 55.0424C28.0763 54.9421 28.2562 54.8122 28.4064 54.6528C28.5566 54.4933 28.6708 54.3125 28.749 54.1103C28.8231 53.91 28.8549 53.6914 28.8444 53.4544C28.8277 53.2153 28.7582 52.968 28.6358 52.7124L28.5877 52.6119C28.4673 52.3606 28.3182 52.1565 28.1401 51.9998C27.9601 51.8388 27.7688 51.7245 27.5664 51.6566C27.362 51.5846 27.1506 51.5571 26.9322 51.5741C26.7138 51.5911 26.5041 51.6478 26.303 51.7441C26.0768 51.8524 25.904 51.9969 25.7846 52.1777C25.659 52.3562 25.5932 52.5628 25.5871 52.7974L25.5117 52.8335L25.277 52.3435L24.787 52.5781L26.6462 56.4611C26.7144 56.6035 26.8166 56.6987 26.9529 56.7467C27.085 56.7967 27.2222 56.7877 27.3647 56.7195L29.3941 55.7477L29.1775 55.2954L27.324 56.1829C27.2109 56.237 27.1242 56.2013 27.0641 56.0756L26.5406 54.9823ZM27.6317 54.5835C27.4851 54.6537 27.3359 54.6916 27.1842 54.6973C27.0325 54.7031 26.8865 54.6777 26.7462 54.6213C26.6017 54.5669 26.4691 54.4836 26.3485 54.3715C26.2259 54.2551 26.1234 54.1111 26.0412 53.9394L26.0051 53.864C25.9249 53.6964 25.8789 53.5305 25.8671 53.3662C25.8534 53.1977 25.8706 53.0401 25.9189 52.8935C25.9629 52.7488 26.0368 52.6182 26.1405 52.5016C26.2381 52.3827 26.3581 52.2892 26.5005 52.221C26.6471 52.1509 26.7984 52.1119 26.9543 52.1042C27.1061 52.0985 27.2542 52.1228 27.3986 52.1772C27.5389 52.2336 27.6694 52.3179 27.79 52.43C27.9065 52.5442 28.0048 52.685 28.085 52.8526L28.1332 52.9531C28.2174 53.129 28.2675 53.2982 28.2834 53.4604C28.2951 53.6247 28.279 53.7792 28.235 53.9239C28.1848 54.0663 28.1099 54.1949 28.0103 54.3095C27.9087 54.4199 27.7825 54.5113 27.6317 54.5835Z" fill="black"/>
<path d="M121.299 257.976L9.85138 187.243L9.60109 204.352L111.448 273.497L121.299 257.976Z" fill="#5D50A2"/>
<path d="M113.189 258.761L112.46 258.298L109.714 262.626L106.538 260.611L106.194 261.153L110.098 263.631L113.189 258.761Z" fill="#FFFCE5"/>
<path d="M106.294 254.931C106.379 254.796 106.393 254.646 106.337 254.48C106.277 254.305 106.163 254.165 105.996 254.058C105.828 253.952 105.655 253.911 105.478 253.935C105.297 253.95 105.164 254.025 105.079 254.16C104.994 254.294 104.981 254.449 105.04 254.623C105.097 254.79 105.21 254.926 105.377 255.032C105.545 255.139 105.719 255.184 105.899 255.169C106.077 255.145 106.208 255.065 106.294 254.931ZM105 259.692L103.49 258.734L105.045 256.285L106.398 257.144L106.716 256.643L104.686 255.355L102.813 258.305L101.408 257.413L101.09 257.914L104.682 260.193L105 259.692Z" fill="#FFFCE5"/>
<path d="M96.2255 253.109C96.1511 253.328 96.1202 253.556 96.1328 253.792C96.1397 254.024 96.1916 254.255 96.2886 254.486C96.3885 254.712 96.5335 254.931 96.7236 255.143C96.9138 255.354 97.1505 255.55 97.4339 255.73C97.7347 255.921 98.046 256.063 98.3679 256.157C98.684 256.247 98.9903 256.282 99.287 256.262C99.5866 256.237 99.8663 256.155 100.126 256.014C100.38 255.869 100.597 255.655 100.777 255.372L100.83 255.289C101.006 255.011 101.107 254.723 101.133 254.427C101.153 254.128 101.11 253.837 101.005 253.555C100.899 253.274 100.74 253.007 100.527 252.755C100.308 252.499 100.049 252.275 99.7479 252.084C99.476 251.912 99.2038 251.784 98.9313 251.703C98.6587 251.621 98.3974 251.585 98.1474 251.595C97.8945 251.598 97.6615 251.645 97.4486 251.738C97.2299 251.827 97.04 251.953 96.8788 252.118L97.476 252.672C97.5699 252.563 97.6868 252.474 97.8269 252.407C97.9641 252.332 98.1171 252.289 98.2857 252.279C98.4516 252.26 98.6316 252.277 98.826 252.329C99.0203 252.38 99.2244 252.474 99.4384 252.61C99.6467 252.742 99.8227 252.899 99.9666 253.082C100.108 253.256 100.211 253.445 100.276 253.649C100.344 253.849 100.369 254.053 100.349 254.262C100.325 254.467 100.253 254.663 100.135 254.848L100.082 254.932C99.9588 255.127 99.8094 255.279 99.6341 255.389C99.456 255.491 99.2636 255.551 99.0571 255.569C98.8506 255.588 98.6357 255.569 98.4123 255.512C98.1919 255.45 97.9747 255.351 97.7607 255.215C97.5467 255.079 97.3778 254.936 97.254 254.786C97.1274 254.628 97.0357 254.472 96.9788 254.319C96.919 254.157 96.8927 254.001 96.8997 253.849C96.901 253.693 96.9283 253.548 96.9817 253.413L96.2255 253.109Z" fill="#FFFCE5"/>
<path d="M94.6564 251.644C94.4212 251.976 94.113 252.168 93.7318 252.219C93.3506 252.27 92.9374 252.154 92.492 251.871C92.2896 251.743 92.1249 251.612 91.9981 251.48C91.8713 251.347 91.7764 251.215 91.7135 251.084C91.6449 250.95 91.6052 250.82 91.5946 250.696C91.5811 250.564 91.5851 250.437 91.6064 250.314L90.8761 250.045C90.7944 250.442 90.8536 250.848 91.0538 251.261C91.2511 251.666 91.6273 252.045 92.1826 252.397C92.4891 252.592 92.799 252.73 93.1123 252.811C93.4227 252.885 93.7205 252.901 94.0057 252.861C94.2908 252.821 94.5546 252.725 94.7971 252.573C95.0396 252.421 95.2447 252.213 95.4125 251.948L95.5185 251.781C95.6716 251.54 95.7623 251.282 95.7907 251.007C95.8133 250.729 95.7763 250.455 95.6796 250.185C95.5859 249.911 95.4383 249.652 95.2368 249.407C95.0325 249.153 94.7799 248.931 94.4792 248.74C94.1264 248.516 93.7889 248.377 93.4667 248.322C93.1416 248.259 92.8496 248.253 92.5905 248.303C92.3256 248.349 92.0982 248.439 91.9082 248.573C91.7124 248.702 91.5659 248.843 91.4688 248.996L91.1861 249.442L94.6564 251.644ZM94.1524 249.255C94.3433 249.376 94.5064 249.516 94.6417 249.673C94.7742 249.822 94.8761 249.981 94.9474 250.15C95.0129 250.315 95.0479 250.484 95.0523 250.656C95.0539 250.82 95.0221 250.978 94.957 251.132L92.1808 249.37C92.2866 249.229 92.4182 249.124 92.5757 249.055C92.7274 248.982 92.8934 248.944 93.0737 248.941C93.2481 248.935 93.431 248.96 93.6224 249.016C93.808 249.069 93.9847 249.149 94.1524 249.255Z" fill="#FFFCE5"/>
<path d="M88.1729 249.716L88.8496 250.145L91.0399 246.694L90.3632 246.265L89.9923 246.849L89.8882 246.783C89.9106 246.159 89.5922 245.639 88.9329 245.22C88.4355 244.904 87.9598 244.778 87.5058 244.841C87.0548 244.9 86.6718 245.178 86.3568 245.674L85.0497 247.733L85.7264 248.163L86.9629 246.215C87.1925 245.853 87.4659 245.646 87.7832 245.593C88.1004 245.541 88.4326 245.625 88.7796 245.845C89.1902 246.106 89.442 246.425 89.5349 246.803C89.6249 247.172 89.5507 247.545 89.3122 247.92L88.1729 249.716Z" fill="#FFFCE5"/>
<path d="M80.2893 242.994C80.2149 243.214 80.184 243.441 80.1966 243.677C80.2034 243.909 80.2554 244.141 80.3523 244.371C80.4522 244.597 80.5973 244.816 80.7874 245.028C80.9775 245.24 81.2143 245.436 81.4977 245.616C81.7984 245.806 82.1098 245.949 82.4316 246.042C82.7477 246.132 83.0541 246.167 83.3507 246.147C83.6503 246.123 83.93 246.04 84.1898 245.899C84.4439 245.755 84.6607 245.541 84.8403 245.258L84.8933 245.174C85.0699 244.896 85.171 244.609 85.1967 244.313C85.2165 244.013 85.1738 243.722 85.0685 243.441C84.9633 243.159 84.8041 242.892 84.591 242.64C84.3722 242.384 84.1124 242.161 83.8116 241.97C83.5398 241.797 83.2676 241.67 82.995 241.588C82.7225 241.506 82.4612 241.47 82.2111 241.481C81.9582 241.483 81.7253 241.531 81.5124 241.623C81.2937 241.712 81.1037 241.839 80.9425 242.003L81.5397 242.558C81.6336 242.448 81.7506 242.36 81.8907 242.293C82.0279 242.217 82.1808 242.174 82.3495 242.164C82.5153 242.146 82.6954 242.162 82.8897 242.214C83.084 242.266 83.2882 242.36 83.5022 242.496C83.7104 242.628 83.8865 242.785 84.0303 242.967C84.1713 243.142 84.2745 243.331 84.3397 243.535C84.4078 243.734 84.4323 243.938 84.4132 244.147C84.3883 244.353 84.317 244.548 84.1992 244.734L84.1462 244.817C84.0226 245.012 83.8731 245.165 83.6978 245.275C83.5197 245.376 83.3274 245.436 83.1209 245.455C82.9144 245.474 82.6994 245.454 82.4761 245.397C82.2557 245.335 82.0385 245.236 81.8245 245.101C81.6105 244.965 81.4416 244.822 81.3178 244.672C81.1912 244.513 81.0994 244.357 81.0425 244.204C80.9828 244.043 80.9564 243.886 80.9635 243.734C80.9647 243.579 80.9921 243.434 81.0455 243.298L80.2893 242.994Z" fill="#FFFCE5"/>
<path d="M78.7201 241.53C78.4849 241.862 78.1767 242.053 77.7955 242.104C77.4144 242.155 77.0011 242.039 76.5558 241.757C76.3533 241.628 76.1887 241.498 76.0619 241.365C75.9351 241.233 75.8402 241.101 75.7773 240.97C75.7086 240.835 75.669 240.706 75.6584 240.582C75.6449 240.45 75.6488 240.322 75.6702 240.199L74.9398 239.931C74.8582 240.328 74.9174 240.733 75.1175 241.146C75.3148 241.551 75.6911 241.93 76.2463 242.283C76.5529 242.477 76.8628 242.615 77.176 242.697C77.4864 242.77 77.7842 242.787 78.0694 242.747C78.3546 242.706 78.6184 242.61 78.8609 242.458C79.1034 242.306 79.3085 242.098 79.4763 241.834L79.5823 241.667C79.7354 241.426 79.8261 241.168 79.8545 240.893C79.8771 240.614 79.84 240.34 79.7434 240.071C79.6497 239.797 79.502 239.537 79.3006 239.292C79.0962 239.039 78.8437 238.817 78.5429 238.626C78.1901 238.402 77.8526 238.262 77.5304 238.208C77.2054 238.144 76.9133 238.138 76.6542 238.188C76.3894 238.235 76.1619 238.325 75.9719 238.458C75.7761 238.588 75.6297 238.729 75.5325 238.882L75.2499 239.327L78.7201 241.53ZM78.2162 239.141C78.407 239.262 78.5701 239.401 78.7055 239.559C78.838 239.708 78.9399 239.867 79.0112 240.036C79.0767 240.201 79.1117 240.369 79.1161 240.541C79.1177 240.705 79.0859 240.864 79.0207 241.018L76.2445 239.256C76.3503 239.115 76.482 239.009 76.6395 238.94C76.7912 238.867 76.9572 238.83 77.1374 238.827C77.3119 238.82 77.4948 238.845 77.6862 238.902C77.8718 238.955 78.0484 239.034 78.2162 239.141Z" fill="#FFFCE5"/>
<path d="M64.849 234.092L64.9531 234.158C64.9448 234.478 65.0296 234.773 65.2076 235.042C65.3799 235.308 65.6019 235.527 65.8738 235.699C66.1572 235.879 66.4439 236.009 66.7339 236.089C67.0269 236.164 67.313 236.187 67.5923 236.156C67.8687 236.116 68.1282 236.021 68.3706 235.869C68.6131 235.717 68.8256 235.497 69.0081 235.209L69.0788 235.098C69.2584 234.815 69.3653 234.532 69.3996 234.248C69.4338 233.964 69.4084 233.69 69.3233 233.428C69.2354 233.158 69.095 232.906 68.9021 232.673C68.7092 232.44 68.4769 232.237 68.2051 232.064C67.9101 231.877 67.6102 231.762 67.3053 231.718C66.9977 231.666 66.7052 231.705 66.4281 231.835L66.324 231.769L66.6684 231.226L65.9917 230.796L64.2518 233.538C64.1635 233.677 64.0413 233.697 63.8851 233.598L63.6682 233.46L63.3503 233.961L63.8101 234.253C64.0067 234.378 64.2011 234.429 64.3931 234.408C64.5793 234.383 64.7225 234.292 64.8225 234.134L64.849 234.092ZM66.1311 235.14C65.9287 235.012 65.7628 234.864 65.6333 234.698C65.4981 234.527 65.4051 234.348 65.3543 234.159C65.3034 233.971 65.2919 233.778 65.3197 233.581C65.3504 233.379 65.4261 233.183 65.5468 232.993L65.5997 232.91C65.7175 232.724 65.8597 232.577 66.0262 232.468C66.1957 232.354 66.3794 232.282 66.5773 232.251C66.7694 232.217 66.9714 232.225 67.1831 232.275C67.3921 232.316 67.5949 232.399 67.7915 232.524C67.994 232.653 68.1599 232.8 68.2894 232.967C68.4188 233.134 68.5118 233.313 68.5684 233.505C68.6222 233.689 68.6337 233.882 68.603 234.084C68.5753 234.281 68.5025 234.472 68.3848 234.658L68.3141 234.769C68.0639 235.163 67.7408 235.391 67.3451 235.452C66.9464 235.505 66.5418 235.401 66.1311 235.14Z" fill="#FFFCE5"/>
<path d="M60.8855 234.349L61.5622 234.778L64.6357 229.936L63.959 229.506L63.6145 230.049L63.5104 229.983C63.4925 229.679 63.3844 229.389 63.1861 229.113C62.9907 228.833 62.7368 228.594 62.4245 228.396C62.1585 228.227 61.8818 228.107 61.5947 228.035C61.3075 227.963 61.0271 227.945 60.7536 227.979C60.4744 228.01 60.2135 228.102 59.971 228.254C59.7228 228.402 59.5103 228.615 59.3337 228.894L59.2454 229.033C59.0658 229.316 58.9589 229.599 58.9246 229.883C58.8903 230.167 58.9186 230.442 59.0095 230.708C59.0946 230.97 59.2336 231.218 59.4264 231.451C59.6223 231.68 59.8561 231.88 60.1279 232.052C60.2667 232.141 60.4173 232.217 60.5795 232.281C60.7388 232.349 60.9012 232.4 61.0666 232.434C61.2292 232.459 61.3889 232.469 61.5459 232.464C61.7059 232.455 61.8573 232.421 62.0002 232.362L62.1043 232.428L60.8855 234.349ZM60.5935 231.626C60.3853 231.494 60.2121 231.345 60.0739 231.179C59.9387 231.008 59.8413 230.829 59.7817 230.642C59.7164 230.451 59.6977 230.257 59.7254 230.06C59.7474 229.859 59.8187 229.663 59.9394 229.473L60.0277 229.334C60.1455 229.149 60.289 229.005 60.4584 228.905C60.625 228.796 60.8086 228.73 61.0094 228.708C61.2073 228.677 61.415 228.689 61.6326 228.742C61.8443 228.792 62.0515 228.881 62.2539 229.01C62.4563 229.138 62.6237 229.29 62.756 229.465C62.8912 229.635 62.99 229.818 63.0524 230.014C63.109 230.206 63.1248 230.405 63.0999 230.61C63.0779 230.811 63.0081 231.004 62.8903 231.19L62.8373 231.273C62.7166 231.464 62.5686 231.614 62.3934 231.724C62.221 231.829 62.0359 231.897 61.838 231.928C61.6343 231.954 61.4266 231.943 61.2148 231.893C61.003 231.843 60.7959 231.754 60.5935 231.626Z" fill="#FFFCE5"/>
<path d="M55.5734 230.977L56.2501 231.407L59.3236 226.564L58.6469 226.135L58.3025 226.677L58.1984 226.611C58.1805 226.307 58.0723 226.017 57.874 225.742C57.6786 225.462 57.4247 225.222 57.1124 225.024C56.8464 224.855 56.5698 224.735 56.2826 224.663C55.9954 224.592 55.7151 224.573 55.4416 224.608C55.1623 224.639 54.9014 224.73 54.6589 224.882C54.4107 225.03 54.1982 225.244 54.0216 225.522L53.9333 225.661C53.7537 225.944 53.6468 226.228 53.6125 226.512C53.5782 226.796 53.6066 227.071 53.6974 227.337C53.7825 227.599 53.9215 227.847 54.1144 228.08C54.3102 228.308 54.544 228.508 54.8158 228.681C54.9546 228.769 55.1052 228.845 55.2674 228.909C55.4267 228.978 55.5891 229.029 55.7545 229.062C55.9171 229.087 56.0769 229.097 56.2339 229.093C56.3938 229.084 56.5452 229.05 56.6881 228.991L56.7922 229.057L55.5734 230.977ZM55.2814 228.254C55.0732 228.122 54.9 227.973 54.7618 227.807C54.6266 227.637 54.5292 227.458 54.4697 227.271C54.4044 227.079 54.3856 226.885 54.4133 226.688C54.4353 226.487 54.5066 226.292 54.6273 226.102L54.7156 225.963C54.8334 225.777 54.977 225.634 55.1464 225.533C55.3129 225.424 55.4966 225.359 55.6973 225.336C55.8952 225.306 56.1029 225.317 56.3205 225.371C56.5323 225.421 56.7394 225.51 56.9418 225.638C57.1442 225.767 57.3116 225.918 57.4439 226.093C57.5791 226.264 57.6779 226.447 57.7403 226.643C57.7969 226.835 57.8127 227.034 57.7878 227.239C57.7659 227.44 57.696 227.633 57.5783 227.818L57.5253 227.902C57.4046 228.092 57.2566 228.242 57.0813 228.352C56.9089 228.458 56.7238 228.526 56.5259 228.556C56.3222 228.583 56.1145 228.572 55.9027 228.522C55.691 228.472 55.4838 228.383 55.2814 228.254Z" fill="#FFFCE5"/>
<path d="M51.983 226.044L50.4214 225.053L52.8767 221.184L54.3862 222.142L54.7042 221.641L52.5179 220.254L49.7447 224.623L48.1831 223.632L47.8652 224.133L51.6651 226.545L51.983 226.044Z" fill="#FFFCE5"/>
<path d="M47.8608 217.844C47.9462 217.71 47.9605 217.56 47.9037 217.393C47.844 217.219 47.7303 217.078 47.5626 216.972C47.3949 216.865 47.2223 216.824 47.0448 216.848C46.8644 216.864 46.7316 216.939 46.6462 217.074C46.5608 217.208 46.548 217.363 46.6076 217.537C46.6644 217.703 46.7767 217.84 46.9444 217.946C47.1121 218.052 47.2862 218.098 47.4665 218.082C47.644 218.058 47.7754 217.979 47.8608 217.844ZM46.5668 222.606L45.0573 221.648L46.6117 219.199L47.9651 220.058L48.283 219.557L46.2529 218.268L44.3806 221.219L42.9751 220.327L42.6572 220.827L46.2489 223.107L46.5668 222.606Z" fill="#FFFCE5"/>
<path d="M37.7926 216.022C37.7182 216.242 37.6873 216.469 37.6999 216.705C37.7068 216.937 37.7587 217.169 37.8557 217.399C37.9556 217.625 38.1006 217.844 38.2907 218.056C38.4809 218.268 38.7176 218.464 39.001 218.644C39.3018 218.835 39.6131 218.977 39.935 219.07C40.2511 219.16 40.5575 219.195 40.8541 219.176C41.1537 219.151 41.4334 219.068 41.6932 218.927C41.9472 218.783 42.1641 218.569 42.3436 218.286L42.3966 218.202C42.5733 217.924 42.6744 217.637 42.7 217.341C42.7199 217.041 42.6772 216.751 42.5719 216.469C42.4666 216.187 42.3074 215.921 42.0944 215.668C41.8755 215.412 41.6157 215.189 41.315 214.998C41.0432 214.825 40.771 214.698 40.4984 214.616C40.2258 214.534 39.9645 214.499 39.7145 214.509C39.4616 214.511 39.2287 214.559 39.0157 214.651C38.797 214.74 38.6071 214.867 38.4459 215.031L39.0431 215.586C39.137 215.476 39.254 215.388 39.394 215.321C39.5312 215.245 39.6842 215.202 39.8529 215.192C40.0187 215.174 40.1988 215.191 40.3931 215.242C40.5874 215.294 40.7916 215.388 41.0056 215.524C41.2138 215.656 41.3898 215.813 41.5337 215.996C41.6747 216.17 41.7778 216.359 41.843 216.563C41.9112 216.762 41.9357 216.966 41.9166 217.176C41.8917 217.381 41.8203 217.576 41.7026 217.762L41.6496 217.845C41.5259 218.04 41.3765 218.193 41.2012 218.303C41.0231 218.404 40.8308 218.464 40.6242 218.483C40.4177 218.502 40.2028 218.482 39.9794 218.425C39.759 218.363 39.5418 218.265 39.3278 218.129C39.1138 217.993 38.9449 217.85 38.8212 217.7C38.6946 217.541 38.6028 217.386 38.5459 217.232C38.4862 217.071 38.4598 216.914 38.4668 216.762C38.4681 216.607 38.4954 216.462 38.5488 216.326L37.7926 216.022Z" fill="#FFFCE5"/>
<path d="M32.9766 213.863L33.0807 213.93C33.0723 214.25 33.1571 214.544 33.3352 214.813C33.5074 215.079 33.7295 215.298 34.0013 215.47C34.2847 215.65 34.5714 215.78 34.8614 215.86C35.1544 215.935 35.4405 215.958 35.7198 215.927C35.9962 215.887 36.2557 215.792 36.4982 215.64C36.7406 215.488 36.9531 215.268 37.1357 214.981L37.2063 214.869C37.3859 214.586 37.4928 214.303 37.5271 214.019C37.5613 213.735 37.5359 213.461 37.4508 213.199C37.3629 212.929 37.2225 212.677 37.0296 212.444C36.8368 212.211 36.6044 212.008 36.3326 211.836C36.0376 211.648 35.7377 211.533 35.4329 211.489C35.1252 211.437 34.8328 211.476 34.5556 211.606L34.4515 211.54L34.7959 210.997L34.1192 210.567L32.3794 213.309C32.291 213.448 32.1688 213.468 32.0126 213.369L31.7957 213.231L31.4778 213.732L31.9376 214.024C32.1342 214.149 32.3286 214.2 32.5206 214.179C32.7068 214.154 32.85 214.063 32.9501 213.905L32.9766 213.863ZM34.2587 214.911C34.0562 214.783 33.8903 214.635 33.7608 214.469C33.6256 214.298 33.5326 214.119 33.4818 213.93C33.431 213.742 33.4194 213.549 33.4472 213.352C33.4779 213.15 33.5536 212.954 33.6743 212.764L33.7273 212.681C33.845 212.495 33.9872 212.348 34.1537 212.239C34.3232 212.125 34.5069 212.053 34.7048 212.022C34.8969 211.988 35.0989 211.996 35.3107 212.046C35.5196 212.087 35.7224 212.171 35.919 212.295C36.1215 212.424 36.2874 212.571 36.4169 212.738C36.5463 212.905 36.6394 213.084 36.6959 213.276C36.7497 213.46 36.7612 213.653 36.7305 213.855C36.7028 214.052 36.63 214.243 36.5123 214.429L36.4416 214.54C36.1914 214.934 35.8684 215.162 35.4726 215.223C35.0739 215.276 34.6693 215.172 34.2587 214.911Z" fill="#FFFCE5"/>
<path d="M32.7545 209.701L31.4011 208.842L32.302 207.423L31.6253 206.993L30.7244 208.413L29.0587 207.356L28.7408 207.857L30.4065 208.914L28.9846 211.154C28.8963 211.293 28.774 211.313 28.6179 211.214L27.3946 210.438L27.0766 210.939L28.5428 211.869C28.7395 211.994 28.9338 212.046 29.1258 212.025C29.312 212 29.4552 211.908 29.5553 211.751L31.0832 209.343L32.4366 210.202L32.7545 209.701Z" fill="#FFFCE5"/>
<path d="M26.6125 204.358C26.6979 204.224 26.7121 204.074 26.6553 203.907C26.5957 203.733 26.482 203.592 26.3143 203.486C26.1466 203.38 25.974 203.338 25.7965 203.362C25.6161 203.378 25.4833 203.453 25.3979 203.588C25.3125 203.722 25.2997 203.877 25.3593 204.051C25.4161 204.217 25.5283 204.354 25.6961 204.46C25.8638 204.567 26.0378 204.612 26.2182 204.596C26.3957 204.572 26.5271 204.493 26.6125 204.358ZM25.3185 209.12L23.809 208.162L25.3634 205.713L26.7167 206.572L27.0347 206.071L25.0046 204.783L23.1323 207.733L21.7268 206.841L21.4089 207.342L25.0006 209.621L25.3185 209.12Z" fill="#FFFCE5"/>
<path d="M16.8011 202.055C16.6186 202.343 16.5174 202.636 16.4975 202.936C16.4748 203.227 16.5132 203.512 16.6127 203.79C16.7152 204.063 16.8744 204.324 17.0904 204.571C17.3006 204.815 17.5474 205.027 17.8308 205.207C18.12 205.391 18.4197 205.526 18.7301 205.612C19.0404 205.698 19.341 205.73 19.6318 205.706C19.9256 205.678 20.2024 205.593 20.4622 205.452C20.7192 205.303 20.939 205.085 21.1215 204.797L21.1745 204.714C21.3541 204.431 21.4552 204.143 21.4779 203.852C21.4977 203.552 21.4579 203.264 21.3584 202.986C21.2532 202.704 21.0954 202.441 20.8852 202.197C20.675 201.953 20.4282 201.741 20.1448 201.561C19.8614 201.382 19.5645 201.248 19.2542 201.162C18.9439 201.076 18.6418 201.047 18.348 201.075C18.0484 201.1 17.7702 201.186 17.5132 201.336C17.2533 201.477 17.0337 201.689 16.8541 201.972L16.8011 202.055ZM18.1576 204.692C17.9494 204.56 17.7762 204.411 17.638 204.245C17.497 204.071 17.3953 203.886 17.3329 203.691C17.2705 203.495 17.2503 203.297 17.2723 203.096C17.2972 202.89 17.3715 202.69 17.4951 202.495L17.5481 202.412C17.6659 202.226 17.8109 202.081 17.9833 201.976C18.1585 201.866 18.348 201.797 18.5517 201.77C18.7554 201.743 18.966 201.757 19.1836 201.81C19.4041 201.859 19.6155 201.948 19.818 202.076C20.0204 202.205 20.1907 202.358 20.3287 202.537C20.4698 202.711 20.5715 202.896 20.6338 203.092C20.6962 203.288 20.7149 203.488 20.69 203.694C20.6681 203.894 20.5982 204.088 20.4804 204.273L20.4274 204.357C20.3038 204.551 20.1543 204.704 19.9791 204.814C19.8067 204.919 19.6187 204.985 19.415 205.012C19.2114 205.039 19.0036 205.028 18.7918 204.978C18.5772 204.92 18.3658 204.824 18.1576 204.692Z" fill="#FFFCE5"/>
<path d="M13.8038 202.515L14.4805 202.944L16.6708 199.493L15.9941 199.064L15.6232 199.648L15.5191 199.582C15.5415 198.959 15.2231 198.438 14.5637 198.019C14.0663 197.704 13.5907 197.577 13.1367 197.641C12.6857 197.699 12.3027 197.977 11.9877 198.473L10.6806 200.532L11.3573 200.962L12.5938 199.014C12.8234 198.652 13.0968 198.445 13.4141 198.392C13.7313 198.34 14.0634 198.424 14.4105 198.644C14.8211 198.905 15.0729 199.224 15.1658 199.602C15.2558 199.971 15.1816 200.344 14.9431 200.72L13.8038 202.515Z" fill="#FFFCE5"/>
<path d="M138.501 115.848L18.7456 124.94L25.6947 152.945L46.6166 139.423L140.567 134.798L138.501 115.848Z" fill="#467966"/>
<path d="M133.18 121.217L131.173 121.376L130.436 128.313L130.286 128.325L128.665 121.574L126.658 121.733L127.124 128.948L128.102 128.871L127.66 122.027L127.811 122.015L129.432 128.766L131.338 128.615L132.075 121.677L132.226 121.666L132.668 128.51L133.646 128.432L133.18 121.217Z" fill="#FFFCE5"/>
<path d="M119.421 127.05C119.449 127.476 119.561 127.847 119.758 128.163C119.946 128.473 120.189 128.73 120.488 128.934C120.787 129.132 121.132 129.274 121.524 129.36C121.908 129.447 122.305 129.474 122.715 129.442C123.133 129.409 123.526 129.319 123.895 129.172C124.264 129.026 124.583 128.831 124.853 128.589C125.123 128.34 125.335 128.047 125.49 127.71C125.636 127.367 125.695 126.982 125.667 126.556L125.659 126.433C125.632 126.013 125.525 125.649 125.336 125.339C125.14 125.023 124.892 124.763 124.593 124.559C124.285 124.355 123.94 124.21 123.556 124.123C123.172 124.036 122.775 124.008 122.366 124.041C121.956 124.073 121.567 124.163 121.198 124.309C120.829 124.456 120.51 124.654 120.24 124.903C119.962 125.153 119.75 125.449 119.605 125.792C119.45 126.129 119.386 126.507 119.413 126.926L119.421 127.05ZM122.665 128.679C122.364 128.703 122.086 128.684 121.83 128.621C121.565 128.552 121.331 128.443 121.128 128.293C120.925 128.143 120.761 127.959 120.638 127.741C120.514 127.516 120.443 127.259 120.424 126.971L120.416 126.847C120.399 126.572 120.437 126.317 120.531 126.082C120.625 125.84 120.762 125.628 120.944 125.448C121.125 125.268 121.343 125.123 121.596 125.013C121.849 124.897 122.122 124.827 122.415 124.804C122.708 124.78 122.987 124.807 123.252 124.882C123.517 124.951 123.751 125.06 123.954 125.21C124.157 125.36 124.32 125.547 124.444 125.772C124.568 125.99 124.638 126.237 124.656 126.512L124.664 126.636C124.682 126.924 124.645 127.19 124.551 127.432C124.457 127.667 124.319 127.875 124.138 128.055C123.956 128.235 123.743 128.38 123.498 128.489C123.244 128.592 122.966 128.655 122.665 128.679Z" fill="#FFFCE5"/>
<path d="M117.655 124.558L115.699 124.713L115.563 122.61L114.584 122.688L114.72 124.79L112.312 124.981L112.36 125.723L114.768 125.533L114.983 128.852C114.996 129.058 114.89 129.17 114.664 129.188L112.896 129.327L112.943 130.07L115.063 129.902C115.347 129.879 115.577 129.785 115.751 129.62C115.917 129.455 115.992 129.255 115.977 129.022L115.747 125.455L117.703 125.3L117.655 124.558Z" fill="#FFFCE5"/>
<path d="M104.061 128.265C104.089 128.691 104.201 129.062 104.398 129.378C104.586 129.688 104.83 129.945 105.129 130.149C105.427 130.346 105.773 130.488 106.165 130.575C106.549 130.662 106.945 130.689 107.355 130.657C107.773 130.624 108.167 130.534 108.535 130.387C108.904 130.241 109.223 130.046 109.493 129.804C109.763 129.554 109.975 129.261 110.13 128.925C110.276 128.581 110.335 128.197 110.308 127.771L110.3 127.647C110.273 127.228 110.165 126.864 109.977 126.554C109.78 126.238 109.532 125.978 109.233 125.773C108.926 125.57 108.58 125.425 108.196 125.337C107.813 125.25 107.416 125.223 107.006 125.255C106.596 125.288 106.207 125.377 105.838 125.524C105.47 125.671 105.15 125.868 104.881 126.118C104.603 126.368 104.391 126.664 104.245 127.007C104.09 127.344 104.026 127.722 104.053 128.141L104.061 128.265ZM107.306 129.894C107.005 129.918 106.726 129.898 106.47 129.836C106.205 129.767 105.971 129.658 105.768 129.508C105.565 129.358 105.402 129.174 105.279 128.956C105.155 128.731 105.083 128.474 105.065 128.186L105.057 128.062C105.039 127.787 105.077 127.532 105.171 127.296C105.265 127.054 105.403 126.843 105.584 126.663C105.766 126.483 105.983 126.338 106.237 126.228C106.49 126.111 106.763 126.041 107.055 126.018C107.348 125.995 107.627 126.021 107.892 126.097C108.157 126.166 108.391 126.275 108.594 126.425C108.797 126.575 108.961 126.762 109.085 126.987C109.208 127.205 109.278 127.452 109.296 127.727L109.304 127.85C109.323 128.139 109.285 128.404 109.192 128.647C109.098 128.882 108.96 129.09 108.778 129.27C108.597 129.45 108.383 129.595 108.138 129.704C107.884 129.807 107.607 129.87 107.306 129.894Z" fill="#FFFCE5"/>
<path d="M102.434 125.762L100.176 125.941L100.22 126.621L100.069 126.633C99.8923 126.364 99.6532 126.175 99.3521 126.068C99.0506 125.954 98.7117 125.911 98.3354 125.941C97.7083 125.991 97.2133 126.199 96.8504 126.566C96.4875 126.933 96.3144 127.441 96.331 128.089L97.3675 128.131C97.3369 127.657 97.4529 127.306 97.7155 127.078C97.9776 126.843 98.3094 126.71 98.7108 126.678C98.97 126.658 99.1984 126.681 99.3961 126.748C99.5853 126.816 99.7474 126.917 99.8821 127.052C100.017 127.186 100.12 127.347 100.191 127.535C100.262 127.723 100.304 127.927 100.318 128.146L100.458 130.311L98.8779 130.436L98.9259 131.178L102.914 130.863L102.866 130.121L101.437 130.234L101.202 126.605L102.482 126.504L102.434 125.762Z" fill="#FFFCE5"/>
<path d="M83.353 132.41L85.2846 132.257L87.1241 126.973L85.9702 127.064L84.3701 131.956L84.2196 131.968L82.0068 127.378L80.8529 127.469L83.353 132.41Z" fill="#FFFCE5"/>
<path d="M78.5092 130.472C78.5169 130.983 78.351 131.407 78.0115 131.744C77.6719 132.082 77.1802 132.276 76.5363 132.327C76.2437 132.35 75.9869 132.343 75.7659 132.305C75.545 132.267 75.3561 132.206 75.1994 132.122C75.0343 132.038 74.9018 131.938 74.8018 131.822C74.693 131.699 74.6047 131.568 74.5369 131.429L73.622 131.708C73.8283 132.168 74.1795 132.531 74.6756 132.796C75.163 133.054 75.808 133.151 76.6107 133.088C77.0539 133.053 77.4596 132.959 77.8279 132.805C78.1874 132.646 78.4933 132.438 78.7458 132.184C78.9983 131.929 79.1893 131.634 79.319 131.299C79.4486 130.964 79.5008 130.601 79.4755 130.209L79.4595 129.962C79.4364 129.605 79.3396 129.277 79.1691 128.98C78.9903 128.683 78.7558 128.436 78.4657 128.238C78.1751 128.033 77.8418 127.883 77.4659 127.788C77.0812 127.688 76.6715 127.654 76.2366 127.689C75.7266 127.729 75.2927 127.843 74.935 128.03C74.5685 128.211 74.2755 128.424 74.056 128.669C73.8282 128.915 73.6686 129.177 73.5772 129.453C73.4775 129.73 73.4349 129.982 73.4496 130.209L73.4922 130.869L78.5092 130.472ZM76.2859 128.452C76.5619 128.43 76.8235 128.447 77.0709 128.503C77.3095 128.554 77.5249 128.637 77.7173 128.753C77.9014 128.869 78.0577 129.013 78.1863 129.182C78.3061 129.345 78.3894 129.528 78.4361 129.732L74.4225 130.049C74.4251 129.828 74.4791 129.624 74.5846 129.436C74.6817 129.248 74.8183 129.086 74.9943 128.947C75.1619 128.81 75.3605 128.697 75.5902 128.61C75.8115 128.524 76.0434 128.471 76.2859 128.452Z" fill="#FFFCE5"/>
<path d="M70.7151 133.409L71.6934 133.332L71.2273 126.117L70.249 126.194L70.4448 129.224L70.2942 129.236C70.0806 128.922 69.7962 128.682 69.4409 128.516C69.0773 128.352 68.6446 128.289 68.1429 128.329C67.4656 128.382 66.9299 128.611 66.5358 129.015C66.1329 129.413 65.9552 129.98 66.0027 130.715L66.1999 133.766L67.1782 133.689L66.9917 130.803C66.9571 130.267 67.0774 129.853 67.3528 129.562C67.6281 129.271 68.0166 129.106 68.5183 129.066C69.112 129.019 69.5911 129.15 69.9557 129.46C70.3115 129.763 70.5074 130.193 70.5433 130.75L70.7151 133.409Z" fill="#FFFCE5"/>
<path d="M61.6532 127.454C61.6403 127.255 61.5459 127.093 61.3697 126.969C61.1848 126.838 60.9711 126.783 60.7286 126.802C60.4861 126.821 60.2859 126.909 60.128 127.067C59.9613 127.218 59.8844 127.393 59.8973 127.593C59.9101 127.792 60.0091 127.957 60.194 128.087C60.3701 128.212 60.5794 128.264 60.8219 128.245C61.0644 128.226 61.269 128.14 61.4357 127.989C61.5936 127.832 61.6661 127.653 61.6532 127.454ZM63.8152 133.209L61.6328 133.381L61.3984 129.753L63.355 129.599L63.307 128.856L60.3721 129.089L60.6545 133.459L58.6226 133.62L58.6706 134.362L63.8631 133.951L63.8152 133.209Z" fill="#FFFCE5"/>
<path d="M50.3969 133.193C50.482 133.469 50.616 133.721 50.7987 133.948C50.9731 134.176 51.1915 134.37 51.4539 134.528C51.7159 134.68 52.0172 134.791 52.3579 134.861C52.6986 134.931 53.0738 134.949 53.4835 134.917C53.9183 134.883 54.3284 134.791 54.7139 134.644C55.091 134.496 55.4187 134.301 55.6972 134.058C55.9752 133.808 56.1915 133.515 56.3463 133.178C56.4926 132.842 56.5523 132.464 56.5252 132.045L56.5172 131.921C56.4906 131.509 56.383 131.144 56.1944 130.828C55.9975 130.512 55.7454 130.252 55.4381 130.049C55.1308 129.845 54.7808 129.696 54.3882 129.603C53.9872 129.511 53.5693 129.481 53.1345 129.516C52.7415 129.547 52.3809 129.624 52.0526 129.746C51.7244 129.869 51.4406 130.03 51.2013 130.228C50.9532 130.42 50.7575 130.643 50.6141 130.896C50.4624 131.15 50.3664 131.42 50.3261 131.706L51.3164 131.815C51.33 131.634 51.3816 131.457 51.4713 131.284C51.5521 131.105 51.6722 130.947 51.8314 130.81C51.9819 130.667 52.1717 130.549 52.4009 130.454C52.6302 130.36 52.8995 130.301 53.2089 130.277C53.5099 130.253 53.7973 130.278 54.0711 130.353C54.3361 130.422 54.5745 130.535 54.7862 130.691C54.9976 130.84 55.1693 131.026 55.3015 131.251C55.4253 131.476 55.496 131.726 55.5138 132.001L55.5218 132.124C55.5404 132.413 55.503 132.678 55.4094 132.921C55.3069 133.157 55.1605 133.362 54.97 133.535C54.7796 133.709 54.5534 133.852 54.2916 133.962C54.0294 134.066 53.7436 134.13 53.4342 134.154C53.1248 134.179 52.8548 134.162 52.6241 134.104C52.3847 134.04 52.1815 133.953 52.0147 133.842C51.839 133.724 51.6999 133.587 51.5972 133.429C51.4862 133.272 51.4082 133.106 51.3633 132.93L50.3969 133.193Z" fill="#FFFCE5"/>
<path d="M48.6061 134.412L46.3484 134.59L45.9782 128.859L48.1605 128.687L48.1126 127.945L44.9519 128.195L45.3701 134.668L43.1125 134.846L43.1604 135.588L48.654 135.154L48.6061 134.412Z" fill="#FFFCE5"/>
<path d="M40.1101 133.509C40.1179 134.019 39.952 134.443 39.6124 134.781C39.2729 135.119 38.7811 135.313 38.1373 135.364C37.8446 135.387 37.5878 135.38 37.3669 135.342C37.1459 135.304 36.9571 135.243 36.8004 135.159C36.6353 135.075 36.5027 134.975 36.4028 134.859C36.294 134.736 36.2057 134.605 36.1378 134.465L35.223 134.745C35.4292 135.205 35.7804 135.568 36.2766 135.832C36.7639 136.091 37.4089 136.188 38.2117 136.125C38.6548 136.09 39.0606 135.995 39.4288 135.842C39.7883 135.682 40.0943 135.475 40.3468 135.22C40.5992 134.965 40.7903 134.671 40.9199 134.336C41.0496 134.001 41.1018 133.638 41.0765 133.246L41.0605 132.999C41.0374 132.641 40.9406 132.314 40.7701 132.017C40.5912 131.72 40.3568 131.473 40.0666 131.275C39.776 131.07 39.4428 130.92 39.0669 130.825C38.6822 130.724 38.2724 130.691 37.8376 130.726C37.3275 130.766 36.8937 130.88 36.536 131.067C36.1695 131.248 35.8765 131.461 35.657 131.706C35.4292 131.952 35.2695 132.213 35.1782 132.49C35.0784 132.767 35.0359 133.019 35.0505 133.246L35.0931 133.906L40.1101 133.509ZM37.8869 131.488C38.1628 131.467 38.4245 131.484 38.6719 131.54C38.9104 131.59 39.1259 131.674 39.3183 131.79C39.5023 131.906 39.6586 132.049 39.7872 132.219C39.907 132.382 39.9903 132.565 40.0371 132.769L36.0235 133.086C36.026 132.865 36.08 132.66 36.1856 132.472C36.2827 132.285 36.4193 132.122 36.5952 131.984C36.7628 131.847 36.9615 131.734 37.1912 131.647C37.4125 131.56 37.6444 131.508 37.8869 131.488Z" fill="#FFFCE5"/>
</svg>
