<svg width="296" height="393" viewBox="0 0 296 393" fill="none" xmlns="http://www.w3.org/2000/svg">
<path d="M19.3851 5.30309L157.968 70.4538L146.354 92.8447L10.522 22.3908L19.3851 5.30309Z" fill="#EB4C37"/>
<path d="M24.0793 12.2603L31.3192 16.0155L30.8481 16.9237L27.8462 15.3666L24.0899 22.6087L22.8538 21.9676L26.6101 14.7255L23.6083 13.1685L24.0793 12.2603Z" fill="#FFFCE5"/>
<path d="M31.8428 19.3013L34.4915 20.6752L34.0929 21.4436L34.2695 21.5352C34.621 21.3136 35.0066 21.2181 35.4265 21.2488C35.8504 21.2716 36.283 21.3975 36.7245 21.6265C37.4602 22.0081 37.9551 22.5061 38.2091 23.1205C38.4631 23.735 38.4156 24.4146 38.0665 25.1595L36.7874 24.6734C37.0652 24.1378 37.1027 23.6696 36.8997 23.2688C36.7008 22.8603 36.3659 22.5339 35.895 22.2896C35.5909 22.1319 35.3018 22.0411 35.0279 22.0172C34.7638 21.9984 34.5158 22.0324 34.2841 22.119C34.0524 22.2057 33.8459 22.3399 33.6645 22.5216C33.4831 22.7034 33.328 22.9184 33.1991 23.1668L31.9309 25.6119L33.785 26.5736L33.3502 27.4119L28.6708 24.9848L29.1056 24.1464L30.7831 25.0165L32.9089 20.9181L31.408 20.1396L31.8428 19.3013Z" fill="#FFFCE5"/>
<path d="M44.0743 31.7331L43.8977 31.6415C43.461 31.9075 42.9834 32.0243 42.4649 31.9918C41.9563 31.9644 41.4714 31.8311 41.0103 31.5919C40.5296 31.3426 40.1155 31.049 39.7679 30.7111C39.4243 30.3654 39.16 29.987 38.9749 29.5757C38.8036 29.1619 38.7243 28.7267 38.737 28.2703C38.7496 27.8139 38.8807 27.345 39.1304 26.8638L39.227 26.6775C39.4726 26.204 39.7783 25.8306 40.1441 25.5574C40.5099 25.2842 40.9093 25.1022 41.3422 25.0116C41.789 24.9183 42.2526 24.9125 42.7331 24.9942C43.2136 25.076 43.6843 25.2364 44.1454 25.4756C44.6457 25.7351 45.0507 26.0584 45.3603 26.4456C45.6838 26.8301 45.8686 27.2658 45.9148 27.7527L46.0914 27.8443L46.5624 26.9361L47.7102 27.5315L45.3308 32.1189C45.21 32.3518 45.2821 32.5369 45.5469 32.6743L45.9148 32.8651L45.48 33.7034L44.7001 33.2989C44.3666 33.1259 44.1362 32.898 44.0089 32.6153C43.8915 32.3377 43.9012 32.0669 44.0381 31.803L44.0743 31.7331ZM41.575 30.7914C41.9183 30.9695 42.2584 31.0818 42.5952 31.1285C42.9419 31.1802 43.2665 31.1664 43.5692 31.087C43.8718 31.0075 44.1484 30.8703 44.399 30.6752C44.6536 30.4723 44.8634 30.2118 45.0285 29.8935L45.101 29.7538C45.262 29.4433 45.3501 29.1295 45.3652 28.8122C45.3844 28.4873 45.3344 28.1757 45.2152 27.8774C45.1058 27.5843 44.9301 27.3109 44.6882 27.0574C44.46 26.8011 44.1792 26.5865 43.8457 26.4135C43.5023 26.2354 43.1622 26.1231 42.8254 26.0764C42.4886 26.0297 42.1639 26.0436 41.8515 26.1179C41.5529 26.1896 41.2762 26.3269 41.0216 26.5297C40.7711 26.7248 40.5652 26.9776 40.4042 27.2881L40.3076 27.4744C39.9653 28.1342 39.9134 28.7623 40.1518 29.3588C40.4041 29.9526 40.8784 30.4301 41.575 30.7914Z" fill="#FFFCE5"/>
<path d="M50.2016 28.8237L52.453 29.9914L53.2139 28.5244C53.3508 28.2605 53.5666 28.0966 53.8611 28.0327C54.1655 27.9738 54.4845 28.0309 54.8181 28.2039L57.7022 29.6999L57.2674 30.5382L54.7953 29.256C54.5304 29.1186 54.3376 29.1663 54.2168 29.3992L53.6008 30.5868L56.6468 32.1667L56.212 33.005L53.166 31.4251L50.6054 36.3618L49.4576 35.7665L52.0182 30.8298L49.7668 29.662L50.2016 28.8237Z" fill="#FFFCE5"/>
<path d="M64.5495 34.0789C64.6663 33.8538 64.863 33.7145 65.1397 33.661C65.4303 33.6049 65.7178 33.6506 66.0023 33.7982C66.2868 33.9457 66.4849 34.1519 66.5966 34.4167C66.722 34.6788 66.7264 34.9224 66.6097 35.1475C66.4929 35.3726 66.2892 35.5132 65.9987 35.5693C65.722 35.6228 65.4413 35.5758 65.1569 35.4282C64.8724 35.2806 64.6674 35.0758 64.5419 34.8137C64.4302 34.5489 64.4328 34.304 64.5495 34.0789ZM61.1312 41.8214L63.6918 36.8847L61.1461 35.5642L58.5855 40.501L57.4377 39.9056L59.9983 34.9689L58.2766 34.0759L58.7114 33.2376L60.4331 34.1306L61.0733 32.8964C61.2101 32.6325 61.4259 32.4686 61.7205 32.4047C62.0249 32.3458 62.3438 32.4029 62.6774 32.5759L64.2372 33.385L63.8024 34.2233L62.6546 33.628C62.3897 33.4906 62.1969 33.5383 62.0761 33.7712L61.5809 34.7259L65.2744 36.6417L62.279 42.4167L61.1312 41.8214Z" fill="#FFFCE5"/>
<path d="M73.1908 45.476C72.9473 45.7535 72.6569 45.9772 72.3198 46.1472C71.9925 46.3222 71.6294 46.4342 71.2304 46.4834C70.8354 46.5248 70.4136 46.4981 69.9648 46.4032C69.516 46.3084 69.0513 46.1363 68.5706 45.8869C68.0605 45.6223 67.6091 45.3045 67.2165 44.9334C66.8336 44.5674 66.535 44.1711 66.3205 43.7446C66.11 43.3104 65.9963 42.8574 65.9795 42.3857C65.9726 41.9192 66.0919 41.4491 66.3375 40.9756L66.4099 40.8359C66.6515 40.3702 66.967 40.0019 67.3565 39.7311C67.7557 39.4654 68.1935 39.2935 68.6697 39.2154C69.1459 39.1373 69.6459 39.1455 70.1696 39.2398C70.7031 39.3393 71.225 39.5213 71.7351 39.7859C72.1962 40.025 72.5947 40.3007 72.9308 40.6129C73.2668 40.9251 73.5297 41.2584 73.7193 41.6129C73.9227 41.9647 74.0472 42.3248 74.0927 42.6931C74.148 43.0666 74.1274 43.4302 74.031 43.7841L72.7745 43.3983C72.8498 43.1813 72.8769 42.949 72.8558 42.7017C72.8485 42.4517 72.783 42.2059 72.6593 41.9644C72.5494 41.7203 72.3792 41.4842 72.1488 41.2564C71.9184 41.0285 71.6218 40.8205 71.2588 40.6322C70.9056 40.449 70.5439 40.3304 70.1736 40.2762C69.8172 40.2194 69.4709 40.2269 69.1348 40.2989C68.8027 40.363 68.4996 40.4915 68.2253 40.6841C67.9609 40.8819 67.7482 41.136 67.5871 41.4465L67.5147 41.5862C67.3456 41.9122 67.2564 42.2403 67.247 42.5703C67.2515 42.8977 67.3251 43.2117 67.468 43.5124C67.6108 43.813 67.813 44.0952 68.0746 44.359C68.3402 44.6149 68.6545 44.8371 69.0175 45.0253C69.3805 45.2136 69.7165 45.3337 70.0257 45.3857C70.3487 45.4351 70.6396 45.4382 70.8985 45.3952C71.1712 45.3494 71.4098 45.2614 71.6143 45.1311C71.8287 45.0059 72.0078 44.8525 72.1517 44.6711L73.1908 45.476Z" fill="#FFFCE5"/>
<path d="M85.9038 47.3418L88.5526 48.7156L88.154 49.4841L88.3306 49.5757C88.682 49.3541 89.0677 49.2586 89.4875 49.2892C89.9114 49.3121 90.3441 49.438 90.7855 49.667C91.5213 50.0486 92.0162 50.5466 92.2701 51.161C92.5241 51.7754 92.4766 52.4551 92.1276 53.2L90.8485 52.7139C91.1263 52.1783 91.1637 51.7101 90.9608 51.3093C90.7618 50.9008 90.4269 50.5744 89.956 50.3301C89.6519 50.1724 89.3629 50.0816 89.0889 50.0577C88.8248 50.0389 88.5769 50.0728 88.3452 50.1595C88.1135 50.2462 87.9069 50.3804 87.7255 50.5621C87.5441 50.7438 87.389 50.9589 87.2602 51.2073L85.992 53.6524L87.8461 54.6141L87.4113 55.4524L82.7318 53.0252L83.1666 52.1869L84.8442 53.057L86.97 48.9586L85.469 48.1801L85.9038 47.3418Z" fill="#FFFCE5"/>
<path d="M100.535 54.9308L101.683 55.5261L98.6876 61.3012L97.5398 60.7059L98.0833 59.658L97.9067 59.5664C97.478 59.8168 97.016 59.9515 96.5207 59.9704C96.0254 59.9893 95.4834 59.8461 94.8948 59.5408C94.4926 59.3322 94.148 59.0845 93.861 58.7977C93.5798 58.5238 93.3709 58.2185 93.2344 57.8817C93.1076 57.55 93.0561 57.1933 93.0798 56.8116C93.1133 56.4349 93.2368 56.0409 93.4502 55.6295L95.2377 52.1831L96.3855 52.7784L94.6583 56.1084C94.3443 56.7139 94.2718 57.2377 94.4407 57.68C94.6097 58.1222 95.018 58.5113 95.6654 58.8471C96.3619 59.2084 97.003 59.3045 97.5887 59.1355C98.1882 58.9637 98.651 58.5635 98.9771 57.9348L100.535 54.9308Z" fill="#FFFCE5"/>
<path d="M101.776 61.839L104.424 63.2129L107.782 56.7393L105.222 55.4112L105.656 54.5729L109.365 56.4963L105.572 63.8082L108.221 65.1821L107.786 66.0204L101.341 62.6774L101.776 61.839Z" fill="#FFFCE5"/>
<path d="M112.542 65.1777C112.274 65.7674 112.26 66.3463 112.501 66.9144C112.741 67.4825 113.239 67.9624 113.995 68.3542C114.338 68.5323 114.653 68.6565 114.941 68.7267C115.228 68.7969 115.488 68.8234 115.721 68.8063C115.964 68.7944 116.175 68.7465 116.356 68.6627C116.55 68.5763 116.724 68.4694 116.877 68.342L117.845 69.1397C117.361 69.5684 116.751 69.8085 116.015 69.86C115.292 69.9089 114.46 69.689 113.518 69.2006C112.999 68.9309 112.554 68.6117 112.185 68.243C111.83 67.8716 111.564 67.4726 111.387 67.0458C111.21 66.6191 111.128 66.1775 111.14 65.7211C111.153 65.2647 111.274 64.8153 111.503 64.3728L111.648 64.0934C111.858 63.6898 112.141 63.3591 112.499 63.1014C112.867 62.8488 113.277 62.6822 113.729 62.6017C114.186 62.5135 114.666 62.5115 115.17 62.5956C115.688 62.6771 116.202 62.8502 116.712 63.1148C117.311 63.4252 117.78 63.7816 118.119 64.184C118.471 64.5837 118.719 64.9829 118.861 65.3815C119.012 65.7852 119.073 66.1715 119.044 66.5404C119.024 66.9144 118.948 67.2294 118.815 67.4856L118.429 68.2307L112.542 65.1777ZM116.266 63.9764C115.942 63.8085 115.616 63.6934 115.287 63.6312C114.972 63.5664 114.668 63.5517 114.376 63.5873C114.093 63.6279 113.831 63.7135 113.589 63.8441C113.361 63.972 113.167 64.1422 113.007 64.3547L117.716 66.7971C117.825 66.5385 117.863 66.2727 117.83 65.9997C117.808 65.7317 117.724 65.4719 117.581 65.2202C117.448 64.9737 117.264 64.7403 117.029 64.5202C116.805 64.3052 116.55 64.1239 116.266 63.9764Z" fill="#FFFCE5"/>
<path d="M123.099 68.5256C122.954 68.8051 122.991 69.0948 123.209 69.395C123.436 69.7002 123.935 70.0822 124.706 70.5409C125.531 71.0379 126.094 71.5368 126.394 72.0374C126.709 72.5354 126.733 73.0405 126.467 73.5528L126.431 73.6227C126.286 73.9021 126.082 74.1162 125.818 74.265C125.568 74.4111 125.275 74.4956 124.939 74.5186C124.614 74.5466 124.249 74.5053 123.846 74.3947C123.448 74.2969 123.039 74.1386 122.617 73.9198C122.048 73.6247 121.588 73.312 121.236 72.9819C120.898 72.6491 120.642 72.3144 120.468 71.9779C120.308 71.6387 120.224 71.3092 120.215 70.9896C120.211 70.6622 120.265 70.3654 120.378 70.099L121.576 70.4543C121.396 70.9222 121.426 71.3912 121.668 71.8613C121.914 72.3236 122.355 72.7202 122.993 73.0509C123.532 73.3308 124.006 73.4732 124.415 73.4781C124.837 73.4803 125.126 73.3301 125.283 73.0274C125.452 72.7013 125.411 72.3845 125.16 72.0769C124.909 71.7692 124.43 71.4078 123.724 70.9924C122.905 70.5082 122.338 70.0172 122.024 69.5192C121.709 69.0212 121.683 68.52 121.945 68.0154L121.981 67.9456C122.122 67.6739 122.318 67.4753 122.57 67.3498C122.826 67.2166 123.113 67.1437 123.43 67.1312C123.758 67.1237 124.097 67.1665 124.447 67.2595C124.797 67.3524 125.144 67.488 125.487 67.6661C125.968 67.9154 126.361 68.1885 126.668 68.4855C126.979 68.7746 127.212 69.0682 127.369 69.3662C127.53 69.6564 127.618 69.9433 127.632 70.2267C127.657 70.5153 127.632 70.7785 127.559 71.0162L126.361 70.6609C126.506 70.2629 126.465 69.8726 126.24 69.49C126.025 69.1125 125.653 68.7864 125.123 68.5116C124.917 68.4048 124.706 68.3199 124.49 68.2569C124.287 68.1913 124.094 68.1552 123.911 68.1488C123.728 68.1423 123.564 68.1705 123.419 68.2334C123.278 68.2885 123.172 68.3859 123.099 68.5256Z" fill="#FFFCE5"/>
<path d="M1.64528 294.395L147.099 246.51L154.046 270.758L6.94673 312.9L1.64528 294.395Z" fill="#EB4C37"/>
<path d="M9.8362 296.224L17.6766 293.978L17.9584 294.962L14.7075 295.893L16.9543 303.736L15.6157 304.119L13.3689 296.276L10.118 297.208L9.8362 296.224Z" fill="#FFFCE5"/>
<path d="M20.3147 296.006L23.1832 295.184L23.4216 296.016L23.6128 295.961C23.7159 295.559 23.9305 295.225 24.2566 294.958C24.5803 294.684 24.9811 294.478 25.4592 294.341C26.256 294.113 26.9577 294.134 27.5644 294.406C28.1711 294.678 28.6036 295.205 28.8619 295.986L27.5985 296.511C27.4323 295.931 27.1378 295.565 26.715 295.414C26.2897 295.254 25.8221 295.247 25.3122 295.393C24.9829 295.487 24.7105 295.62 24.495 295.79C24.2902 295.958 24.1334 296.153 24.0246 296.375C23.9158 296.598 23.8579 296.837 23.851 297.094C23.8441 297.35 23.8791 297.613 23.9562 297.882L24.7148 300.53L26.7227 299.955L26.9828 300.863L21.9152 302.315L21.6551 301.407L23.4718 300.886L22.2003 296.448L20.5748 296.914L20.3147 296.006Z" fill="#FFFCE5"/>
<path d="M37.7436 296.634L37.5524 296.689C37.4178 297.182 37.151 297.595 36.752 297.928C36.3636 298.257 35.9197 298.493 35.4204 298.637C34.8998 298.786 34.3972 298.857 33.9125 298.85C33.4253 298.835 32.9732 298.742 32.5562 298.57C32.1474 298.387 31.7908 298.125 31.4864 297.785C31.182 297.445 30.9551 297.014 30.8058 296.493L30.748 296.291C30.6011 295.778 30.5667 295.297 30.6447 294.847C30.7228 294.397 30.8879 293.991 31.1402 293.627C31.4007 293.253 31.7336 292.93 32.1388 292.659C32.5441 292.388 32.9964 292.182 33.4957 292.039C34.0375 291.883 34.5539 291.84 35.0449 291.909C35.5441 291.966 35.9777 292.155 36.3459 292.477L36.5371 292.422L36.2554 291.439L37.4983 291.083L38.9216 296.051C38.9938 296.303 39.1734 296.388 39.4602 296.306L39.8586 296.192L40.1187 297.1L39.2741 297.341C38.9129 297.445 38.5889 297.438 38.3022 297.32C38.0262 297.199 37.8472 296.995 37.7653 296.71L37.7436 296.634ZM35.2806 297.667C35.6524 297.56 35.9767 297.408 36.2535 297.211C36.5409 297.01 36.7673 296.777 36.9326 296.511C37.0979 296.246 37.2046 295.956 37.2526 295.642C37.2982 295.32 37.2716 294.986 37.1729 294.642L37.1295 294.49C37.0332 294.154 36.8816 293.866 36.6746 293.625C36.4652 293.375 36.2148 293.183 35.9233 293.049C35.6424 292.911 35.3269 292.833 34.9769 292.815C34.6351 292.785 34.2836 292.822 33.9224 292.926C33.5505 293.032 33.2262 293.184 32.9494 293.382C32.6727 293.58 32.4463 293.813 32.2704 294.081C32.1027 294.339 31.996 294.628 31.9504 294.951C31.9024 295.265 31.9265 295.59 32.0229 295.926L32.0807 296.128C32.2854 296.842 32.6792 297.334 33.2623 297.604C33.8535 297.862 34.5263 297.883 35.2806 297.667Z" fill="#FFFCE5"/>
<path d="M40.1963 290.31L42.6345 289.611L42.1794 288.023C42.0975 287.737 42.1416 287.47 42.3117 287.221C42.4925 286.969 42.7635 286.791 43.1247 286.688L46.2481 285.793L46.5082 286.701L43.831 287.468C43.5441 287.55 43.4368 287.717 43.5091 287.969L43.8775 289.255L47.1762 288.31L47.4363 289.218L44.1376 290.163L45.6692 295.509L44.4262 295.865L42.8946 290.519L40.4564 291.218L40.1963 290.31Z" fill="#FFFCE5"/>
<path d="M54.2319 284.27C54.162 284.026 54.2093 283.789 54.3736 283.56C54.5461 283.32 54.7864 283.156 55.0945 283.067C55.4026 282.979 55.6882 282.993 55.9512 283.109C56.2225 283.213 56.3931 283.387 56.4629 283.63C56.5327 283.874 56.4814 284.116 56.3089 284.357C56.1445 284.586 55.9083 284.744 55.6002 284.833C55.2922 284.921 55.0025 284.913 54.7312 284.809C54.4682 284.693 54.3017 284.513 54.2319 284.27ZM57.0681 292.244L55.5365 286.898L52.7796 287.687L54.3113 293.034L53.0683 293.39L51.5367 288.043L49.6722 288.578L49.4121 287.67L51.2766 287.136L50.8937 285.799C50.8118 285.513 50.8559 285.246 51.026 284.997C51.2068 284.745 51.4777 284.567 51.839 284.464L53.5282 283.98L53.7882 284.888L52.5452 285.244C52.2584 285.326 52.1511 285.493 52.2233 285.746L52.5196 286.779L56.5194 285.634L58.3111 291.888L57.0681 292.244Z" fill="#FFFCE5"/>
<path d="M68.3413 286.613C68.355 286.982 68.2978 287.344 68.1696 287.699C68.052 288.051 67.8652 288.382 67.6091 288.692C67.3506 288.993 67.0257 289.264 66.6345 289.503C66.2432 289.743 65.7873 289.937 65.2668 290.086C64.7143 290.244 64.168 290.323 63.6277 290.324C63.0981 290.321 62.6088 290.238 62.1599 290.076C61.7086 289.905 61.3148 289.654 60.9785 289.322C60.6529 288.988 60.4166 288.565 60.2697 288.052L60.2263 287.901C60.0818 287.396 60.058 286.912 60.1549 286.448C60.2624 285.98 60.4624 285.555 60.7547 285.171C61.0471 284.787 61.4159 284.449 61.8613 284.158C62.3173 283.863 62.8215 283.637 63.3739 283.479C63.8732 283.336 64.3522 283.262 64.8109 283.258C65.2696 283.254 65.6896 283.316 66.0709 283.443C66.4604 283.559 66.7983 283.735 67.0844 283.971C67.3812 284.205 67.6161 284.483 67.7892 284.806L66.6113 285.389C66.5168 285.18 66.3769 284.993 66.1916 284.827C66.0145 284.651 65.7981 284.517 65.5423 284.427C65.2947 284.325 65.0089 284.27 64.6849 284.263C64.361 284.256 64.0024 284.308 63.6093 284.421C63.2269 284.531 62.8825 284.693 62.5763 284.908C62.2783 285.112 62.0319 285.355 61.8371 285.638C61.6399 285.913 61.5079 286.215 61.441 286.543C61.3848 286.868 61.4049 287.199 61.5012 287.535L61.5445 287.687C61.6457 288.04 61.8062 288.339 62.0262 288.586C62.2544 288.821 62.5237 288.998 62.8341 289.118C63.1444 289.239 63.4853 289.305 63.8565 289.317C64.2254 289.32 64.6064 289.266 64.9994 289.153C65.3925 289.04 65.7193 288.897 65.9796 288.722C66.2482 288.536 66.4617 288.338 66.6202 288.129C66.7869 287.909 66.8998 287.681 66.9589 287.445C67.0286 287.207 67.0534 286.973 67.0333 286.742L68.3413 286.613Z" fill="#FFFCE5"/>
<path d="M78.86 279.233L81.7285 278.412L81.9669 279.244L82.1581 279.189C82.2612 278.786 82.4758 278.452 82.8019 278.186C83.1256 277.911 83.5264 277.705 84.0045 277.568C84.8013 277.34 85.5031 277.362 86.1098 277.634C86.7164 277.906 87.1489 278.432 87.4072 279.213L86.1438 279.739C85.9776 279.159 85.6831 278.793 85.2603 278.641C84.835 278.481 84.3674 278.474 83.8575 278.62C83.5282 278.715 83.2558 278.847 83.0403 279.018C82.8355 279.186 82.6787 279.381 82.5699 279.603C82.4611 279.825 82.4033 280.065 82.3963 280.321C82.3894 280.578 82.4244 280.841 82.5015 281.11L83.2601 283.758L85.268 283.183L85.5281 284.09L80.4605 285.542L80.2004 284.634L82.0171 284.114L80.7456 279.675L79.1201 280.141L78.86 279.233Z" fill="#FFFCE5"/>
<path d="M94.705 274.694L95.948 274.338L97.7397 280.592L96.4967 280.948L96.1716 279.813L95.9804 279.868C95.841 280.345 95.5979 280.76 95.251 281.114C94.9041 281.468 94.4119 281.736 93.7745 281.919C93.3389 282.044 92.9184 282.101 92.5128 282.089C92.1203 282.084 91.7587 282.005 91.4281 281.854C91.1081 281.7 90.8256 281.477 90.5805 281.183C90.3461 280.886 90.165 280.515 90.0374 280.07L88.9682 276.337L90.2112 275.981L91.2443 279.588C91.4321 280.243 91.7394 280.674 92.166 280.879C92.5927 281.084 93.1566 281.086 93.8578 280.885C94.6121 280.669 95.1439 280.299 95.4532 279.773C95.7708 279.237 95.8321 278.628 95.637 277.947L94.705 274.694Z" fill="#FFFCE5"/>
<path d="M100.353 278.861L103.221 278.039L101.213 271.029L98.4401 271.823L98.18 270.915L102.196 269.765L104.464 277.683L107.333 276.861L107.593 277.769L100.613 279.769L100.353 278.861Z" fill="#FFFCE5"/>
<path d="M110.47 273.889C110.68 274.502 111.067 274.932 111.633 275.179C112.198 275.427 112.889 275.433 113.708 275.199C114.079 275.092 114.394 274.966 114.651 274.819C114.908 274.673 115.115 274.514 115.272 274.341C115.441 274.166 115.561 273.985 115.635 273.801C115.717 273.604 115.769 273.407 115.793 273.21L117.045 273.124C116.988 273.768 116.709 274.361 116.21 274.905C115.718 275.437 114.963 275.849 113.943 276.141C113.38 276.302 112.838 276.376 112.316 276.361C111.803 276.336 111.336 276.228 110.914 276.04C110.492 275.852 110.129 275.587 109.824 275.247C109.52 274.907 109.299 274.497 109.162 274.018L109.075 273.715C108.95 273.278 108.929 272.843 109.012 272.41C109.105 271.974 109.288 271.571 109.562 271.202C109.833 270.824 110.181 270.492 110.605 270.207C111.037 269.91 111.53 269.683 112.082 269.525C112.73 269.339 113.315 269.276 113.838 269.335C114.369 269.383 114.823 269.503 115.2 269.696C115.588 269.885 115.898 270.123 116.13 270.412C116.372 270.697 116.533 270.978 116.613 271.256L116.844 272.063L110.47 273.889ZM112.349 270.458C111.999 270.558 111.683 270.699 111.401 270.88C111.128 271.049 110.897 271.247 110.709 271.473C110.532 271.697 110.4 271.939 110.314 272.201C110.236 272.45 110.212 272.707 110.242 272.972L115.341 271.511C115.243 271.248 115.088 271.028 114.877 270.853C114.676 270.674 114.437 270.542 114.16 270.458C113.893 270.37 113.599 270.327 113.278 270.328C112.967 270.326 112.657 270.37 112.349 270.458Z" fill="#FFFCE5"/>
<path d="M120.44 269.068C120.527 269.37 120.752 269.556 121.117 269.624C121.492 269.69 122.117 269.624 122.992 269.428C123.933 269.222 124.685 269.198 125.247 269.355C125.818 269.501 126.183 269.851 126.342 270.406L126.363 270.482C126.45 270.784 126.449 271.08 126.359 271.37C126.278 271.648 126.123 271.91 125.895 272.157C125.678 272.402 125.384 272.622 125.015 272.819C124.659 273.021 124.253 273.187 123.796 273.318C123.18 273.495 122.631 273.584 122.148 273.586C121.674 273.576 121.258 273.509 120.901 273.384C120.551 273.247 120.264 273.066 120.038 272.839C119.81 272.605 119.645 272.352 119.544 272.08L120.659 271.516C120.849 271.979 121.194 272.299 121.692 272.475C122.188 272.642 122.782 272.626 123.472 272.429C124.057 272.261 124.499 272.039 124.799 271.762C125.107 271.474 125.214 271.166 125.12 270.838C125.019 270.485 124.772 270.283 124.378 270.232C123.984 270.181 123.388 270.247 122.589 270.43C121.661 270.642 120.912 270.674 120.341 270.529C119.771 270.383 119.407 270.037 119.251 269.49L119.229 269.415C119.145 269.12 119.151 268.841 119.248 268.577C119.342 268.304 119.5 268.054 119.723 267.827C119.956 267.597 120.231 267.395 120.549 267.222C120.868 267.049 121.213 266.909 121.585 266.802C122.105 266.653 122.579 266.581 123.006 266.586C123.43 266.583 123.801 266.636 124.12 266.745C124.436 266.845 124.697 266.993 124.903 267.189C125.119 267.382 125.282 267.59 125.392 267.813L124.278 268.378C124.109 267.989 123.811 267.733 123.385 267.61C122.969 267.483 122.475 267.502 121.901 267.667C121.678 267.731 121.466 267.814 121.266 267.917C121.074 268.008 120.909 268.115 120.771 268.236C120.633 268.357 120.534 268.491 120.472 268.636C120.407 268.772 120.397 268.916 120.44 269.068Z" fill="#FFFCE5"/>
<path d="M226.506 37.8788L298.446 73.778L314.809 85.2446L306.288 92.3012L221.036 49.3016L226.506 37.8788Z" fill="#FFCC3E"/>
<path d="M232.061 46.1098C232.159 45.9052 232.203 45.7044 232.194 45.5076C232.19 45.3136 232.144 45.1324 232.054 44.9637C231.965 44.7951 231.843 44.6405 231.688 44.4999C231.534 44.3593 231.357 44.2414 231.158 44.1463C230.984 44.0627 230.807 44.0075 230.627 43.9807C230.451 43.948 230.279 43.9434 230.112 43.9672C229.951 43.9938 229.805 44.053 229.672 44.1448C229.542 44.2306 229.438 44.3548 229.36 44.5173L229.334 44.5714C229.251 44.746 229.215 44.9138 229.227 45.0747C229.241 45.2297 229.296 45.3855 229.391 45.542C229.495 45.6955 229.638 45.8527 229.82 46.0138C230.005 46.1688 230.229 46.3351 230.491 46.5127C231.104 46.9321 231.498 47.3611 231.673 47.7999C231.851 48.2326 231.824 48.6898 231.593 49.1713L231.542 49.2796C231.412 49.5505 231.244 49.7772 231.038 49.9598C230.841 50.1393 230.611 50.2656 230.346 50.3388C230.088 50.4148 229.802 50.4331 229.488 50.3937C229.174 50.3543 228.839 50.2496 228.484 50.0796C228.081 49.8865 227.75 49.6578 227.492 49.3936C227.242 49.1262 227.061 48.8398 226.949 48.5343C226.845 48.2256 226.805 47.9069 226.829 47.5782C226.856 47.2434 226.949 46.9105 227.108 46.5795L227.237 46.3086L227.996 46.6718L227.892 46.8884C227.627 47.4422 227.579 47.9295 227.747 48.3505C227.921 48.7744 228.279 49.116 228.821 49.3754C229.291 49.6002 229.692 49.6664 230.024 49.5742C230.366 49.4788 230.619 49.2596 230.783 48.9165L230.809 48.8623C230.968 48.5313 230.965 48.2194 230.802 47.9267C230.645 47.6369 230.311 47.3217 229.801 46.9812C229.502 46.7863 229.243 46.5848 229.025 46.3766C228.815 46.1653 228.654 45.9472 228.539 45.7223C228.428 45.4913 228.372 45.2535 228.37 45.0088C228.369 44.764 228.433 44.5063 228.563 44.2354L228.615 44.1271C228.733 43.8803 228.892 43.6791 229.093 43.5234C229.293 43.3678 229.519 43.2579 229.772 43.1939C230.031 43.1328 230.305 43.1236 230.595 43.1664C230.895 43.2061 231.198 43.2994 231.505 43.4464C231.86 43.6164 232.151 43.8189 232.379 44.0538C232.613 44.2916 232.784 44.5438 232.893 44.8106C233.005 45.0714 233.053 45.3422 233.037 45.623C233.03 45.9007 232.966 46.166 232.845 46.4188L232.663 46.798L231.905 46.4348L232.061 46.1098Z" fill="black"/>
<path d="M235.582 52.3908L235.474 52.3389C235.185 52.5707 234.877 52.6969 234.549 52.7174C234.227 52.7408 233.925 52.6848 233.642 52.5493C233.347 52.4081 233.096 52.2288 232.889 52.0115C232.686 51.7881 232.534 51.534 232.433 51.2492C232.342 50.9612 232.309 50.6499 232.337 50.3151C232.364 49.9803 232.467 49.6264 232.645 49.2532L232.714 49.1087C232.89 48.7416 233.1 48.4425 233.344 48.2115C233.588 47.9805 233.849 47.8133 234.128 47.7101C234.415 47.6037 234.71 47.5598 235.012 47.5785C235.314 47.5973 235.606 47.6744 235.889 47.8098C236.196 47.9568 236.44 48.1586 236.62 48.4152C236.81 48.6686 236.909 48.9714 236.918 49.3235L237.026 49.3753L237.363 48.6711L238.068 49.0083L236.364 52.5655C236.278 52.7461 236.316 52.8753 236.478 52.9531L236.704 53.0611L236.393 53.7112L235.914 53.4821C235.71 53.3841 235.573 53.2372 235.504 53.0413C235.441 52.8484 235.458 52.6496 235.556 52.445L235.582 52.3908ZM234.034 51.9158C234.245 52.0167 234.456 52.0698 234.668 52.0751C234.886 52.0833 235.093 52.0455 235.288 51.9615C235.484 51.8776 235.665 51.7536 235.833 51.5896C236.003 51.4195 236.147 51.2111 236.265 50.9643L236.317 50.856C236.432 50.6152 236.501 50.3782 236.524 50.145C236.55 49.9058 236.531 49.6823 236.468 49.4744C236.411 49.2694 236.311 49.0846 236.168 48.9199C236.033 48.752 235.864 48.6191 235.659 48.5211C235.449 48.4203 235.237 48.3672 235.025 48.3618C234.813 48.3565 234.607 48.3944 234.405 48.4754C234.212 48.5533 234.031 48.6773 233.861 48.8474C233.693 49.0114 233.552 49.2138 233.437 49.4546L233.368 49.599C233.123 50.1106 233.063 50.5743 233.19 50.99C233.325 51.4026 233.607 51.7112 234.034 51.9158Z" fill="black"/>
<path d="M239.596 49.7402L240.977 50.4016L241.522 49.2641C241.62 49.0594 241.764 48.9212 241.954 48.8493C242.15 48.7802 242.35 48.7947 242.554 48.8927L244.324 49.74L244.013 50.3901L242.496 49.6638C242.334 49.586 242.209 49.6374 242.123 49.8179L241.682 50.7388L243.55 51.6337L243.239 52.2837L241.37 51.3889L239.537 55.2169L238.833 54.8797L240.666 51.0517L239.285 50.3903L239.596 49.7402Z" fill="black"/>
<path d="M244.508 55.111C244.313 55.565 244.28 55.9894 244.409 56.3842C244.538 56.779 244.834 57.0873 245.298 57.3092C245.508 57.4101 245.704 57.4739 245.883 57.5007C246.063 57.5275 246.227 57.5247 246.375 57.4923C246.53 57.4628 246.667 57.4097 246.785 57.3331C246.912 57.2533 247.026 57.1603 247.129 57.0541L247.711 57.5545C247.386 57.9093 246.988 58.137 246.518 58.2376C246.057 58.335 245.538 58.2454 244.96 57.9687C244.641 57.8159 244.372 57.6205 244.153 57.3825C243.943 57.1413 243.79 56.8723 243.696 56.5755C243.601 56.2786 243.567 55.9628 243.595 55.628C243.622 55.2933 243.717 54.9543 243.882 54.6113L243.985 54.3946C244.135 54.0816 244.329 53.8156 244.567 53.5966C244.811 53.3805 245.079 53.2237 245.37 53.1262C245.663 53.0227 245.969 52.9802 246.285 52.9987C246.611 53.014 246.93 53.0966 247.243 53.2465C247.61 53.4223 247.893 53.6428 248.092 53.908C248.299 54.1701 248.44 54.4409 248.513 54.7202C248.592 55.0024 248.615 55.2796 248.581 55.5518C248.553 55.8269 248.491 56.0637 248.396 56.2623L248.119 56.8402L244.508 55.111ZM246.923 53.9146C246.725 53.8195 246.522 53.7632 246.316 53.7458C246.119 53.7253 245.926 53.7406 245.739 53.7915C245.558 53.8454 245.388 53.9303 245.229 54.0465C245.078 54.1595 244.948 54.3005 244.837 54.4696L247.726 55.8529C247.807 55.6546 247.842 55.4569 247.833 55.2601C247.829 55.0661 247.788 54.8833 247.707 54.7116C247.632 54.5427 247.525 54.3878 247.386 54.2469C247.252 54.1089 247.098 53.9981 246.923 53.9146Z" fill="black"/>
<path d="M257.877 63.1548L257.768 63.1029C257.63 63.2067 257.479 63.2824 257.316 63.33C257.158 63.3805 256.998 63.4071 256.833 63.4099C256.675 63.4156 256.517 63.3989 256.358 63.3598C256.196 63.3268 256.049 63.2785 255.917 63.2151C255.616 63.071 255.36 62.8858 255.151 62.6596C254.941 62.4333 254.783 62.1764 254.676 61.8887C254.576 61.6038 254.536 61.2926 254.557 60.9549C254.587 60.6142 254.69 60.2602 254.866 59.893L254.935 59.7486C255.108 59.3874 255.32 59.0928 255.569 58.8647C255.822 58.6305 256.091 58.4633 256.376 58.3629C256.663 58.2565 256.961 58.2141 257.269 58.2357C257.577 58.2573 257.875 58.3373 258.164 58.4756C258.471 58.6226 258.724 58.8287 258.922 59.0939C259.13 59.3561 259.238 59.6631 259.247 60.0152L259.355 60.0671L260.574 57.5211L261.279 57.8583L258.252 64.1781L257.548 63.8409L257.877 63.1548ZM256.309 62.5816C256.52 62.6825 256.734 62.737 256.952 62.7452C257.17 62.7534 257.38 62.717 257.581 62.636C257.789 62.5578 257.979 62.4381 258.153 62.277C258.329 62.1098 258.476 61.9028 258.594 61.6561L258.646 61.5477C258.762 61.307 258.828 61.0685 258.844 60.8324C258.864 60.5903 258.839 60.3639 258.77 60.1532C258.707 59.9453 258.601 59.7576 258.452 59.59C258.311 59.4193 258.139 59.2849 257.934 59.1869C257.724 59.0861 257.506 59.0301 257.282 59.019C257.064 59.0108 256.851 59.0457 256.644 59.1239C256.442 59.205 256.255 59.3261 256.081 59.4872C255.914 59.6513 255.773 59.8537 255.657 60.0944L255.588 60.2389C255.467 60.4917 255.395 60.7347 255.372 60.9679C255.356 61.204 255.379 61.4259 255.442 61.6338C255.514 61.8385 255.622 62.0232 255.765 62.1879C255.911 62.3466 256.092 62.4779 256.309 62.5816Z" fill="black"/>
<path d="M261.501 60.2288L263.126 61.0069L262.841 61.6028L262.949 61.6547C263.182 61.4626 263.43 61.3599 263.696 61.3464C263.964 61.3269 264.234 61.382 264.505 61.5117C264.956 61.7278 265.25 62.0496 265.385 62.4771C265.521 62.9046 265.462 63.4056 265.209 63.98L264.417 63.7339C264.616 63.3186 264.659 62.9731 264.547 62.6974C264.438 62.4157 264.239 62.2057 263.95 62.0674C263.763 61.978 263.584 61.9363 263.411 61.9423C263.244 61.9511 263.085 61.9971 262.934 62.0803C262.783 62.1634 262.646 62.2792 262.523 62.4275C262.401 62.5759 262.293 62.7464 262.201 62.939L261.293 64.8349L262.431 65.3796L262.119 66.0297L259.248 64.655L259.56 64.0049L260.589 64.4977L262.11 61.3198L261.19 60.8788L261.501 60.2288Z" fill="black"/>
<path d="M269.312 62.3264C269.396 62.1518 269.526 62.0332 269.704 61.9704C269.891 61.9045 270.072 61.9134 270.247 61.997C270.421 62.0806 270.538 62.2144 270.598 62.3984C270.667 62.5793 270.659 62.757 270.576 62.9316C270.492 63.1061 270.357 63.2263 270.17 63.2922C269.992 63.3549 269.816 63.3445 269.641 63.261C269.467 63.1774 269.345 63.0451 269.276 62.8642C269.216 62.6802 269.228 62.5009 269.312 62.3264ZM265.557 66.8767L267.128 67.6289L268.65 64.4509L267.241 63.7765L267.553 63.1265L269.665 64.1381L267.832 67.9661L269.295 68.6664L268.984 69.3165L265.246 67.5268L265.557 66.8767Z" fill="black"/>
<path d="M273.329 71.3972L271.939 70.7314L272.521 65.5055L273.352 65.9032L272.735 70.7133L272.844 70.7652L276.205 67.2693L277.035 67.667L273.329 71.3972Z" fill="black"/>
<path d="M280.368 67.6203C280.452 67.4458 280.583 67.3272 280.761 67.2644C280.947 67.1985 281.128 67.2074 281.303 67.291C281.477 67.3745 281.595 67.5084 281.654 67.6924C281.723 67.8733 281.716 68.051 281.632 68.2256C281.549 68.4001 281.413 68.5203 281.226 68.5862C281.048 68.6489 280.872 68.6385 280.698 68.5549C280.523 68.4714 280.401 68.3391 280.333 68.1582C280.273 67.9742 280.285 67.7949 280.368 67.6203ZM276.613 72.1707L278.184 72.9229L279.706 69.7449L278.298 69.0705L278.609 68.4205L280.721 69.4321L278.889 73.2601L280.351 73.9604L280.04 74.6105L276.302 72.8207L276.613 72.1707Z" fill="black"/>
<path d="M282.426 75.7531L281.722 75.4159L283.866 70.9378L284.57 71.275L284.207 72.0334L284.316 72.0852C284.875 71.628 285.498 71.5636 286.184 71.8921C286.701 72.14 287.036 72.4999 287.187 72.9719C287.341 73.4379 287.264 73.9929 286.956 74.6369L285.676 77.3093L284.972 76.9721L286.183 74.4442C286.407 73.9747 286.471 73.5722 286.372 73.2366C286.274 72.901 286.044 72.6467 285.683 72.4738C285.256 72.2692 284.848 72.2552 284.46 72.432C284.081 72.6056 283.775 72.9362 283.541 73.4237L282.426 75.7531Z" fill="black"/>
<path d="M290.982 79.0065L290.874 78.9546C290.6 79.1563 290.303 79.2658 289.984 79.2832C289.674 79.2975 289.371 79.234 289.076 79.0928C288.775 78.9487 288.517 78.762 288.301 78.5329C288.085 78.3038 287.921 78.0439 287.809 77.7533C287.702 77.4656 287.657 77.1515 287.672 76.811C287.696 76.4673 287.796 76.1119 287.972 75.7447L288.041 75.6003C288.214 75.2392 288.428 74.946 288.684 74.7207C288.943 74.4895 289.217 74.3251 289.508 74.2276C289.802 74.124 290.106 74.0845 290.419 74.109C290.733 74.1335 291.035 74.2149 291.324 74.3533C291.649 74.5089 291.897 74.7166 292.069 74.9763C292.249 75.2329 292.344 75.5298 292.352 75.8669L292.461 75.9188L292.798 75.2146L293.502 75.5518L290.83 81.1313C290.732 81.3359 290.586 81.4728 290.39 81.5418C290.2 81.6137 290.003 81.6006 289.798 81.5026L286.882 80.1063L287.193 79.4563L289.857 80.7315C290.019 80.8094 290.144 80.758 290.23 80.5774L290.982 79.0065ZM289.414 78.4333C289.625 78.5342 289.839 78.5887 290.057 78.5969C290.275 78.6052 290.485 78.5687 290.687 78.4877C290.894 78.4095 291.085 78.2899 291.258 78.1287C291.434 77.9615 291.582 77.7545 291.7 77.5078L291.752 77.3994C291.867 77.1587 291.933 76.9202 291.95 76.6842C291.97 76.442 291.945 76.2156 291.876 76.0049C291.812 75.797 291.706 75.6093 291.557 75.4417C291.417 75.271 291.244 75.1366 291.04 75.0386C290.829 74.9378 290.612 74.8818 290.388 74.8707C290.17 74.8625 289.957 74.8975 289.749 74.9756C289.548 75.0567 289.36 75.1778 289.187 75.3389C289.02 75.503 288.878 75.7054 288.763 75.9461L288.694 76.0906C288.573 76.3434 288.501 76.5864 288.478 76.8196C288.461 77.0557 288.484 77.2777 288.547 77.4855C288.62 77.6902 288.727 77.8749 288.87 78.0397C289.016 78.1983 289.198 78.3296 289.414 78.4333Z" fill="black"/>
<path d="M154.82 370.697L314.964 269.057L315.324 293.642L168.975 393L154.82 370.697Z" fill="#5D50A2"/>
<path d="M166.474 371.824L167.521 371.159L171.468 377.378L176.03 374.482L176.525 375.262L170.915 378.823L166.474 371.824Z" fill="#FFFCE5"/>
<path d="M176.382 366.321C176.259 366.128 176.239 365.912 176.32 365.673C176.406 365.422 176.569 365.22 176.81 365.067C177.051 364.914 177.299 364.855 177.554 364.889C177.814 364.912 178.004 365.02 178.127 365.213C178.25 365.406 178.268 365.628 178.183 365.879C178.101 366.118 177.94 366.314 177.699 366.467C177.458 366.62 177.208 366.685 176.948 366.663C176.693 366.628 176.505 366.514 176.382 366.321ZM178.241 373.163L180.41 371.786L178.177 368.267L176.232 369.501L175.775 368.782L178.692 366.93L181.383 371.169L183.402 369.888L183.859 370.607L178.698 373.883L178.241 373.163Z" fill="#FFFCE5"/>
<path d="M190.849 363.702C190.956 364.018 191.001 364.345 190.982 364.684C190.973 365.017 190.898 365.35 190.759 365.681C190.615 366.006 190.407 366.321 190.133 366.625C189.86 366.929 189.52 367.211 189.113 367.469C188.681 367.744 188.233 367.948 187.771 368.083C187.317 368.212 186.876 368.262 186.45 368.234C186.02 368.198 185.618 368.079 185.244 367.877C184.879 367.669 184.568 367.362 184.31 366.955L184.234 366.835C183.98 366.435 183.834 366.023 183.798 365.597C183.769 365.167 183.83 364.749 183.982 364.344C184.133 363.94 184.362 363.556 184.668 363.194C184.982 362.826 185.356 362.505 185.788 362.23C186.178 361.983 186.57 361.8 186.961 361.682C187.353 361.564 187.728 361.513 188.088 361.528C188.451 361.531 188.786 361.599 189.092 361.732C189.406 361.86 189.679 362.042 189.911 362.279L189.052 363.076C188.917 362.918 188.749 362.791 188.548 362.694C188.351 362.586 188.131 362.524 187.889 362.51C187.651 362.483 187.392 362.507 187.113 362.582C186.833 362.656 186.54 362.791 186.232 362.986C185.933 363.176 185.68 363.402 185.474 363.664C185.271 363.914 185.123 364.186 185.029 364.479C184.931 364.766 184.896 365.059 184.923 365.36C184.959 365.655 185.062 365.936 185.231 366.202L185.307 366.322C185.485 366.602 185.699 366.821 185.951 366.979C186.207 367.125 186.484 367.212 186.78 367.239C187.077 367.265 187.386 367.238 187.707 367.155C188.024 367.067 188.336 366.925 188.643 366.729C188.951 366.534 189.193 366.329 189.371 366.113C189.553 365.885 189.685 365.661 189.767 365.441C189.853 365.209 189.891 364.984 189.88 364.766C189.879 364.543 189.839 364.334 189.763 364.14L190.849 363.702Z" fill="#FFFCE5"/>
<path d="M193.104 361.598C193.442 362.076 193.885 362.351 194.433 362.424C194.98 362.497 195.574 362.331 196.214 361.924C196.505 361.74 196.742 361.552 196.924 361.362C197.106 361.171 197.242 360.982 197.333 360.794C197.431 360.6 197.488 360.414 197.504 360.236C197.523 360.046 197.517 359.863 197.487 359.686L198.536 359.301C198.653 359.871 198.568 360.454 198.281 361.047C197.997 361.629 197.457 362.174 196.659 362.68C196.218 362.96 195.773 363.158 195.323 363.275C194.877 363.381 194.449 363.405 194.039 363.347C193.629 363.289 193.25 363.151 192.902 362.933C192.553 362.714 192.259 362.415 192.017 362.035L191.865 361.795C191.645 361.449 191.515 361.078 191.474 360.683C191.442 360.283 191.495 359.889 191.634 359.502C191.768 359.108 191.98 358.735 192.27 358.383C192.564 358.019 192.926 357.7 193.359 357.425C193.866 357.104 194.351 356.903 194.814 356.825C195.281 356.734 195.7 356.725 196.073 356.797C196.453 356.864 196.78 356.993 197.053 357.184C197.334 357.37 197.545 357.573 197.684 357.793L198.091 358.433L193.104 361.598ZM193.828 358.165C193.554 358.339 193.32 358.539 193.125 358.766C192.935 358.98 192.788 359.209 192.686 359.451C192.592 359.689 192.541 359.931 192.535 360.178C192.533 360.413 192.578 360.641 192.672 360.862L196.661 358.331C196.509 358.128 196.32 357.977 196.094 357.877C195.876 357.773 195.637 357.718 195.378 357.714C195.128 357.705 194.865 357.741 194.59 357.822C194.323 357.898 194.069 358.012 193.828 358.165Z" fill="#FFFCE5"/>
<path d="M202.42 358.827L201.448 359.444L198.301 354.485L199.273 353.868L199.806 354.708L199.956 354.613C199.923 353.717 200.381 352.968 201.328 352.367C202.043 351.913 202.727 351.732 203.379 351.823C204.027 351.907 204.577 352.306 205.03 353.019L206.908 355.978L205.936 356.596L204.159 353.796C203.829 353.276 203.436 352.979 202.98 352.903C202.525 352.828 202.047 352.949 201.549 353.265C200.959 353.64 200.597 354.098 200.463 354.641C200.334 355.172 200.441 355.708 200.783 356.247L202.42 358.827Z" fill="#FFFCE5"/>
<path d="M213.749 349.169C213.856 349.484 213.9 349.811 213.882 350.15C213.872 350.483 213.797 350.816 213.658 351.147C213.515 351.472 213.306 351.787 213.033 352.091C212.76 352.396 212.419 352.677 212.012 352.935C211.58 353.21 211.133 353.414 210.67 353.549C210.216 353.678 209.776 353.728 209.35 353.7C208.919 353.664 208.517 353.545 208.144 353.343C207.779 353.135 207.467 352.828 207.209 352.421L207.133 352.301C206.879 351.902 206.734 351.489 206.697 351.063C206.669 350.633 206.73 350.215 206.881 349.811C207.032 349.406 207.261 349.022 207.567 348.66C207.882 348.292 208.255 347.971 208.687 347.697C209.078 347.449 209.469 347.266 209.861 347.148C210.252 347.03 210.628 346.979 210.987 346.994C211.351 346.997 211.685 347.065 211.991 347.198C212.305 347.326 212.578 347.508 212.81 347.745L211.952 348.542C211.817 348.384 211.649 348.257 211.448 348.161C211.25 348.052 211.031 347.99 210.788 347.976C210.55 347.95 210.291 347.973 210.012 348.048C209.733 348.122 209.439 348.257 209.132 348.452C208.833 348.642 208.58 348.868 208.373 349.13C208.17 349.38 208.022 349.652 207.929 349.945C207.831 350.232 207.795 350.525 207.823 350.826C207.859 351.121 207.961 351.402 208.13 351.668L208.206 351.788C208.384 352.068 208.599 352.287 208.851 352.445C209.107 352.592 209.383 352.678 209.68 352.705C209.977 352.731 210.285 352.704 210.606 352.621C210.923 352.533 211.235 352.391 211.543 352.196C211.85 352 212.093 351.795 212.271 351.579C212.453 351.351 212.585 351.128 212.666 350.907C212.752 350.675 212.79 350.45 212.78 350.232C212.778 350.009 212.739 349.8 212.662 349.606L213.749 349.169Z" fill="#FFFCE5"/>
<path d="M216.003 347.064C216.341 347.542 216.784 347.817 217.332 347.89C217.88 347.963 218.474 347.797 219.114 347.39C219.404 347.206 219.641 347.018 219.823 346.828C220.005 346.637 220.142 346.448 220.232 346.26C220.331 346.066 220.388 345.88 220.403 345.702C220.422 345.513 220.417 345.329 220.386 345.152L221.436 344.767C221.553 345.337 221.468 345.92 221.18 346.514C220.897 347.096 220.356 347.64 219.558 348.146C219.118 348.426 218.672 348.624 218.222 348.742C217.776 348.847 217.348 348.871 216.938 348.813C216.529 348.755 216.15 348.617 215.801 348.399C215.453 348.18 215.158 347.881 214.917 347.501L214.765 347.261C214.545 346.915 214.414 346.544 214.373 346.149C214.341 345.749 214.394 345.355 214.533 344.968C214.668 344.574 214.88 344.201 215.169 343.849C215.463 343.485 215.826 343.166 216.258 342.891C216.765 342.57 217.25 342.369 217.713 342.291C218.18 342.2 218.6 342.191 218.972 342.263C219.353 342.33 219.679 342.459 219.952 342.65C220.234 342.837 220.444 343.04 220.584 343.26L220.99 343.899L216.003 347.064ZM216.728 343.631C216.453 343.805 216.219 344.006 216.025 344.232C215.834 344.446 215.688 344.675 215.585 344.917C215.491 345.155 215.441 345.397 215.434 345.644C215.432 345.879 215.478 346.108 215.572 346.329L219.561 343.797C219.409 343.594 219.22 343.443 218.993 343.343C218.775 343.239 218.537 343.184 218.278 343.18C218.027 343.171 217.764 343.207 217.489 343.288C217.223 343.364 216.969 343.478 216.728 343.631Z" fill="#FFFCE5"/>
<path d="M235.935 336.377L235.786 336.472C235.798 336.932 235.676 337.355 235.42 337.742C235.173 338.124 234.854 338.438 234.463 338.686C234.056 338.945 233.644 339.131 233.227 339.246C232.806 339.355 232.395 339.386 231.994 339.342C231.596 339.285 231.223 339.148 230.875 338.93C230.527 338.711 230.221 338.396 229.959 337.982L229.857 337.823C229.599 337.416 229.446 337.009 229.397 336.6C229.347 336.192 229.384 335.8 229.506 335.423C229.632 335.034 229.834 334.672 230.111 334.337C230.389 334.003 230.722 333.711 231.113 333.463C231.537 333.194 231.968 333.028 232.406 332.965C232.848 332.89 233.268 332.946 233.666 333.133L233.816 333.038L233.321 332.258L234.293 331.641L236.794 335.58C236.92 335.78 237.096 335.809 237.321 335.666L237.632 335.469L238.089 336.189L237.428 336.608C237.146 336.787 236.867 336.862 236.591 336.831C236.323 336.795 236.117 336.664 235.973 336.437L235.935 336.377ZM234.093 337.883C234.384 337.699 234.622 337.486 234.808 337.247C235.003 337.002 235.136 336.744 235.209 336.473C235.282 336.203 235.299 335.926 235.259 335.642C235.215 335.352 235.106 335.071 234.933 334.798L234.857 334.678C234.687 334.411 234.483 334.199 234.244 334.043C234 333.879 233.736 333.776 233.452 333.732C233.176 333.683 232.886 333.694 232.581 333.765C232.281 333.825 231.99 333.945 231.707 334.124C231.416 334.309 231.178 334.521 230.992 334.76C230.806 335 230.672 335.258 230.591 335.534C230.514 335.798 230.497 336.075 230.541 336.365C230.581 336.648 230.686 336.923 230.855 337.19L230.956 337.349C231.316 337.916 231.78 338.243 232.349 338.331C232.922 338.407 233.503 338.258 234.093 337.883Z" fill="#FFFCE5"/>
<path d="M241.631 336.746L240.658 337.363L236.242 330.404L237.214 329.787L237.709 330.567L237.859 330.472C237.885 330.035 238.04 329.618 238.325 329.223C238.606 328.82 238.971 328.476 239.419 328.191C239.802 327.949 240.199 327.776 240.612 327.673C241.024 327.57 241.427 327.543 241.82 327.593C242.222 327.638 242.596 327.769 242.945 327.987C243.302 328.2 243.607 328.507 243.861 328.907L243.988 329.107C244.246 329.513 244.399 329.921 244.449 330.329C244.498 330.737 244.457 331.132 244.326 331.514C244.204 331.891 244.005 332.247 243.727 332.582C243.446 332.91 243.11 333.198 242.719 333.446C242.52 333.573 242.304 333.682 242.07 333.774C241.842 333.872 241.608 333.946 241.371 333.994C241.137 334.03 240.907 334.044 240.682 334.038C240.452 334.025 240.234 333.976 240.029 333.891L239.879 333.986L241.631 336.746ZM242.05 332.833C242.35 332.643 242.598 332.429 242.797 332.191C242.991 331.946 243.131 331.689 243.217 331.419C243.311 331.145 243.338 330.866 243.298 330.582C243.266 330.294 243.164 330.013 242.99 329.74L242.863 329.54C242.694 329.273 242.488 329.068 242.244 328.923C242.005 328.766 241.741 328.672 241.453 328.64C241.168 328.596 240.87 328.612 240.557 328.689C240.253 328.761 239.955 328.889 239.664 329.074C239.374 329.258 239.133 329.476 238.943 329.728C238.749 329.973 238.607 330.236 238.517 330.517C238.436 330.793 238.413 331.079 238.449 331.374C238.48 331.662 238.581 331.94 238.75 332.207L238.826 332.327C239 332.6 239.212 332.816 239.464 332.974C239.712 333.125 239.978 333.223 240.262 333.267C240.555 333.305 240.853 333.289 241.158 333.217C241.462 333.146 241.76 333.017 242.05 332.833Z" fill="#FFFCE5"/>
<path d="M249.264 331.901L248.292 332.518L243.875 325.56L244.848 324.943L245.342 325.722L245.492 325.627C245.518 325.19 245.673 324.774 245.958 324.378C246.239 323.975 246.604 323.632 247.052 323.347C247.435 323.104 247.832 322.931 248.245 322.828C248.658 322.725 249.06 322.699 249.453 322.749C249.855 322.793 250.23 322.924 250.578 323.143C250.935 323.356 251.24 323.662 251.494 324.062L251.621 324.262C251.879 324.669 252.032 325.076 252.082 325.484C252.131 325.893 252.09 326.288 251.96 326.67C251.837 327.047 251.638 327.402 251.361 327.737C251.079 328.065 250.743 328.353 250.353 328.601C250.153 328.728 249.937 328.837 249.704 328.929C249.475 329.028 249.241 329.101 249.004 329.149C248.77 329.185 248.541 329.2 248.315 329.193C248.085 329.18 247.868 329.131 247.662 329.047L247.513 329.142L249.264 331.901ZM249.684 327.988C249.983 327.798 250.232 327.584 250.43 327.346C250.624 327.101 250.764 326.844 250.85 326.575C250.944 326.3 250.971 326.021 250.931 325.738C250.899 325.449 250.797 325.168 250.623 324.895L250.497 324.695C250.327 324.429 250.121 324.223 249.878 324.078C249.638 323.922 249.374 323.827 249.086 323.795C248.802 323.751 248.503 323.768 248.19 323.845C247.886 323.916 247.589 324.044 247.298 324.229C247.007 324.414 246.766 324.632 246.576 324.883C246.382 325.128 246.24 325.391 246.15 325.673C246.069 325.949 246.046 326.234 246.082 326.529C246.114 326.818 246.214 327.095 246.383 327.362L246.459 327.482C246.633 327.755 246.845 327.971 247.097 328.129C247.345 328.28 247.611 328.378 247.895 328.422C248.188 328.461 248.486 328.444 248.791 328.372C249.095 328.301 249.393 328.173 249.684 327.988Z" fill="#FFFCE5"/>
<path d="M254.423 324.812L256.667 323.388L253.139 317.829L250.97 319.205L250.513 318.486L253.655 316.492L257.639 322.77L259.883 321.346L260.34 322.066L254.88 325.532L254.423 324.812Z" fill="#FFFCE5"/>
<path d="M260.347 313.03C260.224 312.837 260.203 312.621 260.285 312.382C260.371 312.131 260.534 311.929 260.775 311.776C261.016 311.623 261.264 311.564 261.519 311.598C261.778 311.621 261.969 311.729 262.092 311.922C262.214 312.115 262.233 312.337 262.147 312.588C262.066 312.827 261.904 313.023 261.663 313.176C261.422 313.329 261.172 313.394 260.913 313.372C260.658 313.337 260.469 313.223 260.347 313.03ZM262.206 319.872L264.375 318.495L262.141 314.976L260.197 316.21L259.74 315.491L262.657 313.639L265.347 317.878L267.367 316.596L267.824 317.316L262.663 320.592L262.206 319.872Z" fill="#FFFCE5"/>
<path d="M274.814 310.411C274.921 310.727 274.965 311.054 274.947 311.393C274.937 311.726 274.863 312.059 274.723 312.39C274.58 312.715 274.371 313.03 274.098 313.334C273.825 313.638 273.485 313.92 273.077 314.178C272.645 314.453 272.198 314.657 271.735 314.792C271.281 314.921 270.841 314.971 270.415 314.943C269.984 314.907 269.582 314.788 269.209 314.586C268.844 314.378 268.532 314.071 268.274 313.664L268.198 313.544C267.944 313.144 267.799 312.732 267.762 312.306C267.734 311.876 267.795 311.458 267.946 311.053C268.098 310.649 268.326 310.265 268.633 309.903C268.947 309.535 269.32 309.214 269.752 308.939C270.143 308.692 270.534 308.509 270.926 308.391C271.318 308.273 271.693 308.222 272.052 308.237C272.416 308.24 272.75 308.308 273.056 308.441C273.371 308.569 273.644 308.751 273.875 308.988L273.017 309.785C272.882 309.627 272.714 309.5 272.513 309.403C272.316 309.295 272.096 309.233 271.853 309.219C271.615 309.192 271.356 309.216 271.077 309.291C270.798 309.365 270.505 309.5 270.197 309.695C269.898 309.885 269.645 310.111 269.438 310.373C269.236 310.623 269.087 310.895 268.994 311.188C268.896 311.475 268.861 311.768 268.888 312.069C268.924 312.364 269.026 312.645 269.196 312.911L269.272 313.031C269.449 313.311 269.664 313.53 269.916 313.688C270.172 313.834 270.448 313.921 270.745 313.948C271.042 313.974 271.351 313.947 271.672 313.864C271.988 313.776 272.3 313.634 272.608 313.438C272.915 313.243 273.158 313.038 273.336 312.822C273.518 312.594 273.65 312.37 273.732 312.15C273.817 311.918 273.855 311.693 273.845 311.475C273.843 311.252 273.804 311.043 273.727 310.849L274.814 310.411Z" fill="#FFFCE5"/>
<path d="M281.734 307.309L281.585 307.404C281.597 307.864 281.475 308.288 281.219 308.674C280.972 309.056 280.652 309.371 280.262 309.618C279.855 309.877 279.443 310.064 279.026 310.179C278.605 310.287 278.194 310.319 277.792 310.274C277.395 310.218 277.022 310.08 276.674 309.862C276.326 309.644 276.02 309.328 275.758 308.915L275.656 308.755C275.398 308.348 275.245 307.941 275.195 307.533C275.146 307.124 275.183 306.732 275.305 306.355C275.431 305.966 275.633 305.604 275.91 305.27C276.187 304.935 276.521 304.643 276.912 304.395C277.336 304.126 277.767 303.96 278.205 303.897C278.647 303.823 279.067 303.878 279.465 304.065L279.615 303.97L279.12 303.19L280.092 302.573L282.592 306.512C282.719 306.712 282.895 306.741 283.119 306.599L283.431 306.401L283.888 307.121L283.227 307.54C282.945 307.719 282.665 307.794 282.39 307.763C282.122 307.727 281.916 307.596 281.772 307.369L281.734 307.309ZM279.892 308.815C280.183 308.631 280.421 308.419 280.607 308.179C280.802 307.934 280.935 307.676 281.008 307.406C281.081 307.135 281.098 306.858 281.058 306.575C281.014 306.285 280.905 306.003 280.732 305.73L280.656 305.61C280.486 305.343 280.282 305.132 280.043 304.975C279.799 304.812 279.535 304.708 279.251 304.664C278.975 304.615 278.685 304.626 278.38 304.698C278.08 304.757 277.789 304.877 277.506 305.056C277.215 305.241 276.977 305.453 276.791 305.693C276.605 305.932 276.471 306.19 276.39 306.466C276.313 306.73 276.296 307.007 276.34 307.297C276.38 307.58 276.485 307.855 276.654 308.122L276.755 308.282C277.115 308.848 277.579 309.175 278.148 309.263C278.721 309.339 279.302 309.19 279.892 308.815Z" fill="#FFFCE5"/>
<path d="M282.053 301.329L283.998 300.094L282.704 298.055L283.676 297.438L284.97 299.477L287.364 297.958L287.821 298.678L285.427 300.197L287.471 303.416C287.597 303.616 287.773 303.645 287.998 303.503L289.755 302.387L290.212 303.107L288.105 304.444C287.823 304.623 287.544 304.698 287.268 304.667C287 304.631 286.794 304.5 286.651 304.273L284.455 300.814L282.51 302.048L282.053 301.329Z" fill="#FFFCE5"/>
<path d="M290.879 293.651C290.756 293.458 290.736 293.242 290.818 293.003C290.903 292.752 291.067 292.551 291.308 292.398C291.549 292.245 291.797 292.185 292.052 292.22C292.311 292.242 292.502 292.35 292.624 292.544C292.747 292.737 292.766 292.959 292.68 293.21C292.598 293.448 292.437 293.644 292.196 293.797C291.955 293.95 291.705 294.015 291.446 293.993C291.191 293.958 291.002 293.845 290.879 293.651ZM292.739 300.494L294.908 299.117L292.674 295.598L290.729 296.832L290.272 296.112L293.19 294.261L295.88 298.5L297.9 297.218L298.356 297.938L293.195 301.213L292.739 300.494Z" fill="#FFFCE5"/>
<path d="M304.978 290.341C305.24 290.755 305.385 291.177 305.414 291.607C305.446 292.026 305.391 292.435 305.248 292.834C305.101 293.227 304.872 293.601 304.562 293.957C304.26 294.308 303.905 294.612 303.498 294.871C303.082 295.135 302.652 295.329 302.206 295.453C301.76 295.577 301.328 295.622 300.91 295.588C300.488 295.547 300.09 295.426 299.717 295.223C299.347 295.009 299.032 294.695 298.769 294.282L298.693 294.162C298.435 293.755 298.29 293.342 298.257 292.924C298.229 292.493 298.286 292.078 298.429 291.679C298.58 291.274 298.807 290.896 299.109 290.546C299.411 290.195 299.766 289.891 300.173 289.632C300.58 289.374 301.007 289.182 301.453 289.058C301.899 288.934 302.333 288.893 302.755 288.933C303.185 288.968 303.585 289.093 303.954 289.308C304.328 289.51 304.643 289.815 304.901 290.221L304.978 290.341ZM303.028 294.131C303.328 293.941 303.576 293.727 303.775 293.489C303.978 293.239 304.124 292.973 304.213 292.692C304.303 292.41 304.332 292.126 304.3 291.837C304.265 291.542 304.158 291.254 303.98 290.974L303.904 290.854C303.735 290.588 303.526 290.379 303.279 290.227C303.027 290.069 302.755 289.971 302.462 289.932C302.169 289.894 301.867 289.913 301.554 289.99C301.237 290.06 300.933 290.187 300.642 290.372C300.352 290.557 300.107 290.777 299.909 291.034C299.706 291.284 299.56 291.55 299.47 291.831C299.38 292.113 299.354 292.401 299.389 292.696C299.421 292.984 299.521 293.262 299.691 293.529L299.767 293.649C299.944 293.929 300.159 294.148 300.411 294.306C300.659 294.457 300.929 294.552 301.221 294.591C301.514 294.629 301.813 294.613 302.117 294.541C302.425 294.458 302.729 294.321 303.028 294.131Z" fill="#FFFCE5"/>
<path d="M309.284 291.002L308.312 291.619L305.165 286.66L306.137 286.043L306.67 286.883L306.82 286.788C306.787 285.892 307.245 285.143 308.192 284.542C308.907 284.089 309.591 283.907 310.243 283.998C310.891 284.082 311.441 284.481 311.894 285.194L313.772 288.154L312.8 288.771L311.023 285.971C310.693 285.451 310.3 285.154 309.845 285.079C309.389 285.003 308.911 285.124 308.413 285.44C307.823 285.815 307.461 286.273 307.327 286.816C307.198 287.347 307.305 287.883 307.647 288.422L309.284 291.002Z" fill="#FFFCE5"/>
<path d="M130.1 166.467L302.182 179.531L292.196 219.774L262.133 200.343L127.131 193.697L130.1 166.467Z" fill="#467966"/>
<path d="M137.746 174.182L140.63 174.41L141.689 184.379L141.905 184.396L144.234 174.695L147.118 174.923L146.448 185.291L145.042 185.18L145.678 175.345L145.462 175.328L143.132 185.029L140.393 184.812L139.334 174.844L139.118 174.826L138.482 184.661L137.076 184.55L137.746 174.182Z" fill="#FFFCE5"/>
<path d="M157.517 182.564C157.477 183.176 157.316 183.709 157.033 184.163C156.763 184.608 156.413 184.977 155.983 185.271C155.554 185.555 155.058 185.759 154.495 185.883C153.943 186.008 153.373 186.047 152.784 186.001C152.184 185.953 151.618 185.824 151.088 185.613C150.559 185.403 150.1 185.123 149.711 184.775C149.324 184.417 149.019 183.996 148.797 183.512C148.587 183.019 148.502 182.466 148.542 181.854L148.553 181.676C148.592 181.074 148.747 180.55 149.017 180.105C149.3 179.651 149.656 179.277 150.086 178.984C150.527 178.691 151.024 178.482 151.575 178.357C152.127 178.232 152.697 178.193 153.286 178.239C153.874 178.286 154.434 178.415 154.964 178.625C155.493 178.836 155.952 179.12 156.34 179.478C156.739 179.838 157.044 180.264 157.253 180.757C157.476 181.241 157.567 181.784 157.528 182.386L157.517 182.564ZM152.855 184.905C153.288 184.939 153.688 184.911 154.056 184.821C154.437 184.722 154.773 184.565 155.065 184.35C155.356 184.135 155.591 183.87 155.768 183.557C155.946 183.234 156.048 182.864 156.075 182.45L156.087 182.272C156.112 181.877 156.057 181.51 155.922 181.172C155.788 180.824 155.59 180.521 155.329 180.262C155.068 180.003 154.755 179.795 154.391 179.637C154.027 179.469 153.635 179.369 153.215 179.336C152.794 179.302 152.393 179.34 152.012 179.449C151.631 179.548 151.295 179.705 151.003 179.92C150.712 180.135 150.477 180.404 150.299 180.728C150.122 181.041 150.02 181.395 149.995 181.79L149.983 181.968C149.957 182.383 150.01 182.764 150.145 183.112C150.28 183.45 150.478 183.749 150.739 184.008C151 184.267 151.307 184.474 151.659 184.631C152.024 184.779 152.423 184.87 152.855 184.905Z" fill="#FFFCE5"/>
<path d="M160.054 178.983L162.866 179.206L163.061 176.184L164.467 176.295L164.272 179.317L167.732 179.59L167.663 180.657L164.203 180.383L163.895 185.152C163.876 185.449 164.028 185.609 164.353 185.635L166.894 185.836L166.825 186.903L163.779 186.662C163.371 186.629 163.041 186.494 162.791 186.256C162.553 186.019 162.444 185.732 162.466 185.397L162.797 180.272L159.985 180.05L160.054 178.983Z" fill="#FFFCE5"/>
<path d="M179.588 184.309C179.548 184.921 179.387 185.455 179.104 185.909C178.834 186.354 178.484 186.723 178.054 187.016C177.625 187.3 177.129 187.504 176.566 187.628C176.014 187.753 175.444 187.793 174.855 187.746C174.254 187.698 173.689 187.569 173.159 187.359C172.629 187.148 172.17 186.869 171.782 186.52C171.395 186.162 171.09 185.741 170.868 185.257C170.658 184.764 170.573 184.212 170.612 183.599L170.624 183.422C170.663 182.819 170.817 182.296 171.088 181.851C171.371 181.397 171.727 181.023 172.157 180.729C172.598 180.437 173.095 180.228 173.646 180.103C174.198 179.978 174.768 179.938 175.357 179.985C175.945 180.031 176.505 180.16 177.034 180.371C177.564 180.581 178.023 180.866 178.41 181.224C178.81 181.583 179.114 182.009 179.324 182.502C179.547 182.986 179.638 183.529 179.599 184.131L179.588 184.309ZM174.926 186.65C175.359 186.684 175.759 186.656 176.127 186.566C176.508 186.467 176.844 186.31 177.136 186.095C177.427 185.88 177.662 185.616 177.839 185.302C178.017 184.979 178.119 184.61 178.146 184.195L178.157 184.017C178.183 183.622 178.128 183.256 177.993 182.918C177.859 182.57 177.661 182.266 177.4 182.007C177.139 181.749 176.826 181.54 176.462 181.382C176.098 181.215 175.706 181.114 175.286 181.081C174.865 181.048 174.464 181.085 174.083 181.194C173.702 181.293 173.366 181.45 173.074 181.665C172.783 181.88 172.548 182.15 172.37 182.473C172.193 182.787 172.091 183.141 172.066 183.536L172.054 183.713C172.027 184.128 172.081 184.51 172.216 184.858C172.351 185.196 172.549 185.494 172.81 185.753C173.071 186.012 173.378 186.22 173.73 186.377C174.095 186.525 174.493 186.616 174.926 186.65Z" fill="#FFFCE5"/>
<path d="M181.927 180.713L185.171 180.97L185.108 181.947L185.324 181.964C185.579 181.577 185.922 181.307 186.355 181.152C186.788 180.988 187.275 180.927 187.816 180.97C188.717 181.042 189.428 181.341 189.95 181.868C190.471 182.396 190.72 183.125 190.696 184.056L189.207 184.117C189.251 183.436 189.084 182.931 188.707 182.604C188.33 182.266 187.853 182.075 187.276 182.029C186.904 182 186.576 182.033 186.292 182.13C186.02 182.228 185.787 182.373 185.593 182.566C185.4 182.759 185.252 182.991 185.15 183.26C185.048 183.53 184.987 183.823 184.966 184.139L184.765 187.249L187.036 187.429L186.967 188.495L181.236 188.042L181.305 186.976L183.36 187.138L183.696 181.925L181.858 181.779L181.927 180.713Z" fill="#FFFCE5"/>
<path d="M209.345 190.265L206.569 190.046L203.926 182.453L205.584 182.584L207.883 189.614L208.099 189.631L211.279 183.034L212.937 183.165L209.345 190.265Z" fill="#FFFCE5"/>
<path d="M216.305 187.481C216.294 188.214 216.532 188.824 217.02 189.309C217.508 189.794 218.215 190.073 219.14 190.147C219.56 190.18 219.929 190.169 220.247 190.115C220.564 190.061 220.836 189.973 221.061 189.852C221.298 189.732 221.489 189.588 221.632 189.421C221.789 189.244 221.915 189.056 222.013 188.855L223.328 189.257C223.031 189.918 222.527 190.439 221.814 190.819C221.113 191.191 220.186 191.331 219.033 191.24C218.396 191.189 217.813 191.054 217.284 190.833C216.767 190.604 216.328 190.306 215.965 189.94C215.602 189.574 215.328 189.15 215.141 188.669C214.955 188.188 214.88 187.666 214.916 187.103L214.939 186.748C214.973 186.234 215.112 185.764 215.357 185.337C215.614 184.91 215.951 184.555 216.368 184.27C216.785 183.976 217.264 183.761 217.804 183.625C218.357 183.48 218.946 183.432 219.57 183.482C220.303 183.539 220.927 183.703 221.441 183.972C221.968 184.232 222.389 184.538 222.704 184.89C223.031 185.244 223.261 185.619 223.392 186.017C223.535 186.415 223.596 186.777 223.575 187.103L223.514 188.051L216.305 187.481ZM219.5 184.578C219.103 184.546 218.727 184.571 218.372 184.652C218.029 184.724 217.719 184.844 217.443 185.01C217.178 185.178 216.954 185.384 216.769 185.627C216.597 185.861 216.477 186.125 216.41 186.417L222.177 186.873C222.174 186.556 222.096 186.262 221.944 185.992C221.805 185.723 221.609 185.489 221.356 185.29C221.115 185.092 220.829 184.931 220.499 184.805C220.181 184.681 219.848 184.605 219.5 184.578Z" fill="#FFFCE5"/>
<path d="M227.505 191.701L226.099 191.59L226.769 181.222L228.174 181.333L227.893 185.688L228.109 185.705C228.416 185.253 228.825 184.908 229.336 184.671C229.858 184.434 230.48 184.344 231.201 184.401C232.174 184.478 232.944 184.807 233.51 185.388C234.089 185.96 234.344 186.774 234.276 187.83L233.993 192.214L232.587 192.103L232.855 187.956C232.905 187.186 232.732 186.592 232.336 186.173C231.94 185.755 231.382 185.517 230.661 185.46C229.808 185.393 229.12 185.581 228.596 186.026C228.085 186.462 227.803 187.08 227.751 187.88L227.505 191.701Z" fill="#FFFCE5"/>
<path d="M240.526 183.144C240.545 182.858 240.68 182.625 240.933 182.447C241.199 182.259 241.506 182.179 241.855 182.207C242.203 182.234 242.491 182.361 242.718 182.588C242.957 182.805 243.068 183.057 243.049 183.343C243.031 183.63 242.889 183.867 242.623 184.054C242.37 184.233 242.069 184.308 241.721 184.28C241.372 184.253 241.078 184.13 240.839 183.913C240.612 183.687 240.508 183.43 240.526 183.144ZM237.419 191.414L240.555 191.662L240.892 186.448L238.081 186.226L238.15 185.159L242.367 185.493L241.961 191.773L244.881 192.004L244.812 193.07L237.35 192.48L237.419 191.414Z" fill="#FFFCE5"/>
<path d="M256.701 191.39C256.578 191.787 256.386 192.149 256.123 192.476C255.873 192.803 255.559 193.081 255.182 193.31C254.805 193.528 254.372 193.687 253.883 193.787C253.393 193.888 252.854 193.914 252.265 193.868C251.641 193.818 251.051 193.687 250.497 193.475C249.956 193.263 249.485 192.983 249.085 192.634C248.685 192.275 248.374 191.853 248.152 191.369C247.941 190.886 247.856 190.343 247.895 189.741L247.906 189.563C247.944 188.971 248.099 188.447 248.37 187.992C248.653 187.538 249.015 187.165 249.457 186.872C249.898 186.58 250.401 186.366 250.965 186.232C251.542 186.099 252.142 186.057 252.767 186.107C253.332 186.151 253.85 186.262 254.321 186.438C254.793 186.614 255.201 186.845 255.545 187.13C255.901 187.407 256.183 187.727 256.389 188.09C256.607 188.455 256.744 188.843 256.802 189.254L255.379 189.41C255.36 189.15 255.286 188.896 255.157 188.648C255.041 188.391 254.868 188.164 254.639 187.967C254.423 187.761 254.15 187.591 253.821 187.456C253.492 187.32 253.105 187.235 252.66 187.2C252.228 187.166 251.815 187.203 251.421 187.31C251.04 187.409 250.698 187.571 250.393 187.795C250.09 188.009 249.843 188.277 249.653 188.6C249.475 188.923 249.374 189.282 249.348 189.677L249.337 189.855C249.31 190.27 249.364 190.651 249.498 190.999C249.645 191.338 249.856 191.633 250.129 191.883C250.403 192.133 250.728 192.337 251.104 192.496C251.481 192.645 251.892 192.737 252.336 192.772C252.781 192.807 253.169 192.783 253.5 192.7C253.844 192.608 254.136 192.482 254.376 192.323C254.628 192.154 254.828 191.957 254.976 191.73C255.135 191.505 255.247 191.265 255.312 191.012L256.701 191.39Z" fill="#FFFCE5"/>
<path d="M259.274 193.142L262.518 193.398L263.05 185.163L259.914 184.915L259.983 183.849L264.525 184.208L263.924 193.51L267.168 193.766L267.099 194.833L259.205 194.208L259.274 193.142Z" fill="#FFFCE5"/>
<path d="M271.482 191.845C271.471 192.578 271.709 193.187 272.197 193.673C272.685 194.158 273.392 194.437 274.317 194.51C274.738 194.543 275.107 194.533 275.424 194.479C275.742 194.424 276.013 194.337 276.238 194.215C276.475 194.095 276.666 193.952 276.809 193.784C276.966 193.608 277.093 193.42 277.19 193.219L278.505 193.621C278.208 194.282 277.704 194.803 276.991 195.183C276.291 195.554 275.364 195.695 274.21 195.603C273.573 195.553 272.99 195.418 272.461 195.197C271.945 194.968 271.505 194.67 271.142 194.304C270.779 193.938 270.505 193.514 270.319 193.033C270.132 192.552 270.057 192.03 270.094 191.467L270.117 191.111C270.15 190.598 270.289 190.127 270.534 189.7C270.791 189.274 271.128 188.919 271.545 188.634C271.962 188.339 272.441 188.124 272.981 187.988C273.534 187.843 274.123 187.796 274.748 187.845C275.481 187.903 276.104 188.067 276.618 188.335C277.145 188.595 277.566 188.902 277.881 189.254C278.208 189.608 278.438 189.983 278.569 190.38C278.712 190.779 278.774 191.141 278.753 191.467L278.691 192.415L271.482 191.845ZM274.677 188.941C274.28 188.91 273.904 188.935 273.549 189.016C273.206 189.088 272.896 189.207 272.62 189.374C272.356 189.542 272.131 189.747 271.946 189.991C271.774 190.225 271.654 190.489 271.587 190.781L277.354 191.237C277.351 190.919 277.273 190.625 277.122 190.355C276.982 190.086 276.786 189.852 276.533 189.654C276.292 189.456 276.007 189.294 275.677 189.169C275.359 189.045 275.025 188.969 274.677 188.941Z" fill="#FFFCE5"/>
</svg>
