<svg width="219" height="262" viewBox="0 0 219 262" fill="none" xmlns="http://www.w3.org/2000/svg">
<path d="M12.8966 3.52808L105.094 46.872L97.3677 61.7684L7.0001 14.8963L12.8966 3.52808Z" fill="#EB4C37"/>
<path d="M16.0196 8.15662L20.8362 10.6549L20.5228 11.2591L18.5257 10.2232L16.0266 15.0413L15.2043 14.6148L17.7033 9.79669L15.7062 8.76082L16.0196 8.15662Z" fill="#FFFCE5"/>
<path d="M21.1845 12.8409L22.9467 13.7549L22.6815 14.2662L22.799 14.3271C23.0328 14.1797 23.2894 14.1162 23.5687 14.1365C23.8507 14.1517 24.1386 14.2355 24.4323 14.3878C24.9218 14.6417 25.251 14.973 25.42 15.3818C25.5889 15.7906 25.5573 16.2427 25.3251 16.7383L24.4741 16.4149C24.659 16.0586 24.6839 15.7471 24.5488 15.4804C24.4165 15.2086 24.1937 14.9915 23.8804 14.829C23.6781 14.7241 23.4858 14.6637 23.3035 14.6478C23.1278 14.6353 22.9629 14.6578 22.8087 14.7155C22.6546 14.7732 22.5172 14.8625 22.3965 14.9834C22.2758 15.1043 22.1726 15.2473 22.0869 15.4126L21.2432 17.0393L22.4767 17.6791L22.1874 18.2368L19.0742 16.622L19.3635 16.0643L20.4796 16.6432L21.8938 13.9166L20.8953 13.3986L21.1845 12.8409Z" fill="#FFFCE5"/>
<path d="M29.322 21.1117L29.2045 21.0507C28.914 21.2277 28.5962 21.3053 28.2513 21.2837C27.9129 21.2655 27.5903 21.1768 27.2836 21.0177C26.9638 20.8518 26.6883 20.6565 26.457 20.4317C26.2284 20.2017 26.0526 19.9499 25.9294 19.6764C25.8155 19.401 25.7627 19.1115 25.7711 18.8079C25.7796 18.5042 25.8668 18.1923 26.0329 17.8721L26.0971 17.7482C26.2605 17.4332 26.4639 17.1848 26.7073 17.003C26.9506 16.8212 27.2163 16.7002 27.5044 16.6399C27.8016 16.5778 28.1101 16.574 28.4297 16.6283C28.7494 16.6827 29.0626 16.7895 29.3693 16.9486C29.7022 17.1212 29.9716 17.3363 30.1776 17.5939C30.3928 17.8497 30.5157 18.1396 30.5465 18.4635L30.6639 18.5245L30.9773 17.9203L31.7409 18.3163L30.1579 21.3683C30.0776 21.5232 30.1255 21.6464 30.3017 21.7378L30.5465 21.8647L30.2572 22.4224L29.7383 22.1533C29.5164 22.0382 29.3632 21.8866 29.2785 21.6985C29.2004 21.5138 29.2068 21.3337 29.2979 21.1581L29.322 21.1117ZM27.6592 20.4851C27.8876 20.6036 28.1139 20.6784 28.338 20.7094C28.5686 20.7438 28.7846 20.7346 28.9859 20.6818C29.1873 20.6289 29.3713 20.5376 29.538 20.4078C29.7074 20.2728 29.847 20.0995 29.9568 19.8878L30.005 19.7948C30.1122 19.5883 30.1708 19.3795 30.1809 19.1684C30.1936 18.9522 30.1603 18.7449 30.081 18.5465C30.0083 18.3515 29.8914 18.1696 29.7304 18.0009C29.5786 17.8305 29.3918 17.6877 29.1699 17.5726C28.9415 17.4541 28.7152 17.3793 28.4911 17.3483C28.267 17.3173 28.051 17.3265 27.8432 17.3759C27.6445 17.4236 27.4605 17.5149 27.2911 17.6499C27.1244 17.7797 26.9875 17.9479 26.8803 18.1544L26.816 18.2784C26.5884 18.7173 26.5538 19.1352 26.7124 19.532C26.8802 19.9271 27.1958 20.2448 27.6592 20.4851Z" fill="#FFFCE5"/>
<path d="M33.3984 19.176L34.8962 19.9529L35.4025 18.9769C35.4936 18.8013 35.6371 18.6923 35.8331 18.6498C36.0356 18.6106 36.2478 18.6486 36.4697 18.7637L38.3885 19.759L38.0992 20.3167L36.4545 19.4636C36.2783 19.3722 36.15 19.404 36.0697 19.5589L35.6599 20.349L37.6863 21.4001L37.3971 21.9578L35.3706 20.9067L33.667 24.1911L32.9034 23.795L34.607 20.5106L33.1091 19.7337L33.3984 19.176Z" fill="#FFFCE5"/>
<path d="M42.9439 22.6723C43.0216 22.5225 43.1525 22.4298 43.3366 22.3943C43.5299 22.3569 43.7212 22.3873 43.9104 22.4855C44.0997 22.5836 44.2315 22.7208 44.3058 22.897C44.3893 23.0713 44.3922 23.2334 44.3145 23.3832C44.2368 23.5329 44.1013 23.6265 43.908 23.6638C43.7239 23.6994 43.5372 23.6681 43.348 23.5699C43.1587 23.4718 43.0223 23.3355 42.9388 23.1611C42.8645 22.985 42.8662 22.822 42.9439 22.6723ZM40.6697 27.8232L42.3733 24.5389L40.6796 23.6604L38.9761 26.9448L38.2125 26.5487L39.916 23.2644L38.7706 22.6703L39.0599 22.1125L40.2053 22.7066L40.6312 21.8856C40.7223 21.71 40.8658 21.6009 41.0618 21.5584C41.2643 21.5193 41.4765 21.5573 41.6984 21.6724L42.7361 22.2106L42.4468 22.7683L41.6832 22.3722C41.507 22.2808 41.3787 22.3126 41.2984 22.4675L40.9689 23.1027L43.4262 24.3772L41.4334 28.2193L40.6697 27.8232Z" fill="#FFFCE5"/>
<path d="M48.6929 30.2546C48.5308 30.4392 48.3377 30.5881 48.1134 30.7011C47.8956 30.8175 47.654 30.8921 47.3886 30.9248C47.1258 30.9524 46.8452 30.9346 46.5466 30.8715C46.2481 30.8084 45.9389 30.6939 45.6191 30.528C45.2797 30.352 44.9794 30.1405 44.7182 29.8936C44.4635 29.6501 44.2648 29.3865 44.1221 29.1027C43.982 28.8138 43.9064 28.5125 43.8953 28.1987C43.8906 27.8883 43.97 27.5756 44.1334 27.2606L44.1816 27.1676C44.3423 26.8578 44.5522 26.6128 44.8113 26.4326C45.0769 26.2558 45.3682 26.1414 45.685 26.0895C46.0018 26.0376 46.3344 26.043 46.6829 26.1058C47.0378 26.1719 47.385 26.293 47.7244 26.469C48.0311 26.6281 48.2963 26.8115 48.5199 27.0192C48.7434 27.2269 48.9183 27.4487 49.0444 27.6845C49.1798 27.9186 49.2626 28.1581 49.2929 28.4032C49.3296 28.6516 49.316 28.8936 49.2518 29.129L48.4159 28.8724C48.466 28.7279 48.484 28.5734 48.4699 28.4089C48.4651 28.2425 48.4215 28.079 48.3392 27.9184C48.2661 27.756 48.1529 27.5989 47.9996 27.4474C47.8464 27.2958 47.649 27.1573 47.4075 27.0321C47.1725 26.9102 46.9319 26.8313 46.6855 26.7952C46.4484 26.7574 46.218 26.7625 45.9944 26.8103C45.7735 26.853 45.5718 26.9384 45.3894 27.0666C45.2135 27.1982 45.0719 27.3673 44.9648 27.5738L44.9166 27.6668C44.8041 27.8837 44.7447 28.1019 44.7385 28.3215C44.7415 28.5393 44.7905 28.7482 44.8855 28.9482C44.9806 29.1483 45.1151 29.336 45.2891 29.5115C45.4658 29.6817 45.6749 29.8295 45.9164 29.9548C46.1579 30.08 46.3815 30.16 46.5871 30.1945C46.802 30.2274 46.9956 30.2295 47.1678 30.2008C47.3492 30.1704 47.508 30.1118 47.644 30.0251C47.7866 29.9418 47.9058 29.8398 48.0016 29.7191L48.6929 30.2546Z" fill="#FFFCE5"/>
<path d="M57.1507 31.4959L58.9128 32.4099L58.6476 32.9211L58.7651 32.9821C58.9989 32.8347 59.2555 32.7711 59.5348 32.7915C59.8168 32.8067 60.1047 32.8905 60.3984 33.0428C60.8879 33.2967 61.2171 33.628 61.3861 34.0368C61.5551 34.4455 61.5234 34.8977 61.2912 35.3933L60.4403 35.0699C60.6251 34.7135 60.65 34.4021 60.515 34.1354C60.3826 33.8636 60.1598 33.6465 59.8465 33.484C59.6442 33.379 59.4519 33.3186 59.2697 33.3027C59.0939 33.2902 58.929 33.3128 58.7749 33.3705C58.6207 33.4282 58.4833 33.5174 58.3626 33.6383C58.2419 33.7592 58.1387 33.9023 58.053 34.0675L57.2093 35.6942L58.4428 36.334L58.1535 36.8918L55.0404 35.277L55.3296 34.7193L56.4457 35.2982L57.8599 32.5715L56.8614 32.0536L57.1507 31.4959Z" fill="#FFFCE5"/>
<path d="M66.8847 36.5448L67.6483 36.9408L65.6555 40.7829L64.8919 40.3868L65.2535 39.6897L65.136 39.6287C64.8508 39.7954 64.5435 39.885 64.2139 39.8975C63.8844 39.9101 63.5238 39.8148 63.1322 39.6117C62.8646 39.4729 62.6354 39.3082 62.4445 39.1174C62.2574 38.9351 62.1184 38.732 62.0276 38.5079C61.9432 38.2873 61.909 38.05 61.9247 37.796C61.947 37.5454 62.0292 37.2833 62.1711 37.0096L63.3604 34.7168L64.124 35.1128L62.9749 37.3282C62.766 37.731 62.7177 38.0795 62.8302 38.3738C62.9426 38.668 63.2142 38.9268 63.6449 39.1502C64.1083 39.3906 64.5348 39.4545 64.9244 39.3421C65.3233 39.2278 65.6312 38.9615 65.8481 38.5433L66.8847 36.5448Z" fill="#FFFCE5"/>
<path d="M67.7099 41.1407L69.4721 42.0547L71.706 37.7479L70.0026 36.8644L70.2918 36.3066L72.7589 37.5863L70.2357 42.4508L71.9979 43.3648L71.7086 43.9225L67.4207 41.6984L67.7099 41.1407Z" fill="#FFFCE5"/>
<path d="M74.873 43.3619C74.6944 43.7542 74.6851 44.1393 74.8452 44.5173C75.0053 44.8952 75.3367 45.2145 75.8392 45.4752C76.0676 45.5937 76.2774 45.6763 76.4685 45.723C76.6597 45.7697 76.8327 45.7873 76.9877 45.776C77.1492 45.768 77.2899 45.7362 77.4099 45.6804C77.5392 45.6229 77.6547 45.5518 77.7567 45.4671L78.4008 45.9978C78.0789 46.283 77.673 46.4427 77.1831 46.477C76.7025 46.5095 76.1489 46.3632 75.5223 46.0382C75.1764 45.8588 74.8807 45.6465 74.6352 45.4012C74.399 45.1541 74.2219 44.8886 74.1042 44.6047C73.9864 44.3208 73.9317 44.0271 73.9401 43.7234C73.9485 43.4198 74.0291 43.1208 74.1817 42.8264L74.2782 42.6405C74.4174 42.372 74.6061 42.152 74.8441 41.9805C75.0886 41.8125 75.3614 41.7017 75.6625 41.6481C75.9663 41.5894 76.2859 41.5881 76.6213 41.6441C76.9658 41.6983 77.3078 41.8134 77.6472 41.9894C78.0453 42.1959 78.3572 42.4331 78.5827 42.7008C78.8175 42.9667 78.9821 43.2323 79.0764 43.4975C79.1773 43.7661 79.2179 44.0231 79.1983 44.2685C79.1852 44.5173 79.1345 44.7269 79.0461 44.8973L78.7889 45.393L74.873 43.3619ZM77.3499 42.5627C77.1345 42.4509 76.9175 42.3744 76.6987 42.333C76.4892 42.2899 76.2872 42.2801 76.0927 42.3038C75.9048 42.3308 75.7303 42.3878 75.5693 42.4746C75.4175 42.5597 75.2883 42.673 75.1819 42.8144L78.3146 44.4393C78.3873 44.2672 78.4127 44.0904 78.391 43.9087C78.3758 43.7305 78.3205 43.5576 78.2251 43.3902C78.1363 43.2261 78.0139 43.0709 77.8579 42.9245C77.7085 42.7814 77.5392 42.6608 77.3499 42.5627Z" fill="#FFFCE5"/>
<path d="M81.8963 45.5892C81.7998 45.7751 81.8241 45.9679 81.969 46.1676C82.1204 46.3706 82.4524 46.6248 82.965 46.93C83.5141 47.2606 83.8886 47.5925 84.0885 47.9256C84.2977 48.2569 84.3138 48.5929 84.1371 48.9338L84.113 48.9802C84.0165 49.1661 83.8805 49.3086 83.7049 49.4076C83.5386 49.5048 83.3438 49.561 83.1205 49.5763C82.9038 49.5949 82.6613 49.5674 82.393 49.4938C82.1286 49.4288 81.8561 49.3234 81.5754 49.1779C81.1969 48.9815 80.8906 48.7735 80.6567 48.5539C80.432 48.3325 80.2617 48.1098 80.1459 47.886C80.0393 47.6603 79.9832 47.4411 79.9776 47.2285C79.9746 47.0107 80.0108 46.8132 80.0861 46.636L80.8829 46.8723C80.7628 47.1836 80.7832 47.4956 80.944 47.8084C81.1075 48.116 81.4013 48.3798 81.8255 48.5998C82.1845 48.786 82.4998 48.8808 82.7714 48.884C83.0522 48.8855 83.2449 48.7856 83.3493 48.5842C83.4618 48.3673 83.4345 48.1565 83.2673 47.9518C83.1002 47.7472 82.7818 47.5067 82.3122 47.2303C81.767 46.9082 81.3899 46.5815 81.1807 46.2502C80.9715 45.9189 80.954 45.5855 81.1281 45.2498L81.1522 45.2033C81.246 45.0226 81.3766 44.8905 81.5442 44.807C81.7144 44.7183 81.9052 44.6698 82.1166 44.6615C82.3345 44.6566 82.5599 44.685 82.7928 44.7469C83.0258 44.8087 83.2565 44.8989 83.4849 45.0174C83.8047 45.1832 84.0666 45.365 84.2706 45.5625C84.4773 45.7549 84.6327 45.9502 84.7369 46.1484C84.8439 46.3415 84.9022 46.5324 84.9121 46.721C84.9285 46.9129 84.9122 47.088 84.8633 47.2461L84.0665 47.0098C84.1625 46.745 84.1357 46.4853 83.9861 46.2308C83.843 45.9797 83.5953 45.7627 83.2428 45.5799C83.1058 45.5088 82.9653 45.4523 82.8214 45.4104C82.6867 45.3668 82.5583 45.3428 82.4363 45.3385C82.3143 45.3342 82.2052 45.353 82.1089 45.3948C82.0154 45.4315 81.9445 45.4963 81.8963 45.5892Z" fill="#FFFCE5"/>
<path d="M1.09458 195.857L97.8634 164L102.485 180.132L4.62157 208.168L1.09458 195.857Z" fill="#EB4C37"/>
<path d="M6.5439 197.074L11.76 195.58L11.9475 196.234L9.78469 196.854L11.2795 202.072L10.3889 202.327L8.89413 197.109L6.73135 197.729L6.5439 197.074Z" fill="#FFFCE5"/>
<path d="M13.5151 196.929L15.4235 196.382L15.5821 196.936L15.7093 196.899C15.7779 196.632 15.9207 196.409 16.1376 196.232C16.3529 196.049 16.6196 195.912 16.9377 195.821C17.4678 195.669 17.9346 195.684 18.3383 195.865C18.7419 196.046 19.0296 196.396 19.2014 196.915L18.3609 197.265C18.2504 196.879 18.0544 196.636 17.7731 196.535C17.4902 196.428 17.1791 196.424 16.8399 196.521C16.6208 196.584 16.4396 196.672 16.2962 196.786C16.1599 196.897 16.0556 197.027 15.9833 197.175C15.9109 197.323 15.8724 197.482 15.8678 197.653C15.8632 197.823 15.8865 197.998 15.9377 198.177L16.4424 199.939L17.7783 199.556L17.9513 200.16L14.5799 201.126L14.4069 200.522L15.6155 200.176L14.7695 197.223L13.6882 197.533L13.5151 196.929Z" fill="#FFFCE5"/>
<path d="M25.1103 197.347L24.9831 197.383C24.8936 197.711 24.7161 197.986 24.4506 198.207C24.1922 198.427 23.8969 198.584 23.5647 198.679C23.2184 198.778 22.884 198.826 22.5615 198.821C22.2374 198.811 21.9367 198.749 21.6592 198.635C21.3873 198.513 21.15 198.339 20.9475 198.113C20.745 197.886 20.594 197.6 20.4947 197.253L20.4562 197.119C20.3585 196.778 20.3356 196.457 20.3875 196.158C20.4395 195.859 20.5493 195.588 20.7172 195.347C20.8905 195.097 21.1119 194.883 21.3815 194.702C21.6512 194.522 21.9521 194.385 22.2843 194.289C22.6447 194.186 22.9883 194.157 23.3149 194.203C23.647 194.241 23.9355 194.367 24.1805 194.581L24.3077 194.545L24.1202 193.891L24.9472 193.654L25.894 196.959C25.9421 197.127 26.0615 197.183 26.2524 197.128L26.5174 197.053L26.6905 197.656L26.1286 197.817C25.8883 197.886 25.6727 197.881 25.482 197.803C25.2983 197.722 25.1792 197.587 25.1248 197.397L25.1103 197.347ZM23.4717 198.034C23.7191 197.963 23.9349 197.862 24.119 197.731C24.3102 197.597 24.4608 197.442 24.5708 197.265C24.6808 197.089 24.7517 196.896 24.7837 196.687C24.814 196.472 24.7963 196.251 24.7306 196.021L24.7018 195.921C24.6377 195.697 24.5368 195.505 24.3991 195.345C24.2599 195.179 24.0932 195.051 23.8993 194.961C23.7124 194.87 23.5025 194.818 23.2697 194.806C23.0423 194.786 22.8084 194.811 22.5681 194.88C22.3207 194.951 22.105 195.052 21.9208 195.183C21.7367 195.315 21.5861 195.47 21.4691 195.649C21.3575 195.82 21.2865 196.013 21.2562 196.227C21.2242 196.436 21.2403 196.652 21.3044 196.876L21.3428 197.01C21.479 197.485 21.7411 197.813 22.129 197.992C22.5223 198.164 22.9699 198.178 23.4717 198.034Z" fill="#FFFCE5"/>
<path d="M26.7421 193.139L28.3642 192.675L28.0614 191.618C28.0069 191.428 28.0363 191.25 28.1495 191.084C28.2697 190.917 28.45 190.798 28.6903 190.73L30.7683 190.134L30.9413 190.738L29.1602 191.249C28.9693 191.303 28.898 191.414 28.946 191.582L29.1911 192.438L31.3857 191.809L31.5588 192.413L29.3642 193.042L30.3831 196.599L29.5562 196.836L28.5372 193.279L26.9151 193.743L26.7421 193.139Z" fill="#FFFCE5"/>
<path d="M36.0798 189.121C36.0333 188.959 36.0647 188.801 36.1741 188.649C36.2888 188.489 36.4487 188.38 36.6537 188.321C36.8587 188.262 37.0486 188.272 37.2236 188.348C37.4041 188.418 37.5176 188.534 37.564 188.696C37.6105 188.858 37.5763 189.019 37.4616 189.179C37.3522 189.331 37.1951 189.437 36.9901 189.496C36.7852 189.554 36.5924 189.549 36.412 189.48C36.237 189.403 36.1262 189.283 36.0798 189.121ZM37.9667 194.426L36.9477 190.869L35.1136 191.395L36.1326 194.951L35.3056 195.188L34.2867 191.632L33.0463 191.987L32.8732 191.383L34.1136 191.028L33.8589 190.138C33.8044 189.948 33.8338 189.77 33.947 189.605C34.0672 189.437 34.2475 189.319 34.4878 189.25L35.6116 188.928L35.7846 189.532L34.9577 189.769C34.7668 189.824 34.6955 189.935 34.7435 190.103L34.9406 190.791L37.6017 190.028L38.7937 194.189L37.9667 194.426Z" fill="#FFFCE5"/>
<path d="M45.4666 190.68C45.4757 190.925 45.4376 191.166 45.3524 191.402C45.2741 191.637 45.1498 191.857 44.9795 192.063C44.8075 192.264 44.5913 192.443 44.3311 192.603C44.0708 192.762 43.7675 192.891 43.4211 192.99C43.0536 193.096 42.6901 193.148 42.3307 193.149C41.9783 193.147 41.6528 193.092 41.3542 192.984C41.0539 192.87 40.792 192.703 40.5682 192.483C40.3516 192.26 40.1944 191.978 40.0966 191.637L40.0678 191.537C39.9717 191.201 39.9558 190.879 40.0203 190.57C40.0918 190.259 40.2248 189.976 40.4193 189.72C40.6138 189.465 40.8592 189.24 41.1555 189.047C41.4589 188.851 41.7943 188.7 42.1619 188.595C42.494 188.5 42.8127 188.451 43.1179 188.448C43.423 188.445 43.7024 188.486 43.9561 188.571C44.2153 188.648 44.44 188.765 44.6304 188.922C44.8278 189.078 44.9841 189.263 45.0993 189.478L44.3156 189.866C44.2528 189.727 44.1597 189.602 44.0364 189.492C43.9186 189.374 43.7746 189.286 43.6044 189.225C43.4397 189.158 43.2496 189.121 43.034 189.117C42.8185 189.112 42.58 189.147 42.3185 189.222C42.064 189.295 41.8349 189.403 41.6312 189.546C41.4329 189.681 41.269 189.843 41.1394 190.031C41.0082 190.214 40.9204 190.415 40.8759 190.633C40.8385 190.85 40.8519 191.07 40.916 191.294L40.9448 191.394C41.0121 191.629 41.1189 191.829 41.2653 191.992C41.4171 192.149 41.5962 192.267 41.8027 192.347C42.0092 192.427 42.2359 192.471 42.4829 192.479C42.7283 192.481 42.9818 192.445 43.2433 192.37C43.5048 192.295 43.7222 192.199 43.8954 192.083C44.0741 191.959 44.2161 191.828 44.3216 191.689C44.4325 191.542 44.5076 191.39 44.5469 191.234C44.5933 191.075 44.6097 190.919 44.5964 190.766L45.4666 190.68Z" fill="#FFFCE5"/>
<path d="M52.4646 185.77L54.3729 185.224L54.5315 185.777L54.6587 185.741C54.7273 185.473 54.8701 185.251 55.087 185.074C55.3024 184.891 55.5691 184.754 55.8871 184.663C56.4172 184.511 56.8841 184.525 57.2877 184.706C57.6913 184.887 57.9791 185.237 58.1509 185.757L57.3104 186.107C57.1998 185.721 57.0039 185.477 56.7226 185.377C56.4397 185.27 56.1286 185.265 55.7893 185.362C55.5702 185.425 55.389 185.513 55.2457 185.627C55.1094 185.739 55.0051 185.869 54.9327 186.016C54.8603 186.164 54.8218 186.323 54.8172 186.494C54.8126 186.665 54.8359 186.84 54.8872 187.019L55.3919 188.78L56.7277 188.398L56.9007 189.002L53.5293 189.968L53.3563 189.364L54.5649 189.017L53.719 186.065L52.6376 186.374L52.4646 185.77Z" fill="#FFFCE5"/>
<path d="M63.0061 182.75L63.833 182.513L65.025 186.674L64.198 186.911L63.9818 186.156L63.8545 186.193C63.7618 186.51 63.6001 186.786 63.3693 187.021C63.1385 187.257 62.811 187.436 62.387 187.557C62.0972 187.64 61.8174 187.678 61.5476 187.67C61.2864 187.667 61.0459 187.614 60.8259 187.514C60.6131 187.412 60.4251 187.263 60.2621 187.067C60.1061 186.87 59.9856 186.623 59.9007 186.327L59.1894 183.844L60.0163 183.607L60.7036 186.006C60.8286 186.442 61.033 186.729 61.3169 186.865C61.6007 187.002 61.9759 187.003 62.4424 186.869C62.9442 186.726 63.298 186.479 63.5038 186.13C63.7151 185.773 63.7559 185.368 63.6261 184.915L63.0061 182.75Z" fill="#FFFCE5"/>
<path d="M66.7635 185.523L68.6719 184.976L67.3357 180.312L65.4909 180.84L65.3179 180.236L67.9896 179.471L69.4988 184.739L71.4071 184.192L71.5802 184.796L66.9366 186.127L66.7635 185.523Z" fill="#FFFCE5"/>
<path d="M73.4941 182.215C73.6339 182.622 73.8918 182.909 74.2678 183.073C74.6438 183.238 75.1039 183.242 75.6482 183.086C75.8955 183.015 76.1047 182.931 76.2756 182.834C76.4466 182.736 76.5845 182.63 76.6893 182.516C76.8011 182.399 76.8815 182.279 76.9304 182.156C76.9848 182.026 77.0199 181.894 77.0357 181.763L77.8683 181.706C77.8304 182.134 77.6453 182.529 77.3129 182.891C76.986 183.245 76.4833 183.519 75.8048 183.713C75.4302 183.82 75.0694 183.869 74.7226 183.86C74.3811 183.843 74.0701 183.771 73.7894 183.646C73.5088 183.521 73.2672 183.345 73.0647 183.118C72.8622 182.892 72.7152 182.619 72.6239 182.301L72.5662 182.099C72.4829 181.808 72.4688 181.519 72.524 181.231C72.5862 180.941 72.7082 180.673 72.8902 180.427C73.0706 180.176 73.3018 179.955 73.584 179.765C73.8716 179.568 74.1992 179.417 74.5667 179.311C74.9978 179.188 75.3873 179.146 75.7352 179.185C76.0885 179.217 76.3905 179.297 76.6413 179.425C76.8991 179.551 77.1052 179.71 77.2596 179.901C77.421 180.091 77.5282 180.278 77.5811 180.463L77.7349 181L73.4941 182.215ZM74.7445 179.932C74.5113 179.999 74.301 180.092 74.1137 180.213C73.9318 180.325 73.7783 180.457 73.6533 180.608C73.5353 180.757 73.4476 180.918 73.3903 181.092C73.3385 181.258 73.3225 181.429 73.3423 181.605L76.7349 180.633C76.6695 180.458 76.5665 180.312 76.4259 180.195C76.2923 180.076 76.1334 179.988 75.9491 179.932C75.7718 179.874 75.5762 179.845 75.3623 179.846C75.1554 179.845 74.9495 179.873 74.7445 179.932Z" fill="#FFFCE5"/>
<path d="M80.1273 179.007C80.185 179.209 80.3351 179.332 80.5776 179.377C80.8271 179.421 81.2429 179.377 81.825 179.247C82.4512 179.11 82.9513 179.094 83.3254 179.198C83.705 179.295 83.9477 179.528 84.0534 179.898L84.0678 179.948C84.1255 180.149 84.1246 180.346 84.065 180.539C84.0109 180.724 83.908 180.898 83.7563 181.063C83.6117 181.225 83.4166 181.372 83.1711 181.503C82.9343 181.637 82.6639 181.748 82.36 181.835C81.95 181.953 81.5846 182.012 81.2637 182.013C80.9483 182.007 80.6716 181.962 80.4337 181.879C80.2012 181.788 80.0098 181.667 79.8596 181.517C79.7078 181.36 79.5984 181.192 79.5314 181.012L80.2727 180.636C80.3993 180.944 80.6285 181.157 80.9602 181.274C81.2904 181.385 81.6851 181.375 82.1445 181.243C82.5333 181.132 82.8274 180.984 83.027 180.8C83.2321 180.608 83.3034 180.403 83.2409 180.185C83.1736 179.95 83.0089 179.816 82.7468 179.782C82.4848 179.748 82.0882 179.792 81.5572 179.914C80.9397 180.054 80.4412 180.076 80.0616 179.979C79.682 179.882 79.4401 179.652 79.336 179.288L79.3216 179.238C79.2655 179.042 79.2696 178.857 79.334 178.681C79.3968 178.499 79.5021 178.333 79.6499 178.182C79.8049 178.029 79.9882 177.894 80.2 177.779C80.4117 177.664 80.6413 177.571 80.8887 177.5C81.235 177.401 81.5501 177.353 81.8341 177.356C82.1164 177.354 82.3635 177.389 82.5755 177.462C82.7858 177.529 82.9594 177.627 83.0961 177.757C83.2399 177.886 83.3484 178.024 83.4215 178.172L82.6802 178.548C82.568 178.29 82.3701 178.12 82.0865 178.037C81.81 177.953 81.481 177.966 81.0993 178.075C80.9509 178.118 80.81 178.173 80.6766 178.242C80.5487 178.303 80.439 178.373 80.3474 178.454C80.2558 178.535 80.1894 178.623 80.1482 178.72C80.1055 178.811 80.0985 178.907 80.1273 179.007Z" fill="#FFFCE5"/>
<path d="M150.691 25.2003L198.552 49.0835L209.438 56.7122L203.77 61.4068L147.053 32.7997L150.691 25.2003Z" fill="#FFCC3E"/>
<path d="M154.387 30.6763C154.452 30.5401 154.482 30.4066 154.475 30.2756C154.473 30.1466 154.442 30.026 154.383 29.9138C154.323 29.8016 154.242 29.6988 154.139 29.6052C154.036 29.5117 153.919 29.4332 153.787 29.37C153.671 29.3144 153.553 29.2777 153.433 29.2598C153.316 29.238 153.202 29.235 153.091 29.2508C152.984 29.2685 152.886 29.3079 152.798 29.369C152.711 29.4261 152.642 29.5087 152.59 29.6168L152.573 29.6528C152.518 29.7689 152.494 29.8806 152.502 29.9877C152.511 30.0907 152.548 30.1944 152.611 30.2985C152.68 30.4006 152.775 30.5052 152.896 30.6124C153.019 30.7155 153.168 30.8262 153.343 30.9443C153.751 31.2233 154.013 31.5088 154.129 31.8007C154.247 32.0886 154.23 32.3927 154.076 32.713L154.042 32.7851C153.955 32.9653 153.844 33.1161 153.707 33.2376C153.576 33.357 153.422 33.4411 153.246 33.4897C153.075 33.5403 152.884 33.5525 152.675 33.5263C152.466 33.5001 152.244 33.4304 152.007 33.3173C151.739 33.1888 151.519 33.0367 151.347 32.8609C151.181 32.6831 151.061 32.4925 150.986 32.2892C150.917 32.0839 150.89 31.8719 150.907 31.6532C150.925 31.4305 150.986 31.209 151.092 30.9887L151.178 30.8085L151.683 31.0501L151.614 31.1943C151.437 31.5627 151.405 31.8869 151.517 32.167C151.633 32.449 151.871 32.6762 152.232 32.8488C152.544 32.9984 152.811 33.0424 153.032 32.9811C153.259 32.9176 153.428 32.7718 153.537 32.5435L153.554 32.5075C153.66 32.2872 153.658 32.0798 153.55 31.885C153.445 31.6922 153.223 31.4825 152.884 31.256C152.685 31.1263 152.513 30.9923 152.367 30.8538C152.228 30.7132 152.12 30.5681 152.044 30.4184C151.97 30.2648 151.933 30.1066 151.932 29.9438C151.931 29.781 151.974 29.6094 152.06 29.4293L152.095 29.3572C152.173 29.193 152.279 29.0591 152.412 28.9556C152.546 28.852 152.696 28.779 152.864 28.7364C153.036 28.6957 153.219 28.6896 153.412 28.7181C153.611 28.7445 153.813 28.8066 154.017 28.9043C154.253 29.0175 154.447 29.1522 154.599 29.3084C154.754 29.4666 154.868 29.6345 154.941 29.8119C155.015 29.9854 155.047 30.1656 155.037 30.3524C155.032 30.5372 154.989 30.7136 154.909 30.8818L154.788 31.1341L154.283 30.8925L154.387 30.6763Z" fill="black"/>
<path d="M156.73 34.8549L156.658 34.8204C156.466 34.9746 156.261 35.0586 156.042 35.0722C155.828 35.0878 155.627 35.0505 155.439 34.9604C155.243 34.8664 155.076 34.7472 154.938 34.6026C154.803 34.454 154.702 34.2849 154.635 34.0954C154.574 33.9039 154.552 33.6967 154.571 33.474C154.589 33.2513 154.657 33.0158 154.776 32.7675L154.822 32.6714C154.939 32.4272 155.078 32.2282 155.241 32.0745C155.403 31.9208 155.577 31.8096 155.762 31.7409C155.954 31.6701 156.15 31.6409 156.35 31.6534C156.551 31.6659 156.746 31.7171 156.934 31.8073C157.138 31.905 157.3 32.0393 157.42 32.21C157.546 32.3786 157.612 32.5801 157.618 32.8143L157.69 32.8488L157.915 32.3803L158.383 32.6046L157.25 34.9712C157.193 35.0913 157.218 35.1772 157.326 35.229L157.476 35.3009L157.269 35.7334L156.951 35.5809C156.815 35.5157 156.724 35.418 156.678 35.2877C156.636 35.1594 156.647 35.0271 156.713 34.891L156.73 34.8549ZM155.7 34.5389C155.84 34.606 155.98 34.6414 156.122 34.6449C156.267 34.6504 156.404 34.6252 156.534 34.5693C156.664 34.5135 156.785 34.431 156.896 34.3219C157.01 34.2088 157.106 34.0701 157.184 33.9059L157.219 33.8338C157.295 33.6737 157.341 33.516 157.357 33.3609C157.374 33.2017 157.361 33.053 157.319 32.9147C157.281 32.7783 157.214 32.6554 157.119 32.5458C157.03 32.4341 156.917 32.3457 156.781 32.2805C156.641 32.2134 156.5 32.1781 156.359 32.1745C156.218 32.171 156.081 32.1962 155.947 32.2501C155.818 32.3019 155.698 32.3844 155.584 32.4975C155.473 32.6067 155.379 32.7413 155.302 32.9015L155.256 32.9976C155.093 33.338 155.054 33.6464 155.138 33.923C155.228 34.1975 155.415 34.4028 155.7 34.5389Z" fill="black"/>
<path d="M159.4 33.0915L160.319 33.5316L160.682 32.7748C160.747 32.6386 160.842 32.5466 160.969 32.4988C161.099 32.4529 161.232 32.4625 161.368 32.5277L162.546 33.0914L162.339 33.5239L161.329 33.0407C161.221 32.9889 161.139 33.0231 161.081 33.1432L160.788 33.7559L162.031 34.3512L161.824 34.7837L160.581 34.1884L159.361 36.7351L158.893 36.5108L160.112 33.964L159.193 33.524L159.4 33.0915Z" fill="black"/>
<path d="M162.668 36.6646C162.538 36.9667 162.516 37.249 162.602 37.5117C162.688 37.7743 162.885 37.9795 163.193 38.1271C163.334 38.1942 163.463 38.2367 163.583 38.2545C163.702 38.2723 163.811 38.2704 163.91 38.2489C164.013 38.2293 164.104 38.194 164.183 38.143C164.267 38.0899 164.344 38.028 164.412 37.9574L164.799 38.2903C164.582 38.5263 164.318 38.6778 164.005 38.7447C163.699 38.8095 163.353 38.7499 162.969 38.5658C162.756 38.4642 162.577 38.3342 162.432 38.1759C162.292 38.0154 162.191 37.8364 162.128 37.6389C162.065 37.4414 162.042 37.2313 162.06 37.0086C162.078 36.7859 162.142 36.5604 162.251 36.3322L162.32 36.188C162.42 35.9798 162.549 35.8028 162.707 35.6572C162.87 35.5134 163.048 35.4091 163.241 35.3442C163.437 35.2753 163.64 35.2471 163.85 35.2593C164.067 35.2695 164.279 35.3245 164.488 35.4242C164.732 35.5412 164.92 35.6879 165.052 35.8643C165.19 36.0387 165.284 36.2188 165.332 36.4046C165.385 36.5924 165.4 36.7768 165.378 36.9579C165.359 37.1409 165.318 37.2985 165.255 37.4306L165.071 37.815L162.668 36.6646ZM164.275 35.8687C164.143 35.8054 164.008 35.768 163.871 35.7564C163.74 35.7428 163.612 35.7529 163.487 35.7868C163.367 35.8226 163.253 35.8792 163.147 35.9564C163.047 36.0316 162.961 36.1254 162.887 36.2379L164.809 37.1582C164.863 37.0263 164.886 36.8948 164.88 36.7638C164.878 36.6348 164.85 36.5132 164.796 36.3989C164.747 36.2866 164.675 36.1835 164.582 36.0898C164.493 35.998 164.391 35.9243 164.275 35.8687Z" fill="black"/>
<path d="M171.562 42.0161L171.49 41.9816C171.398 42.0506 171.297 42.101 171.189 42.1327C171.084 42.1662 170.977 42.1839 170.868 42.1858C170.763 42.1896 170.657 42.1785 170.552 42.1525C170.444 42.1305 170.346 42.0984 170.258 42.0562C170.058 41.9603 169.888 41.8372 169.748 41.6866C169.609 41.5361 169.504 41.3651 169.433 41.1737C169.366 40.9842 169.34 40.7772 169.354 40.5525C169.374 40.3258 169.442 40.0903 169.559 39.8461L169.605 39.75C169.72 39.5097 169.861 39.3137 170.027 39.1619C170.195 39.0062 170.374 38.8949 170.563 38.8281C170.755 38.7573 170.953 38.7291 171.158 38.7435C171.362 38.7578 171.561 38.811 171.753 38.9031C171.957 39.0009 172.126 39.138 172.258 39.3145C172.396 39.4888 172.468 39.6931 172.474 39.9273L172.546 39.9619L173.357 38.268L173.825 38.4924L171.812 42.6969L171.343 42.4726L171.562 42.0161ZM170.519 41.6347C170.659 41.7019 170.802 41.7381 170.947 41.7436C171.092 41.7491 171.231 41.7248 171.366 41.6709C171.504 41.6189 171.63 41.5393 171.746 41.4321C171.863 41.3209 171.961 41.1832 172.039 41.019L172.074 40.9469C172.151 40.7867 172.195 40.6281 172.206 40.4711C172.219 40.31 172.203 40.1593 172.156 40.0191C172.114 39.8809 172.044 39.756 171.945 39.6445C171.851 39.5309 171.737 39.4415 171.6 39.3763C171.46 39.3092 171.316 39.272 171.167 39.2646C171.021 39.2591 170.88 39.2824 170.742 39.3344C170.608 39.3883 170.483 39.4689 170.368 39.5761C170.256 39.6852 170.162 39.8199 170.086 39.9801L170.04 40.0762C169.959 40.2443 169.911 40.406 169.896 40.5612C169.885 40.7182 169.9 40.8659 169.942 41.0042C169.99 41.1404 170.062 41.2633 170.157 41.3728C170.254 41.4784 170.375 41.5657 170.519 41.6347Z" fill="black"/>
<path d="M173.973 40.0694L175.054 40.5871L174.864 40.9835L174.937 41.0181C175.091 40.8903 175.257 40.822 175.433 40.813C175.612 40.8 175.791 40.8367 175.971 40.9229C176.272 41.0667 176.467 41.2808 176.557 41.5652C176.648 41.8497 176.609 42.1829 176.44 42.5651L175.913 42.4013C176.046 42.125 176.074 41.8952 176 41.7118C175.927 41.5244 175.795 41.3847 175.603 41.2926C175.478 41.2332 175.359 41.2055 175.244 41.2094C175.133 41.2153 175.027 41.2459 174.926 41.3012C174.826 41.3565 174.735 41.4336 174.653 41.5322C174.572 41.6309 174.5 41.7444 174.439 41.8725L173.835 43.1339L174.592 43.4962L174.385 43.9287L172.475 43.0141L172.682 42.5817L173.366 42.9095L174.379 40.7953L173.766 40.5019L173.973 40.0694Z" fill="black"/>
<path d="M179.17 41.4649C179.225 41.3488 179.312 41.2699 179.431 41.2281C179.555 41.1843 179.675 41.1902 179.792 41.2458C179.908 41.3014 179.986 41.3904 180.025 41.5129C180.071 41.6332 180.066 41.7515 180.011 41.8676C179.955 41.9837 179.865 42.0637 179.741 42.1075C179.622 42.1492 179.505 42.1423 179.389 42.0867C179.273 42.0311 179.192 41.9431 179.146 41.8228C179.106 41.7003 179.114 41.5811 179.17 41.4649ZM176.672 44.4922L177.717 44.9927L178.729 42.8784L177.792 42.4297L177.999 41.9973L179.405 42.6703L178.185 45.217L179.158 45.6829L178.951 46.1154L176.465 44.9247L176.672 44.4922Z" fill="black"/>
<path d="M181.842 47.4996L180.917 47.0567L181.305 43.58L181.857 43.8446L181.447 47.0447L181.519 47.0792L183.755 44.7534L184.308 45.018L181.842 47.4996Z" fill="black"/>
<path d="M186.525 44.987C186.581 44.8708 186.668 44.7919 186.786 44.7502C186.911 44.7063 187.031 44.7122 187.147 44.7678C187.263 44.8234 187.341 44.9124 187.381 45.0349C187.427 45.1552 187.422 45.2735 187.366 45.3896C187.311 45.5057 187.221 45.5857 187.096 45.6295C186.978 45.6713 186.861 45.6643 186.744 45.6087C186.628 45.5531 186.547 45.4651 186.502 45.3448C186.462 45.2224 186.47 45.1031 186.525 44.987ZM184.027 48.0143L185.072 48.5147L186.085 46.4004L185.148 45.9517L185.355 45.5193L186.76 46.1923L185.541 48.739L186.514 49.2049L186.307 49.6374L183.82 48.4467L184.027 48.0143Z" fill="black"/>
<path d="M187.894 50.3975L187.426 50.1732L188.852 47.194L189.321 47.4183L189.079 47.9229L189.151 47.9574C189.524 47.6532 189.938 47.6104 190.394 47.8289C190.739 47.9938 190.961 48.2333 191.062 48.5473C191.164 48.8573 191.113 49.2265 190.908 49.655L190.057 51.4329L189.588 51.2086L190.394 49.5268C190.543 49.2144 190.585 48.9466 190.52 48.7234C190.454 48.5001 190.302 48.3309 190.061 48.2159C189.777 48.0798 189.506 48.0705 189.248 48.1881C188.996 48.3036 188.792 48.5235 188.636 48.8479L187.894 50.3975Z" fill="black"/>
<path d="M193.587 52.562L193.515 52.5275C193.332 52.6617 193.135 52.7345 192.923 52.7461C192.716 52.7556 192.515 52.7134 192.319 52.6194C192.119 52.5235 191.947 52.3994 191.803 52.2469C191.659 52.0945 191.55 51.9216 191.475 51.7283C191.405 51.5369 191.374 51.3279 191.384 51.1014C191.4 50.8727 191.467 50.6363 191.584 50.392L191.63 50.2959C191.745 50.0557 191.887 49.8606 192.058 49.7107C192.23 49.5569 192.413 49.4475 192.606 49.3827C192.801 49.3138 193.004 49.2875 193.212 49.3038C193.421 49.3201 193.622 49.3742 193.814 49.4663C194.03 49.5698 194.195 49.708 194.309 49.8808C194.429 50.0515 194.492 50.249 194.498 50.4733L194.57 50.5078L194.795 50.0393L195.263 50.2636L193.486 53.9756C193.421 54.1118 193.323 54.2028 193.193 54.2487C193.066 54.2965 192.935 54.2878 192.799 54.2227L190.859 53.2937L191.066 52.8612L192.838 53.7097C192.946 53.7614 193.029 53.7273 193.086 53.6071L193.587 52.562ZM192.544 52.1807C192.684 52.2478 192.826 52.2841 192.971 52.2895C193.116 52.295 193.256 52.2708 193.39 52.2169C193.528 52.1649 193.655 52.0852 193.77 51.978C193.888 51.8668 193.986 51.7291 194.064 51.5649L194.099 51.4929C194.175 51.3327 194.219 51.1741 194.231 51.017C194.244 50.8559 194.227 50.7053 194.181 50.5651C194.139 50.4268 194.068 50.3019 193.969 50.1904C193.876 50.0768 193.761 49.9874 193.625 49.9223C193.485 49.8551 193.34 49.8179 193.191 49.8105C193.046 49.8051 192.905 49.8283 192.766 49.8803C192.632 49.9343 192.508 50.0148 192.392 50.122C192.281 50.2312 192.187 50.3658 192.11 50.526L192.064 50.6221C191.984 50.7903 191.936 50.9519 191.921 51.1071C191.909 51.2642 191.925 51.4118 191.967 51.5501C192.015 51.6863 192.087 51.8092 192.182 51.9188C192.279 52.0244 192.399 52.1117 192.544 52.1807Z" fill="black"/>
<path d="M103 246.62L209.541 179L209.781 195.356L112.417 261.458L103 246.62Z" fill="#5D50A2"/>
<path d="M110.753 247.37L111.449 246.928L114.075 251.065L117.111 249.138L117.44 249.657L113.708 252.026L110.753 247.37Z" fill="#FFFCE5"/>
<path d="M117.345 243.709C117.263 243.58 117.249 243.436 117.304 243.277C117.361 243.111 117.469 242.976 117.63 242.874C117.79 242.773 117.955 242.733 118.125 242.756C118.297 242.771 118.424 242.843 118.506 242.972C118.587 243.1 118.6 243.248 118.543 243.415C118.488 243.574 118.381 243.704 118.221 243.806C118.06 243.907 117.894 243.951 117.722 243.936C117.552 243.913 117.426 243.837 117.345 243.709ZM118.582 248.261L120.025 247.345L118.539 245.003L117.245 245.825L116.941 245.346L118.882 244.114L120.672 246.934L122.015 246.081L122.319 246.56L118.886 248.74L118.582 248.261Z" fill="#FFFCE5"/>
<path d="M126.97 241.967C127.041 242.176 127.07 242.394 127.058 242.619C127.052 242.841 127.002 243.063 126.909 243.283C126.814 243.499 126.675 243.709 126.493 243.911C126.312 244.113 126.085 244.301 125.814 244.473C125.527 244.655 125.229 244.791 124.922 244.881C124.619 244.967 124.326 245 124.043 244.981C123.756 244.958 123.489 244.878 123.241 244.744C122.998 244.606 122.791 244.401 122.619 244.131L122.568 244.051C122.399 243.785 122.303 243.51 122.278 243.227C122.259 242.941 122.3 242.663 122.401 242.394C122.501 242.125 122.654 241.869 122.857 241.628C123.066 241.383 123.315 241.17 123.602 240.987C123.862 240.822 124.122 240.701 124.383 240.622C124.643 240.544 124.893 240.51 125.132 240.52C125.374 240.522 125.597 240.567 125.8 240.656C126.009 240.741 126.191 240.862 126.345 241.019L125.774 241.55C125.684 241.445 125.573 241.36 125.439 241.296C125.307 241.224 125.161 241.183 125 241.173C124.842 241.156 124.669 241.172 124.484 241.221C124.298 241.27 124.103 241.36 123.898 241.49C123.699 241.616 123.531 241.767 123.393 241.941C123.258 242.107 123.16 242.288 123.097 242.483C123.032 242.674 123.009 242.869 123.027 243.069C123.051 243.265 123.119 243.452 123.232 243.63L123.282 243.71C123.401 243.896 123.543 244.041 123.711 244.147C123.881 244.244 124.065 244.301 124.263 244.319C124.46 244.337 124.666 244.318 124.879 244.264C125.09 244.205 125.297 244.11 125.502 243.98C125.707 243.851 125.868 243.714 125.986 243.57C126.107 243.419 126.195 243.27 126.249 243.123C126.307 242.969 126.332 242.819 126.325 242.674C126.324 242.526 126.298 242.387 126.247 242.257L126.97 241.967Z" fill="#FFFCE5"/>
<path d="M128.47 240.567C128.695 240.884 128.989 241.067 129.354 241.116C129.718 241.165 130.113 241.054 130.539 240.784C130.732 240.661 130.89 240.536 131.011 240.409C131.132 240.283 131.223 240.157 131.283 240.031C131.349 239.903 131.386 239.779 131.397 239.661C131.41 239.534 131.406 239.412 131.385 239.295L132.084 239.038C132.162 239.418 132.105 239.805 131.914 240.2C131.725 240.587 131.365 240.949 130.835 241.286C130.541 241.472 130.245 241.604 129.946 241.682C129.649 241.753 129.364 241.768 129.092 241.73C128.819 241.692 128.567 241.6 128.335 241.454C128.103 241.309 127.907 241.11 127.747 240.857L127.645 240.698C127.499 240.467 127.412 240.221 127.385 239.958C127.364 239.692 127.399 239.43 127.491 239.172C127.581 238.91 127.722 238.662 127.915 238.427C128.11 238.185 128.352 237.973 128.639 237.79C128.976 237.576 129.299 237.443 129.607 237.391C129.918 237.33 130.197 237.324 130.445 237.372C130.698 237.417 130.915 237.503 131.097 237.63C131.284 237.754 131.424 237.889 131.517 238.035L131.787 238.461L128.47 240.567ZM128.951 238.283C128.769 238.398 128.613 238.532 128.484 238.682C128.357 238.825 128.26 238.977 128.191 239.138C128.129 239.296 128.095 239.457 128.091 239.622C128.09 239.778 128.12 239.93 128.182 240.077L130.836 238.393C130.735 238.258 130.609 238.157 130.459 238.091C130.314 238.021 130.155 237.985 129.983 237.983C129.816 237.977 129.641 238.001 129.458 238.054C129.281 238.105 129.112 238.181 128.951 238.283Z" fill="#FFFCE5"/>
<path d="M134.668 238.723L134.021 239.133L131.927 235.834L132.574 235.424L132.928 235.983L133.028 235.919C133.006 235.323 133.311 234.825 133.941 234.425C134.417 234.123 134.871 234.003 135.305 234.063C135.737 234.119 136.103 234.385 136.404 234.859L137.653 236.828L137.006 237.238L135.824 235.376C135.605 235.03 135.344 234.832 135.04 234.782C134.737 234.732 134.419 234.812 134.088 235.023C133.695 235.272 133.454 235.577 133.366 235.938C133.28 236.291 133.351 236.648 133.579 237.007L134.668 238.723Z" fill="#FFFCE5"/>
<path d="M142.204 232.297C142.275 232.507 142.305 232.725 142.293 232.95C142.286 233.172 142.237 233.393 142.144 233.614C142.049 233.83 141.91 234.039 141.728 234.242C141.546 234.444 141.32 234.631 141.049 234.803C140.762 234.986 140.464 235.122 140.156 235.211C139.854 235.297 139.561 235.331 139.278 235.312C138.991 235.288 138.724 235.209 138.475 235.075C138.233 234.936 138.025 234.732 137.854 234.461L137.803 234.382C137.634 234.116 137.537 233.841 137.513 233.558C137.494 233.271 137.535 232.994 137.635 232.724C137.736 232.455 137.888 232.2 138.092 231.959C138.301 231.714 138.549 231.5 138.837 231.318C139.097 231.153 139.357 231.031 139.618 230.953C139.878 230.875 140.128 230.841 140.367 230.851C140.609 230.853 140.831 230.898 141.035 230.987C141.244 231.072 141.426 231.193 141.58 231.35L141.009 231.88C140.919 231.776 140.807 231.691 140.673 231.627C140.542 231.554 140.396 231.514 140.235 231.504C140.076 231.486 139.904 231.502 139.718 231.552C139.533 231.601 139.337 231.691 139.133 231.821C138.934 231.947 138.765 232.097 138.628 232.272C138.493 232.438 138.395 232.619 138.332 232.814C138.267 233.005 138.244 233.2 138.262 233.4C138.286 233.596 138.354 233.783 138.466 233.961L138.517 234.04C138.635 234.227 138.778 234.372 138.946 234.477C139.116 234.575 139.3 234.632 139.497 234.65C139.695 234.668 139.9 234.649 140.114 234.595C140.324 234.535 140.532 234.441 140.737 234.311C140.941 234.181 141.103 234.045 141.221 233.901C141.342 233.75 141.43 233.601 141.484 233.454C141.541 233.3 141.566 233.15 141.56 233.005C141.559 232.856 141.532 232.718 141.481 232.588L142.204 232.297Z" fill="#FFFCE5"/>
<path d="M143.704 230.897C143.929 231.215 144.224 231.398 144.588 231.447C144.953 231.495 145.348 231.385 145.773 231.114C145.967 230.992 146.124 230.867 146.246 230.74C146.367 230.613 146.458 230.487 146.518 230.362C146.583 230.233 146.621 230.11 146.631 229.991C146.644 229.865 146.64 229.743 146.62 229.625L147.318 229.369C147.396 229.748 147.34 230.136 147.148 230.531C146.96 230.918 146.6 231.28 146.069 231.617C145.776 231.803 145.48 231.935 145.18 232.013C144.884 232.083 144.599 232.099 144.326 232.061C144.054 232.022 143.802 231.93 143.57 231.785C143.338 231.64 143.142 231.441 142.981 231.188L142.88 231.029C142.734 230.798 142.647 230.551 142.62 230.289C142.598 230.022 142.634 229.76 142.726 229.503C142.816 229.241 142.957 228.992 143.149 228.758C143.345 228.516 143.586 228.304 143.874 228.121C144.211 227.907 144.534 227.774 144.842 227.722C145.152 227.661 145.432 227.655 145.679 227.703C145.933 227.748 146.15 227.834 146.332 227.961C146.519 228.085 146.659 228.22 146.752 228.366L147.022 228.792L143.704 230.897ZM144.186 228.613C144.004 228.729 143.848 228.862 143.718 229.013C143.592 229.156 143.494 229.308 143.426 229.469C143.363 229.627 143.33 229.788 143.326 229.953C143.324 230.109 143.355 230.261 143.417 230.408L146.071 228.724C145.97 228.589 145.844 228.488 145.693 228.422C145.548 228.352 145.39 228.316 145.217 228.314C145.051 228.307 144.876 228.331 144.693 228.385C144.515 228.436 144.346 228.512 144.186 228.613Z" fill="#FFFCE5"/>
<path d="M156.965 223.787L156.865 223.851C156.873 224.157 156.792 224.438 156.622 224.696C156.457 224.949 156.245 225.159 155.985 225.324C155.714 225.496 155.44 225.62 155.163 225.696C154.883 225.768 154.609 225.789 154.342 225.76C154.078 225.722 153.83 225.631 153.598 225.486C153.366 225.34 153.163 225.13 152.989 224.855L152.921 224.749C152.75 224.478 152.647 224.207 152.615 223.936C152.582 223.664 152.606 223.403 152.688 223.152C152.772 222.894 152.906 222.653 153.09 222.43C153.275 222.208 153.497 222.014 153.757 221.849C154.039 221.67 154.325 221.559 154.617 221.518C154.911 221.468 155.19 221.505 155.455 221.629L155.555 221.566L155.226 221.047L155.872 220.637L157.536 223.257C157.62 223.39 157.737 223.409 157.886 223.315L158.094 223.183L158.398 223.662L157.958 223.941C157.77 224.06 157.584 224.11 157.401 224.089C157.223 224.065 157.086 223.978 156.99 223.827L156.965 223.787ZM155.739 224.789C155.933 224.666 156.091 224.525 156.215 224.366C156.344 224.203 156.433 224.032 156.482 223.851C156.53 223.671 156.541 223.487 156.515 223.299C156.486 223.106 156.413 222.918 156.298 222.737L156.247 222.657C156.135 222.479 155.999 222.339 155.839 222.234C155.677 222.126 155.502 222.057 155.313 222.028C155.129 221.995 154.936 222.002 154.733 222.05C154.534 222.09 154.34 222.169 154.152 222.288C153.958 222.411 153.8 222.552 153.676 222.712C153.552 222.871 153.463 223.043 153.409 223.226C153.358 223.402 153.347 223.586 153.376 223.779C153.403 223.968 153.472 224.15 153.585 224.328L153.652 224.434C153.892 224.811 154.2 225.029 154.579 225.087C154.96 225.138 155.347 225.038 155.739 224.789Z" fill="#FFFCE5"/>
<path d="M160.754 224.033L160.107 224.443L157.169 219.814L157.816 219.403L158.145 219.922L158.245 219.859C158.262 219.568 158.365 219.291 158.555 219.028C158.741 218.76 158.984 218.531 159.283 218.341C159.537 218.18 159.801 218.065 160.076 217.997C160.35 217.928 160.618 217.91 160.88 217.944C161.147 217.973 161.396 218.061 161.628 218.206C161.865 218.348 162.069 218.551 162.237 218.817L162.322 218.951C162.494 219.221 162.596 219.492 162.628 219.764C162.661 220.035 162.634 220.298 162.547 220.552C162.466 220.803 162.333 221.04 162.149 221.262C161.962 221.481 161.738 221.672 161.478 221.837C161.345 221.922 161.202 221.994 161.046 222.055C160.894 222.121 160.739 222.17 160.581 222.202C160.425 222.226 160.273 222.235 160.123 222.231C159.97 222.222 159.825 222.19 159.688 222.134L159.589 222.197L160.754 224.033ZM161.033 221.429C161.232 221.303 161.398 221.161 161.53 221.002C161.659 220.839 161.752 220.668 161.809 220.489C161.872 220.306 161.889 220.121 161.863 219.932C161.842 219.74 161.774 219.553 161.658 219.372L161.574 219.239C161.461 219.061 161.324 218.924 161.162 218.828C161.003 218.724 160.827 218.661 160.635 218.64C160.446 218.611 160.248 218.622 160.04 218.673C159.837 218.72 159.639 218.806 159.446 218.928C159.252 219.051 159.092 219.196 158.966 219.364C158.836 219.527 158.742 219.702 158.682 219.889C158.628 220.072 158.613 220.262 158.637 220.459C158.658 220.651 158.725 220.835 158.837 221.013L158.888 221.093C159.003 221.274 159.145 221.418 159.312 221.523C159.477 221.624 159.654 221.689 159.843 221.718C160.038 221.744 160.237 221.733 160.439 221.685C160.642 221.637 160.84 221.552 161.033 221.429Z" fill="#FFFCE5"/>
<path d="M165.832 220.809L165.185 221.22L162.247 216.591L162.894 216.18L163.223 216.699L163.323 216.636C163.34 216.345 163.443 216.068 163.633 215.804C163.82 215.537 164.062 215.308 164.361 215.118C164.615 214.957 164.88 214.842 165.154 214.774C165.429 214.705 165.697 214.687 165.958 214.72C166.225 214.75 166.475 214.837 166.706 214.983C166.944 215.124 167.147 215.328 167.316 215.594L167.4 215.727C167.572 215.998 167.674 216.269 167.707 216.541C167.739 216.812 167.712 217.075 167.626 217.329C167.544 217.58 167.411 217.817 167.227 218.039C167.04 218.258 166.816 218.449 166.556 218.614C166.424 218.699 166.28 218.771 166.125 218.832C165.972 218.898 165.817 218.947 165.659 218.979C165.504 219.003 165.351 219.012 165.201 219.008C165.048 218.999 164.903 218.967 164.767 218.911L164.667 218.974L165.832 220.809ZM166.111 218.206C166.31 218.08 166.476 217.938 166.608 217.779C166.737 217.616 166.83 217.445 166.887 217.266C166.95 217.083 166.968 216.898 166.941 216.709C166.92 216.517 166.852 216.33 166.737 216.149L166.652 216.016C166.54 215.838 166.402 215.701 166.24 215.605C166.081 215.501 165.906 215.438 165.714 215.417C165.525 215.388 165.326 215.399 165.118 215.45C164.915 215.497 164.718 215.583 164.524 215.705C164.33 215.828 164.17 215.973 164.044 216.141C163.915 216.304 163.82 216.479 163.761 216.666C163.707 216.849 163.691 217.039 163.715 217.236C163.736 217.428 163.803 217.612 163.916 217.79L163.966 217.87C164.082 218.051 164.223 218.195 164.391 218.3C164.555 218.401 164.732 218.466 164.922 218.495C165.116 218.521 165.315 218.51 165.517 218.462C165.72 218.414 165.918 218.329 166.111 218.206Z" fill="#FFFCE5"/>
<path d="M169.265 216.093L170.757 215.146L168.41 211.447L166.967 212.363L166.663 211.884L168.753 210.558L171.404 214.735L172.897 213.787L173.201 214.266L169.568 216.572L169.265 216.093Z" fill="#FFFCE5"/>
<path d="M173.205 208.255C173.124 208.126 173.11 207.982 173.164 207.824C173.221 207.657 173.33 207.522 173.49 207.421C173.651 207.319 173.816 207.279 173.985 207.302C174.158 207.317 174.285 207.389 174.366 207.518C174.448 207.646 174.46 207.794 174.403 207.961C174.349 208.12 174.242 208.25 174.081 208.352C173.921 208.454 173.755 208.497 173.582 208.482C173.413 208.459 173.287 208.383 173.205 208.255ZM174.442 212.807L175.885 211.891L174.399 209.55L173.106 210.371L172.802 209.892L174.742 208.66L176.532 211.48L177.876 210.628L178.18 211.106L174.746 213.286L174.442 212.807Z" fill="#FFFCE5"/>
<path d="M182.83 206.513C182.901 206.723 182.931 206.94 182.919 207.166C182.912 207.387 182.863 207.609 182.77 207.829C182.674 208.045 182.536 208.255 182.354 208.457C182.172 208.66 181.946 208.847 181.675 209.019C181.387 209.201 181.09 209.337 180.782 209.427C180.48 209.513 180.187 209.546 179.904 209.527C179.617 209.504 179.35 209.425 179.101 209.29C178.858 209.152 178.651 208.947 178.48 208.677L178.429 208.597C178.26 208.331 178.163 208.056 178.139 207.773C178.12 207.487 178.161 207.209 178.261 206.94C178.362 206.671 178.514 206.416 178.718 206.174C178.927 205.93 179.175 205.716 179.463 205.533C179.723 205.368 179.983 205.247 180.244 205.169C180.504 205.09 180.754 205.056 180.993 205.066C181.235 205.068 181.457 205.114 181.661 205.202C181.87 205.287 182.052 205.408 182.206 205.565L181.635 206.096C181.545 205.991 181.433 205.906 181.299 205.842C181.168 205.77 181.022 205.729 180.861 205.719C180.702 205.702 180.53 205.718 180.344 205.767C180.158 205.817 179.963 205.906 179.759 206.036C179.56 206.162 179.391 206.313 179.254 206.487C179.119 206.654 179.02 206.834 178.958 207.029C178.893 207.22 178.87 207.415 178.888 207.615C178.912 207.812 178.98 207.999 179.092 208.176L179.143 208.256C179.261 208.442 179.404 208.588 179.572 208.693C179.742 208.79 179.926 208.847 180.123 208.865C180.321 208.883 180.526 208.865 180.74 208.81C180.95 208.751 181.158 208.656 181.363 208.527C181.567 208.397 181.729 208.26 181.847 208.116C181.968 207.965 182.056 207.816 182.11 207.67C182.167 207.515 182.192 207.365 182.186 207.22C182.184 207.072 182.158 206.933 182.107 206.804L182.83 206.513Z" fill="#FFFCE5"/>
<path d="M187.434 204.449L187.335 204.512C187.343 204.818 187.262 205.1 187.091 205.357C186.927 205.611 186.715 205.82 186.455 205.985C186.184 206.157 185.91 206.281 185.632 206.358C185.352 206.43 185.079 206.451 184.812 206.421C184.548 206.384 184.299 206.292 184.068 206.147C183.836 206.002 183.633 205.792 183.458 205.517L183.391 205.411C183.219 205.14 183.117 204.869 183.084 204.597C183.051 204.326 183.076 204.065 183.157 203.814C183.241 203.555 183.375 203.315 183.56 203.092C183.744 202.869 183.966 202.675 184.226 202.51C184.508 202.331 184.795 202.221 185.086 202.179C185.38 202.129 185.66 202.166 185.925 202.291L186.024 202.227L185.695 201.709L186.342 201.298L188.005 203.919C188.09 204.052 188.206 204.071 188.356 203.976L188.563 203.845L188.867 204.323L188.427 204.602C188.24 204.722 188.054 204.771 187.87 204.751C187.692 204.727 187.555 204.64 187.46 204.489L187.434 204.449ZM186.209 205.451C186.402 205.328 186.561 205.187 186.685 205.028C186.814 204.865 186.903 204.693 186.951 204.513C187 204.333 187.011 204.149 186.984 203.96C186.955 203.767 186.883 203.58 186.767 203.398L186.717 203.318C186.604 203.141 186.468 203 186.309 202.896C186.147 202.787 185.971 202.718 185.782 202.689C185.598 202.656 185.405 202.664 185.203 202.711C185.003 202.751 184.809 202.831 184.621 202.95C184.428 203.073 184.269 203.214 184.145 203.373C184.022 203.533 183.933 203.704 183.879 203.888C183.827 204.064 183.816 204.248 183.846 204.441C183.872 204.629 183.942 204.812 184.054 204.989L184.122 205.096C184.361 205.473 184.67 205.69 185.048 205.749C185.429 205.799 185.816 205.7 186.209 205.451Z" fill="#FFFCE5"/>
<path d="M187.647 200.47L188.94 199.649L188.079 198.292L188.726 197.881L189.587 199.238L191.18 198.228L191.484 198.707L189.891 199.717L191.251 201.859C191.335 201.992 191.452 202.011 191.601 201.916L192.771 201.174L193.074 201.653L191.673 202.543C191.485 202.662 191.299 202.711 191.116 202.691C190.937 202.667 190.801 202.58 190.705 202.429L189.244 200.128L187.95 200.949L187.647 200.47Z" fill="#FFFCE5"/>
<path d="M193.518 195.362C193.437 195.234 193.423 195.09 193.477 194.931C193.534 194.764 193.643 194.63 193.803 194.528C193.964 194.427 194.129 194.387 194.298 194.41C194.471 194.425 194.598 194.497 194.679 194.625C194.761 194.754 194.773 194.902 194.716 195.069C194.662 195.227 194.555 195.358 194.394 195.46C194.234 195.561 194.068 195.605 193.895 195.59C193.725 195.567 193.6 195.491 193.518 195.362ZM194.755 199.914L196.198 198.999L194.712 196.657L193.419 197.478L193.115 197L195.055 195.768L196.845 198.588L198.189 197.735L198.493 198.214L195.059 200.393L194.755 199.914Z" fill="#FFFCE5"/>
<path d="M202.898 193.16C203.072 193.435 203.169 193.716 203.188 194.003C203.21 194.281 203.173 194.553 203.078 194.819C202.98 195.08 202.828 195.329 202.621 195.566C202.42 195.799 202.184 196.002 201.913 196.174C201.637 196.349 201.35 196.478 201.054 196.561C200.757 196.643 200.47 196.673 200.192 196.651C199.911 196.624 199.646 196.543 199.398 196.408C199.152 196.265 198.942 196.057 198.767 195.782L198.717 195.702C198.545 195.431 198.448 195.157 198.427 194.878C198.408 194.592 198.446 194.316 198.541 194.05C198.642 193.781 198.792 193.53 198.993 193.296C199.194 193.063 199.43 192.86 199.701 192.688C199.972 192.517 200.256 192.389 200.553 192.307C200.849 192.224 201.138 192.196 201.419 192.223C201.705 192.247 201.971 192.33 202.217 192.473C202.465 192.607 202.675 192.81 202.847 193.081L202.898 193.16ZM201.601 195.682C201.8 195.555 201.966 195.413 202.098 195.254C202.232 195.088 202.33 194.911 202.389 194.724C202.449 194.537 202.468 194.347 202.447 194.155C202.423 193.959 202.352 193.768 202.234 193.581L202.184 193.502C202.071 193.324 201.932 193.185 201.768 193.085C201.6 192.979 201.419 192.914 201.224 192.888C201.029 192.863 200.828 192.875 200.62 192.926C200.409 192.973 200.207 193.058 200.014 193.181C199.82 193.304 199.657 193.45 199.525 193.621C199.391 193.788 199.293 193.964 199.234 194.152C199.174 194.339 199.156 194.53 199.18 194.727C199.201 194.919 199.268 195.103 199.38 195.281L199.431 195.361C199.549 195.547 199.692 195.693 199.86 195.798C200.024 195.898 200.204 195.962 200.399 195.987C200.594 196.013 200.792 196.002 200.995 195.954C201.2 195.899 201.402 195.808 201.601 195.682Z" fill="#FFFCE5"/>
<path d="M205.763 193.6L205.116 194.01L203.022 190.711L203.669 190.301L204.024 190.859L204.123 190.796C204.102 190.2 204.406 189.702 205.037 189.302C205.512 189 205.967 188.88 206.401 188.94C206.832 188.996 207.198 189.262 207.499 189.736L208.749 191.705L208.102 192.115L206.92 190.253C206.7 189.907 206.439 189.709 206.136 189.659C205.832 189.609 205.515 189.689 205.183 189.9C204.791 190.149 204.55 190.454 204.461 190.815C204.375 191.168 204.446 191.525 204.674 191.884L205.763 193.6Z" fill="#FFFCE5"/>
<path d="M86.5542 110.748L201.038 119.44L194.395 146.213L174.394 133.285L84.5786 128.864L86.5542 110.748Z" fill="#467966"/>
<path d="M91.6408 115.881L93.5592 116.033L94.2636 122.665L94.4074 122.676L95.9573 116.222L97.8757 116.374L97.4301 123.272L96.4948 123.198L96.9176 116.655L96.7737 116.644L95.2238 123.097L93.4013 122.953L92.697 116.321L92.5531 116.31L92.1303 122.853L91.1951 122.779L91.6408 115.881Z" fill="#FFFCE5"/>
<path d="M104.794 121.457C104.768 121.865 104.66 122.219 104.472 122.521C104.292 122.817 104.06 123.063 103.774 123.258C103.488 123.447 103.158 123.583 102.783 123.665C102.416 123.749 102.037 123.775 101.645 123.744C101.246 123.712 100.87 123.626 100.517 123.486C100.165 123.346 99.8593 123.16 99.6011 122.928C99.3433 122.69 99.1405 122.41 98.9926 122.088C98.8531 121.76 98.7965 121.392 98.8228 120.985L98.8304 120.867C98.8563 120.466 98.9592 120.118 99.139 119.822C99.3272 119.52 99.5642 119.271 99.85 119.076C100.144 118.881 100.474 118.742 100.841 118.659C101.208 118.576 101.587 118.549 101.979 118.58C102.371 118.611 102.743 118.697 103.095 118.837C103.448 118.977 103.753 119.166 104.011 119.405C104.276 119.644 104.479 119.927 104.619 120.255C104.766 120.577 104.828 120.938 104.802 121.339L104.794 121.457ZM101.693 123.015C101.98 123.037 102.247 123.019 102.492 122.959C102.745 122.893 102.969 122.789 103.163 122.646C103.357 122.502 103.513 122.327 103.63 122.118C103.749 121.903 103.817 121.657 103.835 121.381L103.842 121.263C103.859 121 103.823 120.757 103.733 120.532C103.644 120.3 103.512 120.098 103.338 119.926C103.165 119.754 102.957 119.615 102.714 119.51C102.472 119.399 102.212 119.332 101.932 119.31C101.652 119.287 101.385 119.313 101.132 119.385C100.878 119.451 100.655 119.555 100.461 119.698C100.267 119.841 100.11 120.021 99.992 120.236C99.8741 120.444 99.8066 120.68 99.7897 120.943L99.782 121.061C99.7642 121.337 99.8 121.591 99.8895 121.822C99.9794 122.047 100.111 122.246 100.285 122.418C100.459 122.59 100.663 122.728 100.897 122.833C101.14 122.931 101.405 122.992 101.693 123.015Z" fill="#FFFCE5"/>
<path d="M106.482 119.075L108.353 119.223L108.482 117.213L109.418 117.287L109.288 119.297L111.59 119.479L111.544 120.189L109.242 120.007L109.037 123.179C109.024 123.377 109.126 123.484 109.342 123.501L111.032 123.634L110.986 124.344L108.96 124.184C108.688 124.162 108.469 124.072 108.303 123.914C108.144 123.756 108.072 123.565 108.086 123.342L108.307 119.933L106.436 119.785L106.482 119.075Z" fill="#FFFCE5"/>
<path d="M119.477 122.619C119.451 123.026 119.344 123.38 119.156 123.683C118.976 123.979 118.743 124.224 118.457 124.42C118.172 124.608 117.842 124.744 117.467 124.827C117.1 124.91 116.721 124.936 116.329 124.905C115.929 124.873 115.553 124.788 115.201 124.647C114.848 124.507 114.543 124.321 114.285 124.09C114.027 123.851 113.824 123.571 113.676 123.249C113.537 122.921 113.48 122.554 113.506 122.146L113.514 122.028C113.54 121.627 113.643 121.279 113.822 120.983C114.011 120.681 114.248 120.432 114.534 120.237C114.827 120.042 115.158 119.903 115.525 119.82C115.891 119.737 116.271 119.711 116.662 119.742C117.054 119.773 117.426 119.858 117.779 119.998C118.131 120.138 118.436 120.328 118.694 120.566C118.96 120.805 119.163 121.088 119.302 121.416C119.45 121.738 119.511 122.1 119.485 122.5L119.477 122.619ZM116.376 124.176C116.664 124.199 116.93 124.18 117.175 124.12C117.428 124.054 117.652 123.95 117.846 123.807C118.04 123.664 118.196 123.488 118.314 123.279C118.432 123.064 118.5 122.819 118.518 122.543L118.526 122.424C118.543 122.162 118.506 121.918 118.416 121.693C118.327 121.461 118.195 121.259 118.022 121.087C117.848 120.915 117.64 120.776 117.398 120.671C117.156 120.56 116.895 120.493 116.615 120.471C116.336 120.449 116.069 120.474 115.815 120.546C115.562 120.612 115.338 120.716 115.144 120.86C114.95 121.003 114.794 121.182 114.675 121.397C114.558 121.606 114.49 121.841 114.473 122.104L114.465 122.222C114.448 122.498 114.483 122.752 114.573 122.983C114.663 123.208 114.795 123.407 114.968 123.579C115.142 123.751 115.346 123.89 115.58 123.994C115.823 124.092 116.088 124.153 116.376 124.176Z" fill="#FFFCE5"/>
<path d="M121.034 120.226L123.192 120.397L123.15 121.047L123.294 121.058C123.463 120.801 123.692 120.621 123.98 120.518C124.268 120.409 124.592 120.369 124.951 120.397C125.551 120.445 126.024 120.644 126.371 120.995C126.718 121.346 126.883 121.831 126.868 122.45L125.877 122.491C125.906 122.037 125.795 121.702 125.544 121.484C125.293 121.259 124.976 121.132 124.593 121.102C124.345 121.082 124.126 121.104 123.937 121.169C123.757 121.234 123.602 121.33 123.473 121.459C123.344 121.587 123.246 121.741 123.178 121.921C123.11 122.1 123.069 122.295 123.056 122.505L122.922 124.575L124.433 124.694L124.387 125.404L120.574 125.102L120.62 124.393L121.987 124.501L122.211 121.032L120.988 120.935L121.034 120.226Z" fill="#FFFCE5"/>
<path d="M139.274 126.581L137.428 126.435L135.669 121.383L136.772 121.471L138.302 126.147L138.446 126.159L140.561 121.77L141.664 121.858L139.274 126.581Z" fill="#FFFCE5"/>
<path d="M143.905 124.729C143.897 125.217 144.056 125.622 144.381 125.945C144.705 126.268 145.175 126.453 145.791 126.502C146.071 126.524 146.316 126.517 146.527 126.481C146.739 126.445 146.919 126.387 147.069 126.306C147.227 126.226 147.354 126.13 147.449 126.019C147.553 125.902 147.637 125.777 147.702 125.643L148.577 125.91C148.38 126.35 148.044 126.697 147.57 126.95C147.104 127.197 146.487 127.29 145.72 127.229C145.296 127.196 144.908 127.106 144.556 126.959C144.213 126.806 143.92 126.608 143.679 126.365C143.437 126.121 143.255 125.839 143.131 125.519C143.007 125.199 142.957 124.852 142.981 124.477L142.996 124.241C143.018 123.899 143.111 123.586 143.274 123.302C143.445 123.018 143.669 122.782 143.947 122.593C144.224 122.397 144.543 122.254 144.902 122.163C145.27 122.067 145.662 122.035 146.077 122.068C146.565 122.106 146.98 122.215 147.322 122.394C147.672 122.567 147.952 122.771 148.162 123.005C148.38 123.24 148.532 123.49 148.62 123.755C148.715 124.02 148.756 124.261 148.742 124.477L148.701 125.108L143.905 124.729ZM146.03 122.797C145.766 122.776 145.516 122.793 145.28 122.847C145.052 122.895 144.846 122.974 144.662 123.085C144.486 123.197 144.337 123.333 144.214 123.495C144.099 123.651 144.019 123.827 143.975 124.021L147.812 124.325C147.809 124.113 147.758 123.917 147.657 123.738C147.564 123.559 147.433 123.403 147.265 123.271C147.105 123.14 146.915 123.032 146.695 122.949C146.484 122.866 146.262 122.815 146.03 122.797Z" fill="#FFFCE5"/>
<path d="M151.356 127.536L150.421 127.462L150.866 120.565L151.802 120.639L151.614 123.536L151.758 123.547C151.962 123.246 152.234 123.017 152.574 122.859C152.922 122.702 153.335 122.642 153.815 122.68C154.462 122.731 154.974 122.95 155.351 123.336C155.736 123.717 155.906 124.258 155.861 124.961L155.672 127.878L154.737 127.804L154.915 125.045C154.948 124.532 154.833 124.137 154.57 123.859C154.307 123.58 153.936 123.422 153.456 123.384C152.888 123.339 152.43 123.465 152.082 123.761C151.742 124.051 151.554 124.462 151.52 124.994L151.356 127.536Z" fill="#FFFCE5"/>
<path d="M160.019 121.843C160.031 121.653 160.121 121.498 160.29 121.379C160.467 121.255 160.671 121.202 160.903 121.22C161.135 121.238 161.326 121.323 161.477 121.473C161.636 121.618 161.71 121.786 161.698 121.976C161.685 122.167 161.591 122.324 161.414 122.449C161.246 122.568 161.045 122.618 160.814 122.599C160.582 122.581 160.386 122.5 160.227 122.355C160.076 122.204 160.007 122.034 160.019 121.843ZM157.952 127.345L160.038 127.51L160.262 124.041L158.392 123.894L158.438 123.184L161.244 123.406L160.974 127.584L162.916 127.738L162.87 128.447L157.906 128.054L157.952 127.345Z" fill="#FFFCE5"/>
<path d="M170.78 127.329C170.698 127.594 170.57 127.834 170.396 128.052C170.229 128.27 170.02 128.454 169.769 128.606C169.519 128.752 169.231 128.858 168.905 128.924C168.579 128.991 168.221 129.009 167.829 128.978C167.413 128.945 167.021 128.858 166.653 128.716C166.292 128.576 165.979 128.389 165.713 128.157C165.447 127.918 165.24 127.637 165.092 127.315C164.952 126.994 164.895 126.633 164.921 126.232L164.929 126.114C164.954 125.72 165.057 125.371 165.237 125.069C165.426 124.767 165.667 124.518 165.96 124.324C166.254 124.129 166.589 123.987 166.964 123.898C167.347 123.809 167.747 123.782 168.163 123.814C168.538 123.844 168.883 123.918 169.197 124.035C169.511 124.152 169.782 124.306 170.011 124.495C170.248 124.679 170.435 124.892 170.572 125.134C170.717 125.377 170.809 125.635 170.847 125.909L169.901 126.012C169.888 125.839 169.838 125.67 169.753 125.505C169.675 125.334 169.561 125.183 169.408 125.052C169.264 124.915 169.083 124.802 168.864 124.712C168.645 124.622 168.387 124.565 168.091 124.542C167.804 124.519 167.529 124.543 167.267 124.615C167.014 124.681 166.786 124.788 166.584 124.937C166.382 125.08 166.217 125.258 166.091 125.473C165.973 125.688 165.905 125.927 165.888 126.19L165.88 126.308C165.863 126.584 165.898 126.838 165.988 127.069C166.086 127.295 166.226 127.491 166.408 127.657C166.59 127.823 166.806 127.959 167.056 128.065C167.307 128.164 167.58 128.225 167.876 128.249C168.172 128.272 168.43 128.256 168.65 128.201C168.879 128.14 169.074 128.056 169.233 127.95C169.401 127.838 169.534 127.706 169.632 127.556C169.738 127.405 169.813 127.246 169.856 127.078L170.78 127.329Z" fill="#FFFCE5"/>
<path d="M172.492 128.495L174.65 128.665L175.004 123.187L172.918 123.022L172.963 122.312L175.985 122.551L175.585 128.739L177.743 128.91L177.698 129.62L172.446 129.204L172.492 128.495Z" fill="#FFFCE5"/>
<path d="M180.614 127.632C180.606 128.12 180.765 128.525 181.089 128.848C181.414 129.171 181.884 129.356 182.5 129.405C182.779 129.427 183.025 129.42 183.236 129.384C183.447 129.348 183.628 129.29 183.778 129.209C183.935 129.129 184.062 129.033 184.158 128.922C184.262 128.805 184.346 128.68 184.411 128.546L185.286 128.813C185.088 129.253 184.753 129.6 184.278 129.853C183.813 130.1 183.196 130.193 182.428 130.132C182.005 130.099 181.617 130.009 181.265 129.862C180.921 129.709 180.629 129.511 180.387 129.268C180.146 129.024 179.963 128.742 179.839 128.422C179.716 128.102 179.666 127.755 179.69 127.38L179.705 127.144C179.727 126.802 179.82 126.489 179.983 126.205C180.154 125.922 180.378 125.685 180.655 125.496C180.933 125.3 181.252 125.157 181.611 125.066C181.979 124.97 182.37 124.938 182.786 124.971C183.274 125.01 183.688 125.118 184.03 125.297C184.381 125.47 184.661 125.674 184.871 125.908C185.089 126.143 185.241 126.393 185.328 126.658C185.424 126.923 185.464 127.164 185.45 127.38L185.41 128.011L180.614 127.632ZM182.739 125.7C182.475 125.679 182.225 125.696 181.989 125.75C181.761 125.798 181.555 125.877 181.371 125.988C181.195 126.1 181.045 126.236 180.922 126.398C180.808 126.554 180.728 126.73 180.683 126.924L184.52 127.228C184.518 127.016 184.466 126.821 184.365 126.641C184.273 126.462 184.142 126.306 183.974 126.174C183.814 126.043 183.624 125.935 183.404 125.852C183.192 125.769 182.971 125.718 182.739 125.7Z" fill="#FFFCE5"/>
</svg>
